<?xml version="1.0" encoding="utf-8"?>
<!-- Generator: Adobe Illustrator 18.0.0, SVG Export Plug-In . SVG Version: 6.00 Build 0)  -->
<!DOCTYPE svg PUBLIC "-//W3C//DTD SVG 1.1//EN" "http://www.w3.org/Graphics/SVG/1.1/DTD/svg11.dtd">
<svg version="1.1" id="Layer_1" xmlns="http://www.w3.org/2000/svg" xmlns:xlink="http://www.w3.org/1999/xlink" x="0px" y="0px"
	 width="157.4px" height="22.9px" viewBox="0 0 157.4 22.9" enable-background="new 0 0 157.4 22.9" xml:space="preserve">
<g>
	<path fill="#FFFFDE" d="M141.8,3.2c0-1.2,0.2-2.1,0.7-2.5c0.4-0.4,1.3-0.7,2.5-0.7h9.3c1.2,0,2,0.2,2.5,0.7
		c0.4,0.4,0.7,1.3,0.7,2.5v7.1c0,1.2-0.2,2.1-0.7,2.5c-0.4,0.4-1.3,0.7-2.5,0.7H145c-1.2,0-2.1-0.2-2.5-0.7
		c-0.4-0.4-0.7-1.3-0.7-2.5V3.2z M144,11.6h11.1V1.8H144V11.6z M132,1.8v11.6h-2.2V1.8h-6.2V0h14.6v1.8H132z M107.1,13.5L114.5,0
		h2.4l7.5,13.5h-2.5l-1.7-3.3h-9.1l-1.7,3.3H107.1z M112,8.4h7.3l-3.6-6.9L112,8.4z M100.5,13.5V0h2.2v13.5H100.5z M83.5,13.5V0h2.2
		v11.6h10.2v1.9H83.5z M74.8,1.8H64.2v9.8h10.5V7.6h-5.5V5.9H77v4.4c0,1.2-0.2,2.1-0.7,2.5c-0.4,0.4-1.3,0.7-2.5,0.7h-8.7
		c-1.2,0-2.1-0.2-2.5-0.7c-0.4-0.5-0.7-1.3-0.7-2.5V3.2c0-1.2,0.2-2.1,0.7-2.5C63.1,0.2,63.9,0,65.2,0h8.7c1.2,0,2,0.2,2.5,0.7
		C76.8,1.1,77,1.9,77,3v0.3l-2.2,0.4V1.8z M39.8,3.2c0-1.2,0.2-2.1,0.7-2.5C40.9,0.2,41.7,0,42.9,0h9.3c1.2,0,2,0.2,2.5,0.7
		c0.4,0.4,0.7,1.3,0.7,2.5v7.1c0,1.2-0.2,2.1-0.7,2.5c-0.4,0.4-1.3,0.7-2.5,0.7h-9.3c-1.2,0-2.1-0.2-2.5-0.7
		c-0.4-0.4-0.7-1.3-0.7-2.5V3.2z M42,11.6h11.1V1.8H42V11.6z M20.1,13.5V0h10.8c1,0,1.7,0.2,2.2,0.6c0.4,0.4,0.7,1.1,0.7,2v3
		c0,0.9-0.2,1.6-0.7,2c-0.4,0.4-1.2,0.6-2.2,0.6h-2l6.1,5.2h-3.3l-5.5-5.2h-4v5.2H20.1z M30,1.7h-7.7v4.7H30c0.6,0,0.9-0.1,1.1-0.3
		c0.2-0.2,0.3-0.6,0.3-1.1v-2c0-0.5-0.1-0.9-0.3-1.1C31,1.9,30.6,1.7,30,1.7z M0.1,13.5V0h10.8c1,0,1.7,0.2,2.2,0.6
		c0.4,0.4,0.7,1.1,0.7,2v1.6c0,0.7-0.2,1.3-0.5,1.6c-0.4,0.4-0.9,0.6-1.7,0.7c0.8,0.1,1.3,0.4,1.7,0.8c0.4,0.4,0.6,1.1,0.6,1.8v1.7
		c0,0.9-0.3,1.6-0.9,2c-0.6,0.4-1.5,0.7-2.8,0.7H0.1z M11.5,4.3V3c0-0.4-0.1-0.7-0.3-0.9c-0.2-0.2-0.6-0.3-1.1-0.3H2.3v3.7h7.8
		c0.5,0,0.9-0.1,1.1-0.3C11.4,5.1,11.5,4.8,11.5,4.3z M11.6,10V8.9c0-0.6-0.1-1-0.3-1.3c-0.2-0.2-0.6-0.4-1.2-0.4H2.3v4.3h7.8
		c0.6,0,1-0.1,1.2-0.3C11.5,11,11.6,10.6,11.6,10z"/>
	<path fill="#FFFFDE" d="M156.4,19.3h-2.8v0.9h2.7c0.4,0,0.7,0.1,0.9,0.2c0.1,0.1,0.2,0.4,0.2,0.8v0.6c0,0.4-0.1,0.7-0.2,0.8
		c-0.2,0.1-0.4,0.2-0.9,0.2h-2.7c-0.4,0-0.7-0.1-0.9-0.2c-0.1-0.1-0.2-0.4-0.2-0.8v-0.1l0.9-0.2v0.5h3.1v-1h-2.7
		c-0.4,0-0.7-0.1-0.9-0.2c-0.1-0.1-0.2-0.4-0.2-0.8v-0.5c0-0.4,0.1-0.7,0.2-0.8c0.1-0.1,0.4-0.2,0.9-0.2h2.5c0.4,0,0.7,0.1,0.8,0.2
		c0.2,0.1,0.2,0.4,0.2,0.7v0.1l-0.9,0.2V19.3z M139.7,22.1h3.3v-2.8h-3.3V22.1z M138.7,19.6c0-0.4,0.1-0.7,0.2-0.8
		c0.1-0.1,0.4-0.2,0.9-0.2h3.2c0.4,0,0.7,0.1,0.9,0.2c0.1,0.1,0.2,0.4,0.2,0.8v2.3c0,0.4-0.1,0.7-0.2,0.8c-0.1,0.1-0.4,0.2-0.9,0.2
		h-3.2c-0.4,0-0.7-0.1-0.9-0.2c-0.1-0.1-0.2-0.4-0.2-0.8V19.6z M129,19.3v3.6h-1v-3.6h-2v-0.8h5v0.8H129z M113.2,22.9v-4.3h0.7
		l3.1,2.6c0.1,0.1,0.2,0.2,0.3,0.2c0.1,0.1,0.2,0.2,0.2,0.2c0-0.2,0-0.4,0-0.5c0-0.1,0-0.2,0-0.2v-2.3h0.9v4.3h-0.7l-3.2-2.7
		c-0.1-0.1-0.1-0.1-0.2-0.2c-0.1-0.1-0.1-0.1-0.2-0.2c0,0.1,0,0.3,0,0.4c0,0.1,0,0.2,0,0.3v2.3H113.2z M100.3,22.9v-4.3h4.4v0.7
		h-3.4v1h2V21h-2v1.1h3.5v0.8H100.3z M86,22.9v-4.3h0.8l2,2.6l2-2.6h0.8v4.3h-0.9v-2.7c0-0.1,0-0.1,0-0.2c0-0.1,0-0.2,0-0.3
		c-0.1,0.1-0.1,0.2-0.1,0.3c0,0.1-0.1,0.1-0.1,0.2l-1.6,2.2h-0.2l-1.6-2.2C87,20.1,87,20.1,86.9,20c0-0.1-0.1-0.1-0.1-0.2
		c0,0.1,0,0.2,0,0.2c0,0.1,0,0.1,0,0.2v2.7H86z M76.3,22.9v-4.3h1v4.3H76.3z M66.5,19.3v3.6h-1v-3.6h-2v-0.8h5v0.8H66.5z M55,19.3
		h-2.8v0.9h2.7c0.4,0,0.7,0.1,0.9,0.2c0.1,0.1,0.2,0.4,0.2,0.8v0.6c0,0.4-0.1,0.7-0.2,0.8c-0.2,0.1-0.4,0.2-0.9,0.2h-2.7
		c-0.4,0-0.7-0.1-0.9-0.2c-0.2-0.1-0.2-0.4-0.2-0.8v-0.1l0.9-0.2v0.5H55v-1h-2.7c-0.4,0-0.7-0.1-0.9-0.2c-0.1-0.1-0.2-0.4-0.2-0.8
		v-0.5c0-0.4,0.1-0.7,0.2-0.8c0.1-0.1,0.4-0.2,0.9-0.2h2.5c0.4,0,0.7,0.1,0.8,0.2c0.2,0.1,0.2,0.4,0.2,0.7v0.1L55,19.8V19.3z
		 M38.4,22.9v-4.3h4.4v0.7h-3.4v1h2V21h-2v1.1h3.5v0.8H38.4z M27.6,22.9l-2.5-4.3h1.2l1.8,3.1l1.7-3.1h1l-2.4,4.3H27.6z M13.3,22.9
		v-4.3h4.4v0.7h-3.4v1h2V21h-2v1.1h3.5v0.8H13.3z M0,22.9v-4.3h3.7c0.3,0,0.6,0.1,0.8,0.2c0.2,0.1,0.2,0.3,0.2,0.6v1
		c0,0.3-0.1,0.5-0.2,0.6c-0.2,0.1-0.4,0.2-0.8,0.2H3.1l2,1.6H3.7l-1.7-1.6H1v1.6H0z M3.3,19.3H1v1.2h2.3c0.2,0,0.3,0,0.4-0.1
		c0.1-0.1,0.1-0.1,0.1-0.3v-0.5c0-0.1,0-0.2-0.1-0.3C3.6,19.3,3.4,19.3,3.3,19.3z"/>
</g>
</svg>
