<?xml version="1.0" encoding="utf-8"?>
<!-- Generator: Adobe Illustrator 18.0.0, SVG Export Plug-In . SVG Version: 6.00 Build 0)  -->
<!DOCTYPE svg PUBLIC "-//W3C//DTD SVG 1.1//EN" "http://www.w3.org/Graphics/SVG/1.1/DTD/svg11.dtd">
<svg version="1.1" id="Layer_1" xmlns="http://www.w3.org/2000/svg" xmlns:xlink="http://www.w3.org/1999/xlink" x="0px" y="0px"
	 width="152.6px" height="42.3px" viewBox="0 0 152.6 42.3" enable-background="new 0 0 152.6 42.3" xml:space="preserve">
<g>
	<path fill="#FFFFDE" d="M35.8,10.6c5.8,0,10.9,4.2,11.9,9.9c0.5,2.7,0.2,5.7,0.2,8.4c0,1.1,0,2.3,0,3.4c0,1.4-0.6,2.4-2.1,2.4
		c-2.7,0-5.3,0-8,0c-2,0-4,0-6-0.7c-3.5-1.3-6.3-4.1-7.5-7.7C21.8,18.7,27.8,10.6,35.8,10.6z M41,17.5c-3.3-3.3-9.1-2.6-11.5,1.5
		c-2.4,4.1-0.1,9.6,4.5,10.7c2,0.5,4.1,0.3,6.2,0.3c1,0,2.5,0.1,2.8-1.1c0.3-1.6,0.1-3.6,0.1-5.2C43.1,21.4,42.6,19.1,41,17.5z"/>
	<path fill="#FFFFDE" d="M50.2,22.6c0-5.8,4.3-10.9,10-11.9c5.7-1,11.5,2.3,13.5,7.8c1,2.8,0.7,6.1,0.7,9c0,1.5,0,2.9,0,4.4
		c0,0.9,0.1,1.8-0.7,2.4c-1.1,0.8-3,0.7-3.8-0.4c-0.5-0.7-0.3-1.7-0.3-2.5c0-2.8,0-5.6,0-8.4c0-4.7-4.1-8.6-8.9-7.5
		c-2.6,0.6-4.7,2.6-5.4,5.2C54.9,21.8,55,23,55,24.2c0,2.6,0,5.2,0,7.8c0,0.7,0.1,1.5-0.4,2c-0.8,1-2.4,1.1-3.5,0.6
		c-0.8-0.5-0.9-1.2-0.9-2.1c0-1.2,0-2.3,0-3.5C50.2,26.8,50.2,24.7,50.2,22.6z"/>
	<path fill="#FFFFDE" d="M100.8,22.6c0,5.8-4.3,11-10,11.9c-5.8,1-11.5-2.4-13.5-7.9c-2-5.5,0.4-11.7,5.5-14.6
		c3.3-1.8,6.8-1.5,10.4-1.5c0.2,0,2.7,0,2.7,0c0-1,0-2.1,0-3.1c0-1.5,0-3.1,0-4.6c0-0.9-0.2-1.8,0.7-2.3c1-0.6,3.1-0.7,3.9,0.4
		c0.3,0.4,0.2,1.1,0.2,1.6c0,2.6,0,5.2,0,7.7C100.8,14.3,100.8,18.4,100.8,22.6z M88.8,29.9c2.1,0,4.2-1,5.6-2.6
		c1.4-1.7,1.8-3.9,1.9-6.1c0-1.1,0-2.2-0.1-3.3c0-0.6-0.1-1.4-0.5-1.9c-0.8-1-2.9-0.7-4-0.8c-2.2-0.1-4.5-0.1-6.5,1.1
		c-1.8,1-3.1,2.9-3.5,5C80.8,25.7,84.2,29.9,88.8,29.9z"/>
	<path fill="#FFFFDE" d="M103.5,18c2.3-5.3,8.2-8.3,13.9-7c5.7,1.3,9.6,6.7,9.3,12.4c-0.3,5.7-4.9,10.7-10.7,11.3
		c-5.8,0.6-11.3-3-13-8.6C102.2,23.4,102.4,20.5,103.5,18z M107.3,22.7c0,4,3.3,7.3,7.3,7.3c4,0,7.3-3.3,7.3-7.3
		c0-4-3.3-7.3-7.3-7.3C110.6,15.4,107.3,18.7,107.3,22.7z"/>
	<path fill="#FFFFDE" d="M129.4,18c2.3-5.3,8.2-8.3,13.9-7c5.7,1.3,9.6,6.7,9.3,12.4c-0.3,5.8-4.9,10.7-10.7,11.3
		c-5.8,0.6-11.3-3-13-8.6C128.2,23.4,128.3,20.5,129.4,18z M133.2,22.7c0,4,3.3,7.3,7.3,7.3c4,0,7.3-3.3,7.3-7.3
		c0-4-3.3-7.3-7.3-7.3C136.5,15.4,133.2,18.7,133.2,22.7z"/>
	<path fill="#FFFFDE" d="M3.5,14.1c4.2-4.2,11-4.7,15.8-1.2c1.4,1.1,3.4,3.7,1.2,5.1c-2.1,1.4-4.2-1.6-6-2.3
		c-5.9-2.2-11.6,4.3-9.1,9.9c1.1,2.4,3.4,4.1,6,4.3c2.7,0.2,4.2-1.2,6.3-2.6c1.2-0.8,2.6-0.2,3.3,0.9c0.9,1.4,0.2,2.6-0.9,3.6
		c-3.4,2.7-7.7,3.7-11.9,2.3C-0.1,31.3-2.7,20.3,3.5,14.1z"/>
	<path fill-rule="evenodd" clip-rule="evenodd" fill="#FFFFDE" d="M104.4,33.2c3.4,0,3.4,5.2,0,5.2
		C101.1,38.4,101.1,33.2,104.4,33.2z"/>
	<path fill-rule="evenodd" clip-rule="evenodd" fill="#FFFFDE" d="M99,37.3c2.5,0,2.5,3.9,0,3.9C96.5,41.2,96.5,37.3,99,37.3z"/>
	<path fill-rule="evenodd" clip-rule="evenodd" fill="#FFFFDE" d="M94.1,39.6c1.7,0,1.7,2.7,0,2.7C92.4,42.3,92.4,39.6,94.1,39.6z"
		/>
</g>
</svg>
