<?xml version="1.0" encoding="utf-8"?>
<!-- Generator: Adobe Illustrator 18.0.0, SVG Export Plug-In . SVG Version: 6.00 Build 0)  -->
<!DOCTYPE svg PUBLIC "-//W3C//DTD SVG 1.1//EN" "http://www.w3.org/Graphics/SVG/1.1/DTD/svg11.dtd">
<svg version="1.1" id="Layer_1" xmlns="http://www.w3.org/2000/svg" xmlns:xlink="http://www.w3.org/1999/xlink" x="0px" y="0px"
	 width="146.2px" height="47.1px" viewBox="0 0 146.2 47.1" enable-background="new 0 0 146.2 47.1" xml:space="preserve">
<g>
	<path fill-rule="evenodd" clip-rule="evenodd" fill="#FFFFDE" d="M45,12.5L45,12.5L25,1.6v0l0,0l0,0v0l-20,10.9l0,0v0l0,0l0,0
		l0,21.9l0,0l0,0v0l0,0l20,10.9v0l0,0l0,0v0l20-11l0,0v0l0,0l0,0L45,12.5z M24.9,0c13.7,0,24.9,10.6,24.9,23.5
		c0,13-11.2,23.5-24.9,23.5C11.2,47.1,0,36.5,0,23.5C0,10.6,11.2,0,24.9,0z"/>
	<polygon fill-rule="evenodd" clip-rule="evenodd" fill="#FFFFDE" points="21.7,10.6 40.3,10.6 40.3,15.5 27.7,15.5 27.7,36.1 
		9.1,36.1 9.1,31.4 21.7,31.4 	"/>
	<rect x="28.5" y="21.8" fill-rule="evenodd" clip-rule="evenodd" fill="#FFFFDE" width="10" height="4.8"/>
	<rect x="62.5" y="21.8" fill-rule="evenodd" clip-rule="evenodd" fill="#FFFFDE" width="9.9" height="4.7"/>
	<path fill-rule="evenodd" clip-rule="evenodd" fill="#FFFFDE" d="M146.2,14.6h-5.3v22.1h5.3V14.6z M134,36.7h5.3V27
		c0-5.3-2.3-5.9-7.8-5.9c-3.8,0-7.6-0.1-7.6,4.8h5.3c0-1.4,0.8-1.7,2.2-1.7c2.3,0,2.4,0.9,2.4,2.3V29h-0.3c-0.6-1.8-2.9-1.8-4.5-1.8
		c-3.8,0-5.9,1.2-5.9,4.9c0,4,2.2,4.8,5.9,4.8c1.9,0,4.3-0.3,4.8-2.4h0.2L134,36.7z M131,30.3c1.8,0,3,0.2,3,1.4c0,1.7-0.8,2-3,2
		c-0.7,0-2.3,0-2.3-1.7C128.6,30.6,129.7,30.3,131,30.3z M114.2,33.1c-2.9,0-3-1.1-3-4.1c0-3.6,0.8-4,3-4c2.4,0,2.6,1.4,2.6,4
		C116.8,32.3,116.5,33.1,114.2,33.1z M105.9,14.6v22.1h5.3l-0.1-2.7h0.2c0.7,2.4,2.3,2.8,4.7,2.8c4,0,6.3-1.5,6.3-5.7v-3.6
		c0-4.7-1.8-6.6-6.3-6.6c-2,0-3.7,0.4-4.5,2.4h-0.3v-8.9H105.9z M99.7,28h4.9v-1.2c0-2.8-0.4-5.7-4.1-5.7c-2,0-3.4,0.6-4.1,2.4h-0.2
		v-2.2h-5.2v15.4h5.4v-9.2c0-1.3,0.4-2.5,2-2.5c1.5,0,1.4,1.2,1.4,2.3V28z M81.3,25c2.5,0,2.7,0.6,2.7,4c0,3.4-0.2,4.1-2.7,4.1
		c-2.6,0-2.9-0.7-2.9-4.1C78.4,25.6,78.7,25,81.3,25z M81.2,21.1c-6.8,0-8.2,1.6-8.2,7.9c0,6.2,1.4,7.9,8.2,7.9
		c6.8,0,8.2-1.5,8.2-7.9C89.5,22.4,88.1,21.1,81.2,21.1z"/>
	<polygon fill-rule="evenodd" clip-rule="evenodd" fill="#FFFFDE" points="55.8,10.7 74.2,10.7 74.2,15.5 61.7,15.5 61.7,36.7 
		55.7,36.7 	"/>
</g>
</svg>
