<?xml version="1.0" encoding="utf-8"?>
<!-- Generator: Adobe Illustrator 18.0.0, SVG Export Plug-In . SVG Version: 6.00 Build 0)  -->
<!DOCTYPE svg PUBLIC "-//W3C//DTD SVG 1.1//EN" "http://www.w3.org/Graphics/SVG/1.1/DTD/svg11.dtd">
<svg version="1.1" id="Layer_1" xmlns="http://www.w3.org/2000/svg" xmlns:xlink="http://www.w3.org/1999/xlink" x="0px" y="0px"
	 width="131.2px" height="68.6px" viewBox="0 0 131.2 68.6" enable-background="new 0 0 131.2 68.6" xml:space="preserve">
<g>
	<path fill="#FFFFDE" d="M4.2,67.6c0.6,0.7,1.5,1,2.7,1c1.2,0,2.1-0.3,2.7-1c0.5-0.6,0.8-1.4,0.8-2.4v-5.8H9.6V65
		c0,1.9-0.9,2.9-2.7,2.9c-1.8,0-2.7-1-2.7-2.9v-5.6H3.4v5.8C3.4,66.2,3.7,67,4.2,67.6 M19.9,68.4v-4h3.3c0.7,0,1.2,0.3,1.5,0.8
		c0.2,0.3,0.3,0.9,0.3,1.8c0,0.8,0.1,1.2,0.2,1.4h1c-0.2-0.2-0.3-0.6-0.3-1.1c0-0.1,0-0.5-0.1-1.2c-0.1-1.2-0.6-1.9-1.6-2.1v0
		c0.6-0.1,1-0.4,1.3-0.8c0.3-0.4,0.4-0.9,0.4-1.5c0-0.8-0.3-1.4-0.8-1.8c-0.5-0.4-1.1-0.6-2-0.6H19v9.1H19.9z M23.1,60.1
		c0.6,0,1.1,0.2,1.5,0.5c0.3,0.3,0.5,0.8,0.5,1.3c0,0.5-0.2,1-0.6,1.3c-0.4,0.3-0.8,0.5-1.4,0.5h-3.2v-3.6H23.1z M38.1,64.1
		c1.6,0,2.4,0.6,2.4,1.8c0,1.2-0.8,1.9-2.4,1.9h-3v-3.6H38.1z M38.1,68.4c2.2,0,3.3-0.9,3.3-2.6c0-0.6-0.2-1.1-0.5-1.5
		c-0.3-0.4-0.8-0.6-1.4-0.7v0c0.5-0.1,0.8-0.3,1.1-0.7c0.3-0.4,0.4-0.8,0.4-1.3c0-0.8-0.3-1.4-0.9-1.7c-0.5-0.3-1.2-0.5-2-0.5h-3.9
		v9.1H38.1z M38.1,60.1c1.4,0,2.1,0.6,2.1,1.7c0,0.5-0.2,0.8-0.5,1.1c-0.4,0.3-0.9,0.4-1.5,0.4h-3v-3.3H38.1z M49.4,68.4l1.1-2.8
		h4.1l1.1,2.8h0.9l-3.6-9.1h-1l-3.7,9.1H49.4z M54.4,64.9h-3.6l1.8-4.7L54.4,64.9z M65.2,68.4v-7.7l5.3,7.7h1v-9.1h-0.9V67l-5.3-7.7
		h-1v9.1H65.2z M81,59.3h-0.9v9.1H81V59.3z M90.1,67.9c0.6,0.5,1.5,0.8,2.7,0.8c1.4,0,2.4-0.4,2.9-1.1c0.4-0.4,0.5-0.9,0.5-1.5
		c0-1.2-0.8-2-2.4-2.4l-2.2-0.5c-0.9-0.2-1.4-0.7-1.4-1.4c0-0.6,0.2-1.1,0.7-1.4c0.4-0.3,0.9-0.4,1.6-0.4c0.7,0,1.2,0.2,1.7,0.5
		c0.5,0.4,0.8,0.9,0.8,1.6H96c0-0.9-0.3-1.6-1-2.1c-0.6-0.5-1.4-0.7-2.4-0.7c-1.1,0-2,0.3-2.5,0.9c-0.4,0.5-0.6,1-0.6,1.6
		c0,1.1,0.7,1.9,2.1,2.2l2,0.5c1.2,0.3,1.9,0.9,1.9,1.6c0,0.6-0.3,1.1-0.8,1.4c-0.5,0.3-1,0.4-1.6,0.4c-2,0-3-0.8-3-2.4h-0.9
		C89.1,66.5,89.4,67.3,90.1,67.9 M105.3,68.4v-7.9h0l3.1,7.9h0.8l3.1-7.9h0v7.9h0.9v-9.1h-1.3l-3.1,8l-3.1-8h-1.3v9.1H105.3z
		 M122.4,67.2c0.8,1,1.9,1.4,3.2,1.4c1.4,0,2.4-0.5,3.2-1.4c0.7-0.9,1.1-2,1.1-3.3c0-1.3-0.4-2.4-1.1-3.3c-0.8-1-1.9-1.4-3.2-1.4
		c-1.4,0-2.4,0.5-3.2,1.4c-0.7,0.9-1.1,2-1.1,3.3C121.3,65.2,121.7,66.3,122.4,67.2 M123,61.1c0.6-0.8,1.5-1.2,2.6-1.2
		c1.1,0,2,0.4,2.6,1.2c0.5,0.7,0.8,1.7,0.8,2.8c0,1.1-0.3,2-0.8,2.7c-0.6,0.8-1.5,1.3-2.6,1.3c-1.1,0-2-0.4-2.6-1.3
		c-0.5-0.7-0.8-1.6-0.8-2.7C122.2,62.8,122.4,61.9,123,61.1"/>
	<g>
		<defs>
			<rect id="SVGID_1_" x="0" y="55.3" width="131.2" height="0.5"/>
		</defs>
		<use xlink:href="#SVGID_1_"  overflow="visible" fill="#FFFFDE"/>
		<clipPath id="SVGID_2_">
			<use xlink:href="#SVGID_1_"  overflow="visible"/>
		</clipPath>
		<rect x="0" y="55.3" clip-path="url(#SVGID_2_)" fill="#FFFFDE" width="131.2" height="0.5"/>
	</g>
	<path fill="#FFFFDE" d="M67.7,42.6c0-1.6,0.2-3.2,0.5-4.4c0.1-0.5,0.3-1.1,0.5-1.5c0.3-0.7,0.7-1.3,1.2-1.7
		c0.8-0.8,1.8-1.3,3.1-1.3h0.2h0.1l-0.3,0.3L72,35.2l1.1,0.9l1.9-2.2c0.7,0.4,1.5,0.9,2,1.8c1,1.4,1.4,3.3,1.4,5.4
		c0,2-0.5,4-1.3,5.8c-0.8,1.8-2.2,2.7-4.1,2.8h-0.3c-0.9,0-1.7-0.3-2.4-0.8c-0.6-0.5-1.2-1.1-1.5-1.8c-0.1-0.2-0.3-0.5-0.4-0.7
		C68,45.3,67.7,44,67.7,42.6 M64.7,37.2c-0.6,1.5-1,3.1-1,4.6c0,1.8,0.1,3.6,1.1,5.2c0.1,0.4,0.3,0.5,0.5,0.8
		c1.1,1.4,2.3,2.3,3.6,2.8c0,0,0.1,0,0.1,0.1c1.5,0.5,2.7,0.7,3.9,0.6h0.3c2.2-0.1,4.1-0.7,5.7-1.9c0.4-0.2,0.7-0.5,1-0.8
		c1.6-1.5,2.5-3.5,2.7-6.1v-1.8v0c-0.1-1.4-0.5-2.7-1-3.9c-0.6-1.4-1.5-2.4-2.7-3.2c-0.2-0.1-0.3-0.2-0.5-0.3
		c-0.6-0.5-1.4-0.7-2.2-1l1.3-1.5L76.3,30l-1.8,2.1C74,32,73.6,32,73.1,32h-0.1c-1.6,0-3.1,0.3-4.3,0.9c-0.4,0.2-0.7,0.4-1,0.5
		C66.4,34.5,65.4,35.6,64.7,37.2L64.7,37.2z M75.5,27h1.2c0.1-2.1-0.4-4-1.2-5.8c-1.8-3.5-5.5-6-9.9-6.1c-4.4,0-8.1,2.6-9.9,6.3
		c-0.9,1.7-1.2,3.6-1.2,5.6h1.2H75.5z M43.7,32.1c-1,7.5-2.5,18.2-2.7,19.3h2.4c0-1.2,0.9-11.3,1.1-12.8c0.6,1.4,1.1,2.6,1.6,3.7
		c0.5,0.9,3.3,7.4,4,9H51c1.5-3.5,3.1-7.1,4.8-11c0.4-0.6,0.7-1.3,0.9-2c0.2,1.9,0.3,3.5,0.5,4.8c0.1,1.3,0.3,2.7,0.4,4.1l0.3,4.2
		H62c-0.5-3.9-0.9-6.9-1.1-9.5c-0.3-2.4-0.7-5.7-1-9.9h-0.1h-2.1c-0.5,1-1,2.4-1.9,4.1c-1,2.4-2.4,5.4-4.1,9.1
		c-1.5-3.1-2.7-5.9-3.8-8.3c-0.8-1.9-1.6-3.6-2.1-5H43.7z M17.1,41.1c0,2-0.5,4-1.3,5.8c-0.8,1.8-2.2,2.7-4.1,2.8h-0.2
		c-1,0-1.8-0.3-2.6-0.8c-0.3-0.2-0.5-0.5-0.7-0.6c-0.5-0.5-0.8-1.2-1.2-1.9c-0.5-1.1-0.7-2.4-0.7-3.8c0-1.6,0.2-3.2,0.6-4.5
		C7.2,37,7.6,36,8.3,35.3c0.1-0.2,0.3-0.4,0.4-0.5c0.8-0.8,1.8-1.3,3.1-1.3h0.2H12c1.5,0,2.7,0.6,3.7,2.1
		C16.6,37,17.1,38.9,17.1,41.1 M21.3,41.6c0-1.7-0.4-3.4-1.1-4.8c-0.6-1.5-1.7-2.7-3.2-3.5c-1.4-0.9-3.1-1.4-5.2-1.4h-0.1
		c-1.3,0-2.4,0.2-3.4,0.6c-0.7,0.3-1.4,0.5-1.9,0.9c-1.3,1-2.3,2.3-3.1,3.7c-0.6,1.5-1,3.1-1,4.6v0.4c0,2.5,0.5,4.4,1.5,5.7
		c1.1,1.4,2.4,2.4,3.8,2.9c0.2,0,0.4,0.1,0.6,0.2c1.1,0.4,2.2,0.5,3.2,0.5h0.3c2.7-0.2,5-1.1,6.7-2.7C20.4,47,21.3,44.6,21.3,41.6
		 M23.5,51.4h9.3c0-0.4,0-1.4,0-2.2c-3,0-4.3,0-5.9,0V32.1H23v19.3H23.5z M35,51.4h3.7V32.1H35V51.4z M49.6,24.2h-9.7
		c0,0.5-0.1,1.1-0.1,1.6c0,0.2,0,0.6,0,1.2h9.8h0.1h1.9c0-0.9,0.1-1.8,0.2-2.8h-2.1H49.6z M49.6,17.9l-7.3-3c-0.4,0.8-0.7,1.7-1,2.5
		l8.3,3.6l2.8,1.1c0.3-0.9,0.6-1.7,1-2.5L49.6,17.9z M55.7,14.1l-6.1-5.9l-1.4-1.3c-0.7,0.6-1.3,1.3-1.9,2l3.3,3.3l5.4,5.2
		c0.2-0.3,0.5-0.6,0.8-0.9c0.3-0.4,0.8-0.8,1.2-1.2L55.7,14.1z M58.9,13.8c0.8-0.5,1.6-0.8,2.6-1L56.9,1.5c-0.9,0.3-1.7,0.7-2.6,1.1
		l1.3,3.1L58.9,13.8z M65.5,12.1c0.5,0.1,1,0.1,1.3,0.1V0c-0.4,0-0.8,0-1.3,0c-0.5,0-1,0-1.5,0v12.1C64.6,12.2,65.1,12.1,65.5,12.1
		 M75.5,5.8l1.3-3.3c-0.8-0.4-1.7-0.8-2.6-1.1l-4.6,11.3c1,0.3,1.7,0.7,2.6,1.1L75.5,5.8z M81.6,12.1l3.3-3.3
		C84.3,8,83.7,7.4,83,6.8l-1.4,1.4l-6.1,6l-1.2,1.2c0.4,0.3,0.8,0.7,1.2,1.1c0.3,0.3,0.6,0.6,0.8,0.9L81.6,12.1z M81.6,21l8.4-3.6
		c-0.3-0.9-0.6-1.7-1-2.5l-7.4,3.1l-3.8,1.6c0.5,0.8,0.9,1.6,1.1,2.6L81.6,21z M91.4,27c0-0.4,0-0.8,0-1.2c0-0.5,0-1.1-0.1-1.6h-9.8
		h-2.2c0.1,1,0.1,1.9,0.1,2.8h2.1H91.4z M91.5,51.4c0.9-2.9,6.1-16.6,7.1-19.3h-2.3c-0.3,1-3.8,11.3-4.8,14
		c-0.5-1.5-4.2-12.7-4.6-14h-4.4c0.7,2.2,6.2,17.2,6.6,18.8c0.1,0.2,0.1,0.4,0.2,0.6H91.5z M100,51.4h9.8v-2.2h-5.9v-7.1l3.4,0v-2
		l-3.4,0v-6l5.9,0v-2.1h-0.2h-0.1h-2.8H100V51.4z M112.1,51.4h3.7V32.1h-3.7V51.4z M127.5,36c0.1-0.5,0.7-2.3,0.8-2.7
		c-0.4-0.3-0.7-0.5-1.3-0.7c-0.1-0.1-0.3-0.1-0.5-0.2c-0.7-0.3-1.5-0.4-2.1-0.4c-0.6,0-1,0.1-1.5,0.1c-0.7,0.2-1.3,0.4-1.9,0.7
		c-0.9,0.5-1.6,1.2-2,2.1c-0.5,0.8-0.6,1.8-0.6,2.8c0,1.5,0.4,2.6,1,3.4c0.6,0.9,1.8,1.6,3.2,2.3c0.1,0,0.2,0.1,0.3,0.1
		c1.1,0.5,1.9,1,2.3,1.6c0.5,0.5,0.7,1.2,0.7,1.9c0,0.8-0.3,1.5-0.8,2.1c-0.6,0.5-1.3,0.8-2.1,0.7h-0.1c-1.9-0.1-3-1.1-3.4-2.9h-0.5
		c-0.3,1.5-0.5,2.3-0.8,3.4c1.1,0.7,2.5,1.1,4.1,1.1c0.2,0,0.4,0,0.6,0c1.5,0,2.9-0.5,4.1-1.4c1.4-1.1,2.1-2.6,2.1-4.3
		c0-1.8-0.6-3.4-2.1-4.5c-0.4-0.4-0.9-0.7-1.5-1l-1.9-1c-0.3-0.2-0.5-0.3-0.7-0.5c-1-0.6-1.5-1.4-1.5-2.3c0-0.9,0.2-1.5,0.7-2
		c0.2-0.3,0.5-0.5,0.8-0.5c0.4-0.1,0.8-0.2,1.3-0.2c0.7,0,1.4,0.3,1.9,0.7c0.5,0.4,0.9,1.2,1,1.6H127.5z"/>
</g>
</svg>
