<?xml version="1.0" encoding="utf-8"?>
<!-- Generator: Adobe Illustrator 18.0.0, SVG Export Plug-In . SVG Version: 6.00 Build 0)  -->
<!DOCTYPE svg PUBLIC "-//W3C//DTD SVG 1.1//EN" "http://www.w3.org/Graphics/SVG/1.1/DTD/svg11.dtd">
<svg version="1.1" id="Layer_1" xmlns="http://www.w3.org/2000/svg" xmlns:xlink="http://www.w3.org/1999/xlink" x="0px" y="0px"
	 width="120.9px" height="49.2px" viewBox="0 0 120.9 49.2" enable-background="new 0 0 120.9 49.2" xml:space="preserve">
<g>
	<g>
		<g>
			<g>
				<path fill="#FFFFDE" d="M9.7,0H0v35.7h4.5V20.6h5.2c3,0,5.5-2.5,5.5-5.5V5.6C15.2,2.5,12.8,0,9.7,0z M9.7,16.6H4.5V4.5h5.2
					c0.6,0,1,0.8,1,1.6v9.1C10.7,15.8,10.3,16.6,9.7,16.6z"/>
				<path fill="#FFFFDE" d="M24.1,0h-4.8l-6.6,35.7h4.4L19,24.8h5.2l1.9,10.9h4.5L24.1,0z M19.8,20.8l1.9-10.3l1.8,10.3H19.8z"/>
				<polygon fill="#FFFFDE" points="43.3,0 43.3,22.7 37.7,0 32.1,0 32.1,35.8 36.5,35.8 36.5,14.1 41.7,35.8 47.8,35.8 47.8,0 				
					"/>
				<rect x="49.1" y="0" fill="#FFFFDE" width="4.5" height="35.7"/>
				<path fill="#FFFFDE" d="M97.9,0h-4.7c-3,0-5.5,2.6-5.5,5.7v24.4c0,3.1,2.5,5.7,5.5,5.7h4.7c3,0,5.5-2.6,5.5-5.7V5.8
					C103.4,2.7,100.8,0,97.9,0z M92.2,5.8c0-0.8,0.5-1.7,1-1.7h4.7C98.4,4.1,99,5,99,5.8v24.4c0,0.8-0.5,1.7-1.1,1.7h-4.7
					c-0.5,0-1-0.9-1-1.7V5.8z"/>
				<polygon fill="#FFFFDE" points="116.5,0 116.5,22.7 110.9,0 105.2,0 105.2,35.8 109.7,35.8 109.7,14.1 114.9,35.8 120.9,35.8 
					120.9,0 				"/>
			</g>
		</g>
	</g>
	<g>
		<g>
			<path fill="#FFFFDE" d="M4.6,48.6c0,0.1,0,0.1,0,0.2c0,0.1,0,0.1,0,0.1s0,0.1-0.1,0.1H4.4h-4c-0.1,0-0.2,0-0.3-0.1
				c0,0-0.1-0.1-0.1-0.3v-7.3C0,41.1,0,41,0.1,41c0.1-0.1,0.2-0.1,0.3-0.1h3.9h0.1c0,0,0,0,0.1,0.1v0.1c0,0.1,0,0.1,0,0.2
				c0,0.1,0,0.1,0,0.2c0,0.1,0,0.1,0,0.1s0,0.1-0.1,0.1H4.3H1.1v2.6h2.7h0.1c0,0,0.1,0,0.1,0.1v0.1c0,0.1,0,0.1,0,0.2
				c0,0.1,0,0.1,0,0.2C4,45,4,45,4,45s0,0.1-0.1,0.1H3.8H1.1V48h3.2h0.1c0,0,0.1,0,0.1,0.1v0.1C4.6,48.5,4.6,48.6,4.6,48.6z"/>
			<path fill="#FFFFDE" d="M14.9,48.9C14.9,49,14.9,49,14.9,48.9c0,0.1-0.1,0.1-0.1,0.1s-0.1,0-0.2,0c-0.1,0-0.2,0-0.3,0
				s-0.2,0-0.3,0s-0.1,0-0.2,0c0,0-0.1,0-0.1-0.1v-0.1v-7.1l0,0L10.9,49c0,0,0,0.1-0.1,0.1c0,0-0.1,0-0.1,0.1c0,0-0.1,0-0.2,0
				c-0.1,0-0.1,0-0.2,0c-0.1,0-0.2,0-0.2,0c-0.1,0-0.1,0-0.2,0c0,0-0.1,0-0.1-0.1c0,0,0,0,0-0.1l-2.7-7.1l0,0V49v0.1
				c0,0,0,0-0.1,0.1c0,0-0.1,0-0.2,0s-0.2,0-0.3,0c-0.1,0-0.2,0-0.3,0c-0.1,0-0.1,0-0.2,0c0,0-0.1,0-0.1-0.1V49v-7.5
				c0-0.2,0-0.3,0.1-0.4C6.1,41,6.2,41,6.3,41H7c0.1,0,0.3,0,0.4,0s0.2,0.1,0.3,0.1c0.1,0.1,0.1,0.1,0.2,0.2C8,41.4,8,41.5,8,41.6
				l2.3,5.9l0,0l2.4-5.9c0-0.1,0.1-0.2,0.2-0.3c0.1-0.1,0.1-0.2,0.2-0.2c0.1-0.1,0.1-0.1,0.2-0.1c0.1,0,0.2,0,0.3,0h0.7
				c0.1,0,0.1,0,0.2,0c0.1,0,0.1,0,0.1,0.1c0,0,0.1,0.1,0.1,0.2c0,0.1,0,0.1,0,0.2L14.9,48.9L14.9,48.9z"/>
			<path fill="#FFFFDE" d="M22.2,46.8c0,0.3,0,0.5-0.1,0.7s-0.2,0.4-0.3,0.6c-0.1,0.2-0.3,0.3-0.4,0.5c-0.2,0.1-0.4,0.2-0.6,0.3
				s-0.4,0.2-0.7,0.2c-0.2,0-0.5,0.1-0.8,0.1h-2.1c-0.1,0-0.2,0-0.3-0.1c-0.1-0.1-0.1-0.2-0.1-0.3v-7.3c0-0.2,0-0.3,0.1-0.3
				c0.1-0.1,0.2-0.1,0.3-0.1H19c0.5,0,0.9,0,1.2,0.1c0.3,0.1,0.6,0.2,0.8,0.4c0.2,0.2,0.4,0.4,0.5,0.6c0.1,0.3,0.2,0.5,0.2,0.9
				c0,0.2,0,0.4-0.1,0.6c0,0.2-0.1,0.3-0.2,0.5c-0.1,0.1-0.2,0.3-0.3,0.4c-0.1,0.1-0.3,0.2-0.5,0.3c0.2,0,0.4,0.1,0.6,0.2
				c0.2,0.1,0.4,0.3,0.5,0.4c0.1,0.2,0.3,0.4,0.3,0.6C22.1,46.2,22.2,46.5,22.2,46.8z M20.5,43.1c0-0.2,0-0.4-0.1-0.5
				c-0.1-0.2-0.1-0.3-0.3-0.4c-0.1-0.1-0.3-0.2-0.5-0.3s-0.4-0.1-0.7-0.1h-1.1v2.6H19c0.3,0,0.5,0,0.7-0.1s0.3-0.2,0.4-0.3
				s0.2-0.3,0.2-0.4C20.5,43.5,20.5,43.3,20.5,43.1z M21,46.8c0-0.2,0-0.5-0.1-0.6c-0.1-0.2-0.2-0.3-0.3-0.5
				c-0.1-0.1-0.3-0.2-0.6-0.3c-0.2-0.1-0.5-0.1-0.8-0.1h-1.3v2.9h1.6c0.2,0,0.5,0,0.6-0.1c0.2-0.1,0.3-0.1,0.5-0.3
				c0.1-0.1,0.2-0.3,0.3-0.4C21,47.2,21,47,21,46.8z"/>
			<path fill="#FFFFDE" d="M29.5,48.7c0,0.1,0.1,0.2,0.1,0.2c0,0.1,0,0.1,0,0.1s-0.1,0-0.2,0.1c-0.1,0-0.2,0-0.3,0
				c-0.1,0-0.2,0-0.3,0c-0.1,0-0.1,0-0.2,0c0,0-0.1,0-0.1-0.1c0,0,0-0.1-0.1-0.1l-0.7-2h-3.4l-0.7,2c0,0,0,0.1-0.1,0.1l-0.1,0.1
				c0,0-0.1,0-0.2,0s-0.2,0-0.3,0c-0.1,0-0.2,0-0.3,0c-0.1,0-0.1,0-0.2-0.1v-0.1c0-0.1,0-0.1,0.1-0.2l2.7-7.6c0,0,0-0.1,0.1-0.1
				l0.1-0.1c0.1,0,0.1,0,0.2,0s0.2,0,0.3,0c0.1,0,0.2,0,0.3,0c0.1,0,0.2,0,0.2,0c0.1,0,0.1,0,0.1,0.1l0.1,0.1L29.5,48.7z M26,42
				L26,42l-1.4,4.1h2.8L26,42z"/>
			<path fill="#FFFFDE" d="M34.8,48.6c0,0.1,0,0.2,0,0.2c0,0.1,0,0.1,0,0.1s0,0.1-0.1,0.1h-0.1H31c-0.1,0-0.2,0-0.3-0.1
				c-0.1-0.1-0.1-0.2-0.1-0.3v-7.5V41c0,0,0,0,0.1-0.1c0,0,0.1,0,0.2,0s0.2,0,0.3,0c0.1,0,0.2,0,0.3,0c0.1,0,0.1,0,0.2,0
				c0,0,0.1,0,0.1,0.1v0.1v7h2.9h0.1c0,0,0.1,0,0.1,0.1v0.1C34.8,48.5,34.8,48.5,34.8,48.6z"/>
			<path fill="#FFFFDE" d="M41.9,48.7c0,0.1,0.1,0.2,0.1,0.2c0,0.1,0,0.1,0,0.1s-0.1,0-0.2,0.1c-0.1,0-0.2,0-0.3,0s-0.2,0-0.3,0
				s-0.1,0-0.2,0c0,0-0.1,0-0.1-0.1c0,0,0-0.1-0.1-0.1l-0.7-2h-3.4l-0.7,2c0,0,0,0.1-0.1,0.1l-0.1,0.1c0,0-0.1,0-0.2,0
				c-0.1,0-0.2,0-0.3,0s-0.2,0-0.3,0s-0.1,0-0.2-0.1v-0.1c0-0.1,0-0.1,0.1-0.2l2.7-7.6c0,0,0-0.1,0.1-0.1l0.1-0.1c0.1,0,0.1,0,0.2,0
				c0.1,0,0.2,0,0.3,0s0.2,0,0.3,0s0.2,0,0.2,0c0.1,0,0.1,0,0.1,0.1l0.1,0.1L41.9,48.7z M38.4,42L38.4,42L37,46.1h2.8L38.4,42z"/>
			<path fill="#FFFFDE" d="M49,42.1c0,0.1,0,0.1,0,0.2c0,0.1,0,0.1,0,0.2c0,0,0,0.1-0.1,0.1h-0.1c-0.1,0-0.1,0-0.3-0.1
				c-0.1-0.1-0.3-0.2-0.5-0.3s-0.4-0.2-0.7-0.3s-0.6-0.1-1-0.1s-0.9,0.1-1.2,0.2c-0.4,0.2-0.7,0.4-0.9,0.7s-0.4,0.6-0.6,1
				c-0.1,0.4-0.2,0.8-0.2,1.3s0.1,1,0.2,1.4c0.1,0.4,0.3,0.7,0.6,1s0.6,0.5,0.9,0.6c0.4,0.1,0.7,0.2,1.2,0.2c0.3,0,0.5,0,0.8-0.1
				s0.5-0.2,0.7-0.3v-2.4H46c-0.1,0-0.1,0-0.2-0.1c0-0.1-0.1-0.2-0.1-0.3s0-0.1,0-0.2c0-0.1,0-0.1,0-0.1s0-0.1,0.1-0.1h0.1h2.6h0.1
				c0,0,0.1,0,0.1,0.1l0.1,0.1c0,0.1,0,0.1,0,0.2v3.1c0,0.1,0,0.2-0.1,0.3c0,0.1-0.1,0.1-0.2,0.2c-0.1,0.1-0.3,0.1-0.5,0.2
				c0,0.1-0.2,0.2-0.4,0.2c-0.2,0.1-0.4,0.1-0.6,0.1c-0.2,0-0.4,0-0.6,0c-0.6,0-1.2-0.1-1.7-0.3s-0.9-0.5-1.3-0.8
				c-0.3-0.4-0.6-0.8-0.8-1.3s-0.3-1.1-0.3-1.7c0-0.6,0.1-1.2,0.3-1.8c0.2-0.5,0.5-1,0.8-1.3c0.4-0.4,0.8-0.7,1.3-0.9s1-0.3,1.7-0.3
				c0.3,0,0.6,0,0.9,0.1c0.3,0.1,0.5,0.1,0.7,0.2c0.2,0.1,0.4,0.2,0.5,0.2c0.1,0.1,0.2,0.2,0.3,0.2c0.1,0.1,0.1,0.1,0.1,0.2
				C49,41.8,49,41.9,49,42.1z"/>
			<path fill="#FFFFDE" d="M55.3,48.6c0,0.1,0,0.1,0,0.2c0,0.1,0,0.1,0,0.1s0,0.1-0.1,0.1h-0.1h-3.9c-0.1,0-0.2,0-0.3-0.1
				s-0.1-0.2-0.1-0.3v-7.3c0-0.2,0-0.3,0.1-0.3c0.1-0.1,0.2-0.1,0.3-0.1H55h0.1c0,0,0,0,0.1,0.1v0.1c0,0.1,0,0.1,0,0.2
				c0,0.1,0,0.1,0,0.2c0,0.1,0,0.1,0,0.1s0,0.1-0.1,0.1H55h-3.2v2.6h2.7h0.1c0,0,0.1,0,0.1,0.1v0.1c0,0.1,0,0.1,0,0.2
				c0,0.1,0,0.1,0,0.2c0,0.1,0,0.1,0,0.1s0,0.1-0.1,0.1h-0.1h-2.7V48H55h0.1c0,0,0.1,0,0.1,0.1v0.1C55.3,48.5,55.3,48.6,55.3,48.6z"
				/>
			<path fill="#FFFFDE" d="M62.7,48.6c0,0.1,0,0.2,0,0.2c0,0.1-0.1,0.1-0.1,0.1S62.5,49,62.4,49c-0.1,0-0.1,0-0.2,0h-0.4
				c-0.1,0-0.2,0-0.3,0s-0.2-0.1-0.2-0.1c-0.1-0.1-0.2-0.1-0.2-0.2c-0.1-0.1-0.2-0.2-0.2-0.4l-2.5-4.6c-0.1-0.2-0.3-0.5-0.4-0.8
				c-0.1-0.3-0.3-0.5-0.4-0.8l0,0c0,0.3,0,0.6,0,0.9c0,0.3,0,0.6,0,0.9v4.9v0.1c0,0,0,0-0.1,0.1c0,0-0.1,0-0.2,0c-0.1,0-0.2,0-0.3,0
				s-0.2,0-0.3,0s-0.1,0-0.2,0c0,0-0.1,0-0.1-0.1v-0.1v-7.5c0-0.2,0-0.3,0.1-0.4c0.1-0.1,0.2-0.1,0.3-0.1h0.5c0.1,0,0.2,0,0.3,0
				s0.2,0.1,0.2,0.1c0.1,0,0.1,0.1,0.2,0.2c0.1,0.1,0.1,0.2,0.2,0.3l1.9,3.6c0.1,0.2,0.2,0.4,0.3,0.6c0.1,0.2,0.2,0.4,0.3,0.6
				s0.2,0.4,0.3,0.6c0.1,0.2,0.2,0.4,0.3,0.6l0,0c0-0.3,0-0.7,0-1c0-0.4,0-0.7,0-1V41v-0.1c0,0,0,0,0.1-0.1c0,0,0.1,0,0.2,0
				c0.1,0,0.2,0,0.3,0s0.2,0,0.3,0s0.1,0,0.2,0c0,0,0.1,0,0.1,0.1V41L62.7,48.6L62.7,48.6z"/>
			<path fill="#FFFFDE" d="M68.4,46.8c0,0.4-0.1,0.7-0.2,1s-0.3,0.5-0.6,0.8c-0.2,0.2-0.5,0.4-0.9,0.5c-0.3,0.1-0.7,0.2-1.1,0.2
				c-0.3,0-0.5,0-0.8-0.1c-0.2,0-0.4-0.1-0.6-0.2c-0.2-0.1-0.3-0.1-0.5-0.2c-0.1-0.1-0.2-0.1-0.3-0.2c0-0.1-0.1-0.1-0.1-0.2
				c0-0.1,0-0.2,0-0.3s0-0.2,0-0.2c0-0.1,0-0.1,0-0.1s0-0.1,0.1-0.1h0.1c0.1,0,0.1,0,0.2,0.1c0.1,0.1,0.2,0.1,0.4,0.2
				c0.2,0.1,0.4,0.2,0.6,0.2c0.2,0.1,0.5,0.1,0.8,0.1c0.2,0,0.4,0,0.6-0.1s0.4-0.2,0.5-0.3s0.2-0.3,0.3-0.4c0.1-0.2,0.1-0.4,0.1-0.6
				c0-0.2-0.1-0.4-0.2-0.6c-0.1-0.2-0.2-0.3-0.4-0.4c-0.2-0.1-0.4-0.2-0.6-0.3s-0.4-0.2-0.7-0.3c-0.2-0.1-0.5-0.2-0.7-0.4
				c-0.2-0.1-0.4-0.3-0.6-0.5c-0.2-0.2-0.3-0.4-0.4-0.6c-0.1-0.2-0.2-0.5-0.2-0.9c0-0.3,0.1-0.6,0.2-0.9c0.1-0.3,0.3-0.5,0.5-0.7
				c0.2-0.2,0.5-0.3,0.8-0.4c0.3-0.1,0.6-0.1,1-0.1c0.2,0,0.4,0,0.5,0c0.2,0,0.4,0.1,0.5,0.1c0.2,0.1,0.3,0.1,0.4,0.2
				c0.1,0.1,0.2,0.1,0.2,0.2l0.1,0.1v0.1v0.1c0,0.1,0,0.1,0,0.2c0,0.1,0,0.1,0,0.2c0,0.1,0,0.1,0,0.1s0,0.1-0.1,0.1c0,0,0,0-0.1,0
				c0,0-0.1,0-0.2-0.1s-0.2-0.1-0.4-0.2c-0.1-0.1-0.3-0.1-0.5-0.2c-0.2-0.1-0.4-0.1-0.7-0.1c-0.2,0-0.4,0-0.6,0.1s-0.3,0.1-0.4,0.2
				c-0.1,0.1-0.2,0.2-0.2,0.4c-0.1,0.1-0.1,0.3-0.1,0.4c0,0.2,0.1,0.4,0.2,0.6c0.1,0.2,0.2,0.3,0.4,0.4c0.2,0.1,0.4,0.2,0.6,0.3
				s0.4,0.2,0.7,0.3c0.2,0.1,0.5,0.2,0.7,0.4c0.2,0.1,0.4,0.3,0.6,0.5s0.3,0.4,0.4,0.6C68.4,46.2,68.4,46.5,68.4,46.8z"/>
			<path fill="#FFFFDE" d="M78.7,48.9C78.7,49,78.7,49,78.7,48.9C78.7,49,78.6,49,78.7,48.9C78.6,49,78.5,49,78.4,49s-0.2,0-0.3,0
				c-0.1,0-0.2,0-0.3,0c-0.1,0-0.1,0-0.2,0c0,0-0.1,0-0.1-0.1v-0.1V41v-0.1c0,0,0.1,0,0.1-0.1c0,0,0.1,0,0.2,0s0.2,0,0.2,0
				c0.1,0,0.2,0,0.3,0c0.1,0,0.1,0,0.2,0c0,0,0.1,0,0.1,0.1V41v7.9H78.7z"/>
			<path fill="#FFFFDE" d="M85,46.8c0,0.4-0.1,0.7-0.2,1s-0.3,0.5-0.6,0.8c-0.2,0.2-0.5,0.4-0.9,0.5c-0.3,0.1-0.7,0.2-1.1,0.2
				c-0.3,0-0.5,0-0.8-0.1c-0.2,0-0.4-0.1-0.6-0.2c-0.2-0.1-0.3-0.1-0.5-0.2c-0.1-0.1-0.2-0.1-0.3-0.2c0-0.1-0.1-0.1-0.1-0.2
				c0-0.1,0-0.2,0-0.3s0-0.2,0-0.2c0-0.1,0-0.1,0-0.1s0-0.1,0.1-0.1h0.1c0.1,0,0.1,0,0.2,0.1s0.2,0.1,0.4,0.2s0.4,0.2,0.6,0.2
				c0.2,0.1,0.5,0.1,0.8,0.1c0.2,0,0.4,0,0.6-0.1s0.4-0.2,0.5-0.3s0.2-0.3,0.3-0.4c0.1-0.2,0.1-0.4,0.1-0.6c0-0.2-0.1-0.4-0.2-0.6
				c-0.1-0.2-0.2-0.3-0.4-0.4c-0.2-0.1-0.4-0.2-0.6-0.3s-0.4-0.2-0.7-0.3c-0.2-0.1-0.5-0.2-0.7-0.4c-0.2-0.1-0.4-0.3-0.6-0.5
				S80.1,44,80,43.8c-0.1-0.2-0.2-0.5-0.2-0.9c0-0.3,0.1-0.6,0.2-0.9c0.1-0.3,0.3-0.5,0.5-0.7s0.5-0.3,0.8-0.4
				c0.3-0.1,0.6-0.1,1-0.1c0.2,0,0.4,0,0.5,0c0.2,0,0.4,0.1,0.5,0.1c0.2,0.1,0.3,0.1,0.4,0.2c0.1,0.1,0.2,0.1,0.2,0.2l0.1,0.1v0.1
				v0.1c0,0.1,0,0.1,0,0.2c0,0.1,0,0.1,0,0.2c0,0.1,0,0.1,0,0.1s0,0.1-0.1,0.1c0,0,0,0-0.1,0c0,0-0.1,0-0.2-0.1s-0.2-0.1-0.4-0.2
				c-0.1-0.1-0.3-0.1-0.5-0.2c-0.2-0.1-0.4-0.1-0.7-0.1c-0.2,0-0.4,0-0.6,0.1s-0.3,0.1-0.4,0.2c-0.1,0.1-0.2,0.2-0.2,0.4
				c-0.1,0.1-0.1,0.3-0.1,0.4c0,0.2,0.1,0.4,0.2,0.6c0.1,0.2,0.2,0.3,0.4,0.4c0.2,0.1,0.4,0.2,0.6,0.3s0.4,0.2,0.7,0.3
				c0.2,0.1,0.5,0.2,0.7,0.4c0.2,0.1,0.4,0.3,0.6,0.5s0.3,0.4,0.4,0.6C85,46.2,85,46.5,85,46.8z"/>
			<path fill="#FFFFDE" d="M93.1,44.9c0,0.7-0.1,1.3-0.2,1.8c-0.2,0.5-0.4,1-0.7,1.3c-0.3,0.4-0.7,0.7-1.2,0.9s-1,0.3-1.6,0.3
				s-1.1-0.1-1.6-0.3c-0.4-0.2-0.8-0.4-1.1-0.8c-0.3-0.3-0.5-0.8-0.7-1.3c-0.1-0.5-0.2-1.1-0.2-1.8c0-0.6,0.1-1.2,0.2-1.7
				c0.2-0.5,0.4-1,0.7-1.3c0.3-0.4,0.7-0.6,1.2-0.8s1-0.3,1.6-0.3s1.1,0.1,1.6,0.3c0.4,0.2,0.8,0.4,1.1,0.8c0.3,0.3,0.5,0.8,0.7,1.3
				C93.1,43.7,93.1,44.3,93.1,44.9z M92,45c0-0.5,0-0.9-0.1-1.3c-0.1-0.4-0.2-0.7-0.4-1c-0.2-0.3-0.4-0.5-0.8-0.7
				c-0.3-0.2-0.7-0.2-1.2-0.2s-0.9,0.1-1.2,0.3c-0.3,0.2-0.6,0.4-0.8,0.7c-0.2,0.3-0.3,0.6-0.4,1C87,44.1,87,44.6,87,45
				c0,0.5,0,0.9,0.1,1.3c0.1,0.4,0.2,0.7,0.4,1c0.2,0.3,0.4,0.5,0.8,0.7c0.3,0.2,0.7,0.2,1.2,0.2s0.9-0.1,1.2-0.3
				c0.3-0.2,0.6-0.4,0.8-0.7c0.2-0.3,0.3-0.6,0.4-1C91.9,45.9,92,45.4,92,45z"/>
			<path fill="#FFFFDE" d="M102,44.7c0,0.4,0,0.7-0.1,1.1c0,0.4-0.1,0.7-0.2,1s-0.2,0.6-0.4,0.9c-0.2,0.3-0.4,0.5-0.6,0.8
				c-0.3,0.2-0.6,0.4-0.9,0.5c-0.4,0.1-0.8,0.2-1.2,0.2c-0.2,0-0.4,0-0.5,0c-0.2,0-0.3-0.1-0.5-0.1c-0.1,0-0.3-0.1-0.3-0.1
				c-0.1,0-0.2-0.1-0.2-0.1S97,48.8,97,48.7c0-0.1,0-0.2,0-0.3s0-0.2,0-0.2c0-0.1,0-0.1,0-0.1s0,0,0.1-0.1h0.1c0,0,0.1,0,0.2,0
				s0.2,0.1,0.3,0.1c0.1,0,0.3,0.1,0.4,0.1c0.2,0,0.4,0,0.6,0c0.4,0,0.8-0.1,1-0.2c0.3-0.2,0.5-0.4,0.7-0.6c0.2-0.3,0.3-0.6,0.4-0.9
				c0.1-0.3,0.1-0.7,0.2-1.1c-0.2,0.1-0.5,0.2-0.8,0.3s-0.7,0.2-1.1,0.2c-0.5,0-0.8-0.1-1.1-0.2c-0.3-0.1-0.6-0.3-0.7-0.5
				c-0.2-0.2-0.3-0.5-0.4-0.8s-0.1-0.6-0.1-1s0.1-0.7,0.2-1s0.3-0.6,0.5-0.9c0.2-0.2,0.5-0.4,0.8-0.6c0.3-0.1,0.8-0.2,1.2-0.2
				c0.3,0,0.6,0,0.9,0.1s0.5,0.2,0.7,0.4s0.4,0.4,0.5,0.6c0.1,0.2,0.2,0.5,0.3,0.8c0.1,0.3,0.1,0.6,0.2,0.9
				C102,44,102,44.3,102,44.7z M100.9,44.6c0-0.5,0-1-0.1-1.4s-0.2-0.7-0.3-0.9c-0.1-0.2-0.3-0.4-0.5-0.5s-0.4-0.2-0.7-0.2
				c-0.3,0-0.5,0-0.7,0.1s-0.4,0.2-0.5,0.4s-0.2,0.4-0.3,0.6c-0.1,0.2-0.1,0.4-0.1,0.6c0,0.2,0,0.5,0.1,0.7s0.1,0.4,0.3,0.5
				c0.1,0.1,0.3,0.3,0.5,0.3c0.2,0.1,0.4,0.1,0.7,0.1c0.3,0,0.6,0,0.9-0.1C100.5,44.9,100.7,44.7,100.9,44.6z"/>
			<path fill="#FFFFDE" d="M108.5,45c0,0.6,0,1.2-0.1,1.7s-0.3,1-0.5,1.3c-0.2,0.4-0.5,0.7-0.9,0.9s-0.8,0.3-1.4,0.3
				c-0.5,0-0.9-0.1-1.3-0.3s-0.6-0.5-0.8-0.8c-0.2-0.4-0.4-0.8-0.5-1.3s-0.1-1.1-0.1-1.8c0-0.6,0.1-1.2,0.2-1.7s0.3-1,0.5-1.3
				c0.2-0.4,0.5-0.7,0.9-0.9s0.8-0.3,1.4-0.3c0.5,0,0.9,0.1,1.3,0.3c0.3,0.2,0.6,0.5,0.8,0.8c0.2,0.4,0.4,0.8,0.5,1.3
				C108.5,43.7,108.5,44.3,108.5,45z M107.4,45.1c0-0.4,0-0.8,0-1.1s-0.1-0.6-0.1-0.9c-0.1-0.2-0.1-0.5-0.2-0.6
				c-0.1-0.2-0.2-0.3-0.3-0.4c-0.1-0.1-0.3-0.2-0.4-0.3c-0.2-0.1-0.3-0.1-0.5-0.1c-0.4,0-0.6,0.1-0.9,0.3c-0.2,0.2-0.4,0.4-0.5,0.7
				s-0.2,0.6-0.3,1c0,0.4-0.1,0.8-0.1,1.3c0,0.6,0,1.1,0.1,1.5s0.2,0.8,0.3,1c0.1,0.3,0.3,0.5,0.5,0.6s0.5,0.2,0.8,0.2
				c0.2,0,0.4,0,0.6-0.1s0.3-0.2,0.5-0.3c0.1-0.1,0.2-0.3,0.3-0.5s0.2-0.4,0.2-0.7c0.1-0.2,0.1-0.5,0.1-0.8
				C107.4,45.7,107.4,45.4,107.4,45.1z"/>
			<path fill="#FFFFDE" d="M114.8,45c0,0.6,0,1.2-0.1,1.7s-0.3,1-0.5,1.3c-0.2,0.4-0.5,0.7-0.9,0.9s-0.8,0.3-1.4,0.3
				c-0.5,0-0.9-0.1-1.3-0.3s-0.6-0.5-0.8-0.8c-0.2-0.4-0.4-0.8-0.5-1.3s-0.1-1.1-0.1-1.8c0-0.6,0.1-1.2,0.2-1.7s0.3-1,0.5-1.3
				c0.2-0.4,0.5-0.7,0.9-0.9s0.8-0.3,1.4-0.3c0.5,0,0.9,0.1,1.3,0.3c0.3,0.2,0.6,0.5,0.8,0.8c0.2,0.4,0.4,0.8,0.5,1.3
				C114.7,43.7,114.8,44.3,114.8,45z M113.7,45.1c0-0.4,0-0.8,0-1.1s-0.1-0.6-0.1-0.9c-0.1-0.2-0.1-0.5-0.2-0.6
				c-0.1-0.2-0.2-0.3-0.3-0.4c-0.1-0.1-0.3-0.2-0.4-0.3c-0.2-0.1-0.3-0.1-0.5-0.1c-0.4,0-0.6,0.1-0.9,0.3c-0.2,0.2-0.4,0.4-0.5,0.7
				s-0.2,0.6-0.3,1c0,0.4-0.1,0.8-0.1,1.3c0,0.6,0,1.1,0.1,1.5s0.2,0.8,0.3,1c0.1,0.3,0.3,0.5,0.5,0.6s0.5,0.2,0.8,0.2
				c0.2,0,0.4,0,0.6-0.1s0.3-0.2,0.5-0.3c0.1-0.1,0.2-0.3,0.3-0.5s0.2-0.4,0.2-0.7c0.1-0.2,0.1-0.5,0.1-0.8
				C113.6,45.7,113.7,45.4,113.7,45.1z"/>
			<path fill="#FFFFDE" d="M120.8,48.7c0,0.1,0,0.1,0,0.2c0,0.1,0,0.1-0.1,0.1c0,0,0,0.1-0.1,0.1h-0.1h-4.2h-0.1c0,0,0,0-0.1-0.1
				c0,0,0-0.1-0.1-0.1c0-0.1,0-0.1,0-0.2c0-0.1,0-0.1,0-0.2c0-0.1,0-0.1,0-0.1s0-0.1,0.1-0.1h0.1h1.7V42l-1.6,0.9
				c-0.1,0-0.1,0.1-0.2,0.1H116c0,0,0-0.1-0.1-0.1c0-0.1,0-0.1,0-0.2c0-0.1,0-0.1,0-0.2c0-0.1,0-0.1,0-0.1s0-0.1,0.1-0.1l0.1-0.1
				L118,41c0,0,0,0,0.1,0h0.1h0.1c0.1,0,0.1,0,0.2,0s0.2,0,0.3,0c0.1,0,0.1,0,0.2,0c0,0,0.1,0,0.1,0.1c0,0,0,0,0,0.1v7.1h1.5h0.1
				c0,0,0.1,0,0.1,0.1v0.1C120.8,48.5,120.8,48.6,120.8,48.7z"/>
		</g>
		<g>
			<g>
				<path fill="#FFFFDE" d="M73.9,45.5c0,0.1,0,0.3-0.1,0.4c-0.1,0.1-0.1,0.2-0.2,0.3s-0.2,0.2-0.3,0.2c-0.1,0.1-0.3,0.1-0.4,0.1
					s-0.3,0-0.4-0.1s-0.2-0.1-0.3-0.2C72.1,46.1,72,46,72,45.9c-0.1-0.1-0.1-0.3-0.1-0.4c0-0.2,0-0.3,0.1-0.4
					c0.1-0.1,0.1-0.2,0.2-0.3s0.2-0.2,0.3-0.2c0.1-0.1,0.3-0.1,0.4-0.1s0.3,0,0.4,0.1s0.2,0.1,0.3,0.2c0.1,0.1,0.2,0.2,0.2,0.3
					C73.8,45.2,73.9,45.4,73.9,45.5z"/>
			</g>
		</g>
	</g>
	<polygon fill="#FFFFDE" points="60.1,31.3 70.2,3 70.2,0 56.4,0 56.4,4.5 65,4.5 55,32.6 54.9,32.8 54.9,35.8 72,35.8 72.2,31.3 	
		"/>
	<path fill="#FFFFDE" d="M75.5,31.3L85.7,3.2V3V0h-13l-0.1,4.3c1,0.4,3.2,0.9,6.1-0.4c1.9-0.9,2.4-0.6,2.4-0.5L70.5,32.8v2.9h15.7
		v-4.4L75.5,31.3z"/>
</g>
</svg>
