<?xml version="1.0" encoding="utf-8"?>
<!-- Generator: Adobe Illustrator 18.0.0, SVG Export Plug-In . SVG Version: 6.00 Build 0)  -->
<!DOCTYPE svg PUBLIC "-//W3C//DTD SVG 1.1//EN" "http://www.w3.org/Graphics/SVG/1.1/DTD/svg11.dtd">
<svg version="1.1" id="Layer_1" xmlns="http://www.w3.org/2000/svg" xmlns:xlink="http://www.w3.org/1999/xlink" x="0px" y="0px"
	 width="111.2px" height="71.2px" viewBox="0 0 111.2 71.2" enable-background="new 0 0 111.2 71.2" xml:space="preserve">
<g>
	<path fill="#FFFFDE" d="M30,35.9c0.2,2.2,0.7,4.5,1.8,6.5c0.7-1.4,1.2-2.9,1.5-4.5c0-0.3,0.2-0.6-0.1-0.8c-0.3-0.1-0.6-0.2-0.9-0.3
		C31.5,36.5,30.8,36.2,30,35.9C30,36.1,31.5,36.5,30,35.9z"/>
	<path fill="#FFFFDE" d="M32.6,25.1c-0.4,0.7-0.8,1.3-1.1,2c0.7,0,1.4,0,2.1,0C33.3,26.4,32.9,25.8,32.6,25.1
		C32.2,25.7,32.9,25.7,32.6,25.1z"/>
	<path fill="#FFFFDE" d="M65.8,52.1c0-4,0-8,0-12.1c0-3.8,0.3-7.7-1-11.4c-1.8-5.2-6.3-9.7-11.6-11.3c-5.5-1.7-11.8-0.5-16.3,3
		c-1.4,1.1-2.7,2.4-3.7,3.9c-0.4,0.6,0.4,1.5,0.7,2.1c0.2,0.5,0.4,1,0.6,1.5c-1,0-2.1,0-3.1,0c-0.5,0-0.8,1.9-0.9,2.3
		c-0.3,1.4-0.5,2.7-0.5,4.1c0,0.2,0,0.5,0,0.7c0,0.5,0.2,0.4,0.7,0.6c0.6,0.2,1.1,0.4,1.7,0.7c0.2,0.1,1.7,0.5,1.6,0.7
		c-0.1,1.1-0.3,2.1-0.6,3.2c-0.2,0.7-0.4,1.3-0.7,1.9c-0.1,0.3-0.3,0.6-0.4,0.9c-0.1,0.3,0.1,0.5,0.3,0.7c2.7,4.3,7.2,7.5,12.2,8.3
		c5.1,0.8,9.7-0.5,13.9-3.2c0,1.1,0,2.2,0,3.4C61,52.1,63.4,52.1,65.8,52.1z M57.6,38.6c-2.6,5.2-8.7,7.9-14.1,5.4
		c-5.4-2.5-7.7-9-5.2-14.3c2.3-4.8,8.6-7.5,13.6-5.3c4.9,2.2,8,8,6.1,13.3C57.9,38.1,57.8,38.4,57.6,38.6
		C57,39.9,58.2,37.4,57.6,38.6z"/>
	<path fill="#FFFFDE" d="M65.3,32.4c-0.3-2.5-1.1-4.8-2.4-6.9c0,6.3-1.1,12.8,2.6,18.3C65.5,40,65.8,36.1,65.3,32.4
		C65.1,30.3,65.5,33.8,65.3,32.4z"/>
	<path fill="#FFFFDE" d="M85.5,50.2c1.9,1,4.1,1.5,6.3,1.7c0.3,0,2.9,0.1,2.9,0c0-0.3,0-0.5,0-0.8c0-1.9,0-3.9,0-5.8
		c-1.6,0.2-3-0.2-4.5-0.2c-1.3,0-2.5,0-3.8,0c-2.4,0-5,0.2-7.4-0.3C80.7,47.1,83,48.9,85.5,50.2C87.3,51.1,83.8,49.3,85.5,50.2z"/>
	<path fill="#FFFFDE" d="M85.2,50.7c-2.6-1.4-4.9-3.2-6.7-5.6c-0.5-0.7-0.9-0.7-1.7-1c-0.6-0.2-1.2-0.5-1.7-0.8
		c-1.1-0.6-2.1-1.5-2.9-2.5c-1.6-2.1-2.2-4.6-2.4-7.2c-0.2-3.1-0.1-6.3,0-9.4C70,18,69.9,11.8,69.9,5.5c0-0.3,0-5.5,0-5.5
		c-1.2,0-2.3,0-3.5,0c-0.7,0-1.4,0-2.2,0c-0.3,0-0.8-0.1-1.1,0c-0.3,0.2-0.2,1.2-0.2,1.5c0,1,0,2,0,3.1c0,3.1,0,6.2,0,9.3
		c0,2.8,0,5.6,0,8.4c0,0.6,0,1.3,0,1.9c0,0.5,0.7,1.3,1,1.7c0.7,1.3,1.3,2.7,1.6,4.2c0.6,2.3,0.5,4.7,0.5,7.1c0,1,0,2,0,3
		c0,0.7,0,1.4,0,2.1c0,0.8-0.2,2,0.2,2.6c3.2,4.2,7.7,6.4,12.9,6.8c3,0.3,6,0.1,9,0.1C87.2,51.6,86.2,51.2,85.2,50.7
		C83.4,49.8,86.2,51.2,85.2,50.7z"/>
	<path fill="#FFFFDE" d="M11.2,63.6c0.1,2.5-1.8,4.8-4.2,5.2C4.5,69.3,2,68,1,65.6c-1-2.4,0-5.2,2.2-6.6c2.1-1.4,5-0.8,6.6,1.1
		c0-1.4,0-2.9,0-4.3c0-0.6-0.2-0.8,0.4-0.8c0.6,0,0.9-0.2,0.9,0.4C11.2,58.1,11.2,60.8,11.2,63.6z M5.8,67.6c4.9,0.2,5.4-7.6,0.5-8
		c-2.1-0.2-4.1,1.5-4.2,3.6C1.9,65.4,3.5,67.5,5.8,67.6C6.9,67.7,4.7,67.6,5.8,67.6z"/>
	<path fill="#FFFFDE" d="M23,65.3c-1.6,4.8-8.6,4.6-10.1-0.2c-1.5-4.7,4.1-9,8.2-5.9c0.9,0.7,1.7,1.7,2,2.8c0,0.1,0.3,2,0.2,2
		c-0.9,0-1.7,0-2.6,0c-2.2,0-4.4,0-6.6,0c0.3,2.5,2.7,4,5.1,3.4c1-0.3,1.8-1,2.3-1.9C21.6,65.1,22.4,65.3,23,65.3z M21.9,62.8
		c-0.9-4.2-7-4.2-7.8,0C16.6,62.8,19.2,62.8,21.9,62.8z"/>
	<path fill="#FFFFDE" d="M38.9,68.7c-0.2,0-1.3,0-1.3,0c0-0.5,0-1,0-1.6c-2.4,2.8-6.8,2.2-8.6-1c-1.7-3.2,0.4-7.6,4.2-7.9
		c3.3-0.2,5.7,2.3,5.7,5.5C38.9,65.4,38.9,67,38.9,68.7z M29.7,63.5c0,2.2,1.8,4.2,4,4.1c2.1-0.1,3.8-2,3.7-4.1c0-2.2-1.9-4-4.1-3.9
		C31.3,59.7,29.8,61.4,29.7,63.5C29.7,64.5,29.7,62.4,29.7,63.5z"/>
	<path fill="#FFFFDE" d="M41.6,68.7c-0.2,0-1.4,0-1.4,0c0-0.4,0-0.7,0-1.1c0-1.6,0-3.2,0-4.9c0-1.3,0-2.6,0-4c0-0.5,0.6-0.2,1-0.2
		c0.5,0,0.3,1,0.3,1.5c0.5-1,1.7-1.7,2.9-1.6c0,0.4,0,0.8,0,1.2c0,0.3-0.4,0.1-0.6,0.2c-0.5,0.1-0.9,0.4-1.2,0.7
		c-0.8,0.8-0.9,1.7-0.9,2.8C41.6,65,41.6,66.8,41.6,68.7z"/>
	<path fill="#FFFFDE" d="M55.1,71.2c-0.4,0-0.9,0-1.3,0c-0.1,0,0-0.9,0-1c0-1,0-2.1,0-3.1c-2.8,3.2-8.1,1.8-9-2.3
		c-0.9-4.1,3.3-8,7.3-6.1c1.8,0.8,3,2.6,3.1,4.6c0,0.7,0,1.3,0,2C55.1,67.2,55.1,69.2,55.1,71.2z M46,63.6c0,2,1.6,3.8,3.7,3.9
		c2.2,0.1,4.1-1.7,4.1-3.9c0-2.1-1.6-4.1-3.7-4.1C47.7,59.5,45.9,61.4,46,63.6C46,64.7,45.9,62.6,46,63.6z"/>
	<path fill="#FFFFDE" d="M65.6,64.3c0,2.7-2.1,4.8-4.8,4.6c-2.5-0.1-4.2-2.2-4.2-4.7c0-1.3,0-2.6,0-3.8c0-0.6,0-1.2,0-1.7
		c0-0.4,0.8-0.2,1.1-0.2c0.4,0,0.3,0.3,0.3,0.6c0,0.8,0,1.5,0,2.3c0,1.2-0.2,2.5,0.1,3.7c0.6,2.9,4.5,3.3,5.8,0.8
		c0.6-1.1,0.4-2.7,0.4-4c0-1.1,0-2.2,0-3.3c0-0.4,1.4-0.3,1.4-0.1C65.6,60.5,65.6,62.4,65.6,64.3z"/>
	<path fill="#FFFFDE" d="M68.3,57.2c-0.2,0-1.2,0.1-1.3,0c-0.1-0.1-0.1-1.4,0-1.5c0.1-0.1,1.3-0.1,1.3,0
		C68.4,55.9,68.3,57,68.3,57.2z M68.3,68.7c-0.2,0-1.2,0.1-1.3,0c-0.1-0.1,0-0.5,0-0.6c0-1.2,0-2.3,0-3.5c0-1.4,0-2.8,0-4.2
		c0-0.3-0.2-1.8,0-2c0.1-0.1,1.3-0.1,1.3,0c0.1,0.1,0,0.5,0,0.6c0,1.2,0,2.3,0,3.5C68.3,64.5,68.3,66.6,68.3,68.7z"/>
	<path fill="#FFFFDE" d="M73.3,68.9c-2.1,0-3.7-0.9-3.7-3.2c0-0.9,0-1.7,0-2.6c0-1.6,0-3.2,0-4.8c0-0.6,0-1.2,0-1.8
		c0-0.1-0.1-0.7,0-0.8c0.1-0.1,1.4,0.1,1.4,0c0,0.7,0,1.3,0,2c0,0.6-0.2,0.7,0.4,0.7c0.3,0,1.7-0.2,1.9,0c0.1,0.1,0,1.3-0.1,1.3
		c-0.7,0-1.4,0-2.1,0c-0.3,0-0.2,0.4-0.2,0.6c0,0.8,0,1.5,0,2.3c0,1.1-0.1,2.3,0,3.4c0.1,0.9,0.7,1.5,1.6,1.7
		c0.4,0.1,0.8-0.1,0.8,0.4C73.3,68.3,73.3,68.6,73.3,68.9z"/>
	<path fill="#FFFFDE" d="M84.3,65.3c-1.6,4.8-8.6,4.6-10.1-0.2c-1.5-4.7,4.1-9,8.2-5.9c0.9,0.7,1.7,1.7,2,2.8c0,0.1,0.3,2,0.2,2
		c-0.9,0-1.7,0-2.6,0c-2.2,0-4.4,0-6.6,0c0.3,2.5,2.7,4,5.1,3.4c1-0.3,1.8-1,2.3-1.9C82.9,65.1,83.8,65.3,84.3,65.3z M83.2,62.8
		c-0.9-4.2-7-4.2-7.8,0C77.9,62.8,80.6,62.8,83.2,62.8z"/>
	<path fill="#FFFFDE" d="M89.6,68.9c-2.1,0-3.7-0.9-3.7-3.2c0-0.9,0-1.7,0-2.6c0-1.6,0-3.2,0-4.8c0-0.6,0-1.2,0-1.8
		c0-0.1-0.1-0.7,0-0.8c0.1-0.1,1.4,0.1,1.4,0c0,0.7,0,1.3,0,2c0,0.6-0.2,0.7,0.4,0.7c0.3,0,1.7-0.2,1.9,0c0.1,0.1,0,1.3-0.1,1.3
		c-0.7,0-1.4,0-2.1,0c-0.3,0-0.2,0.4-0.2,0.6c0,0.8,0,1.5,0,2.3c0,1.1-0.1,2.3,0,3.4c0.1,0.9,0.7,1.5,1.6,1.7
		c0.4,0.1,0.8-0.1,0.8,0.4C89.6,68.3,89.6,68.6,89.6,68.9z"/>
	<path fill="#FFFFDE" d="M99.4,67.4c-2,2-5.4,2-7.4-0.1c-2-2.1-1.9-5.5,0.1-7.5c2-2.1,5.4-2,7.4,0.1C101.5,62,101.5,65.3,99.4,67.4
		C98.3,68.4,100.5,66.3,99.4,67.4z M95.6,67.6c2.1,0.1,3.9-1.7,4-3.8c0.1-2.2-1.6-4.2-3.8-4.2C90.9,59.5,90.6,67.4,95.6,67.6
		C96.7,67.6,94.6,67.5,95.6,67.6z"/>
	<path fill="#FFFFDE" d="M110.4,65.8c0-1.7-1.3-2.3-2.8-2.8c-1.1-0.3-4-0.5-4-2.1c0-1.7,2.7-1.9,3.9-1.4c0.3,0.1,0.6,0.4,0.8,0.6
		c0.1,0.1,0.4,0.8,0.4,0.8c0.4-0.1,0.9-0.1,1.3-0.2c-0.5-2.7-4.4-3.3-6.5-1.9c-1.1,0.7-1.5,2.2-0.9,3.4c0.6,1.1,2.1,1.5,3.3,1.7
		c0.9,0.2,2.7,0.4,3.1,1.4c0.6,1.4-1,2.4-2.2,2.4c-1.2,0.1-2.5-0.2-3-1.4c-0.3-0.5,0-0.8-0.7-0.7c-0.3,0-0.6,0.1-0.9,0.1
		c0.4,2.2,2.2,3,4.3,3C108.2,68.9,110.4,67.9,110.4,65.8z"/>
	<path fill="#FFFFDE" d="M93.2,52.2c-5.8,0-11.2-2.8-14.6-7.4c-3.5-4.7-4.3-11.2-2.2-16.7c2.1-5.3,6.7-9.7,12.3-11
		c5.6-1.3,11.5-0.2,15.9,3.6c4.1,3.5,6.3,8.4,6.5,13.7c0.1,2.9,0,5.8,0,8.7c0,2,0,4.1,0,6.1c0,0.8,0,1.7,0,2.5
		c-0.1,0.4,0,0.3-0.5,0.3c-2.2,0-4.5,0-6.7,0c0-1.1,0-2.2,0-3.4C100.6,50.9,97.2,52.2,93.2,52.2z M93.6,23.8c-5.7,0-10.4,4-11,9.7
		c-0.7,5.8,4.2,11.2,9.9,11.5c5.4,0.3,10.9-4.1,11.3-9.6c0.4-5.4-3.6-10.9-9.2-11.5C94.3,23.8,94,23.8,93.6,23.8z"/>
	<path fill="#FFFFDE" d="M16.5,52.1c-3.9,0-7.5-1.2-10.7-3.4C3.1,46.7,1.3,44.1,0,41c2.8,0,5.6,0,8.3,0c0.2,0,0.3,0.2,0.4,0.3
		c0.5,0.7,1.1,1.2,1.8,1.7c1.2,0.9,2.7,1.4,4.2,1.7c1.8,0.3,3.5,0.1,5.1-0.5c1.6-0.6,3.4-1.5,4.4-3c-5.3-2-10.6-4-15.9-6
		c-2.4-0.9-4.7-1.8-7.1-2.7c-0.3-0.1-0.7-0.3-1-0.4c-0.3-0.1,0.1-1,0.1-1.3c0.3-1.3,0.7-2.6,1.3-3.8c2.1-4.7,6-8,10.9-9.7
		c5.3-1.9,11.6-0.5,16.1,2.8c2.5,1.9,4.3,4.3,5.5,7.2c-1.4,0-2.8,0-4.3,0c-1,0-2,0-2.9,0c-0.3,0-1,0.1-1.3,0c-0.4-0.2-0.8-1-1.1-1.3
		c-0.6-0.5-1.3-0.9-2-1.3c-1.3-0.6-2.8-0.9-4.3-1.1c-3.3-0.3-6.5,1.6-8.5,4c6.9,3,14,5.4,21,8.1c0.8,0.3,1.7,0.6,2.5,1
		c0.2,0.1,0.5,0.1,0.5,0.3c-0.1,0.6-0.2,1.2-0.3,1.8c-0.6,2.4-1.7,4.7-3.3,6.6C26.7,49.5,21.8,52.1,16.5,52.1z"/>
	<path fill="#FFFFDE" d="M12.1,12.3c-0.8,0-0.7-0.1-0.7-0.9C10.2,12.9,8,12.6,7.1,11C6.2,9.4,7,7,8.9,6.7c1.8-0.3,3.2,1.2,3.2,2.9
		C12.1,10.5,12.1,11.4,12.1,12.3z M7.4,9.5c0,2.8,4,2.8,4,0C11.4,6.8,7.5,6.8,7.4,9.5C7.4,10.1,7.4,8.9,7.4,9.5z"/>
	<path fill="#FFFFDE" d="M26.8,11.6c-2.5,2.7-6.2-1.6-3.7-4.1C25.6,4.8,29.2,9.1,26.8,11.6C26.2,12.2,27.3,11,26.8,11.6z M24.8,11.7
		c2.6,0.1,2.7-4.3,0.1-4.3C22.4,7.4,22.3,11.6,24.8,11.7C25.4,11.7,24.3,11.7,24.8,11.7z"/>
	<path fill="#FFFFDE" d="M33.7,10.8c-1.3,2.6-5.3,1.7-5.4-1.3c0-3.1,4.3-4,5.4-1.1c-0.2,0-0.6,0.1-0.8,0c-0.3-0.5-0.7-0.9-1.3-1
		C30.5,7.2,29.2,8,29,9.2c-0.2,1.2,0.8,2.5,2.1,2.4c0.7,0,1.3-0.3,1.7-0.8c0.3-0.3,0.5-0.2,1-0.2C33.7,10.7,33.7,10.8,33.7,10.8z"/>
	<path fill="#FFFFDE" d="M34.8,6.2c-0.2,0-0.7,0.1-0.7-0.1c0-0.2-0.1-1,0-1.1c0.1-0.1,0.7-0.1,0.7,0.1C34.8,5.4,34.8,5.8,34.8,6.2z
		 M34.8,12.3c-0.4,0-0.7,0.2-0.7-0.2c0-0.6,0-1.2,0-1.8c0-0.8,0-1.5,0-2.3c0-0.2-0.1-1,0-1.1c0.2-0.2,0.7-0.1,0.7,0.2
		c0,0.6,0,1.2,0,1.8C34.8,10,34.8,11.1,34.8,12.3z"/>
	<path fill="#FFFFDE" d="M41,12.3c-0.8,0-0.7-0.1-0.7-0.9c-1.2,1.4-3.4,1.2-4.3-0.4c-0.9-1.6-0.1-4,1.8-4.3C39.6,6.4,41,7.9,41,9.6
		C41,10.5,41,11.4,41,12.3z M36.3,9.5c0,2.8,4,2.8,4,0C40.2,6.8,36.3,6.8,36.3,9.5C36.3,10.1,36.3,8.9,36.3,9.5z"/>
	<path fill="#FFFFDE" d="M47.1,10.8c-1.3,2.6-5.3,1.7-5.4-1.3c0-3.1,4.3-4,5.4-1.1c-0.2,0-0.6,0.1-0.8,0c-0.3-0.5-0.7-0.9-1.3-1
		c-1.2-0.3-2.5,0.6-2.6,1.8c-0.2,1.2,0.8,2.5,2.1,2.4c0.7,0,1.3-0.3,1.7-0.8c0.3-0.3,0.5-0.2,1-0.2C47.1,10.7,47.1,10.8,47.1,10.8z"
		/>
	<path fill="#FFFFDE" d="M52.9,12.3c-0.8,0-0.7-0.1-0.7-0.9c-1.2,1.4-3.4,1.2-4.3-0.4c-0.9-1.6-0.1-4,1.8-4.3
		c1.8-0.3,3.2,1.2,3.2,2.9C52.9,10.5,52.9,11.4,52.9,12.3z M48.2,9.5c0,2.8,4,2.8,4,0C52.1,6.8,48.2,6.8,48.2,9.5
		C48.2,10.1,48.2,8.9,48.2,9.5z"/>
	<path fill="#FFFFDE" d="M58.2,11.6c-2.5,2.7-6.2-1.6-3.7-4.1C57,4.8,60.6,9.1,58.2,11.6C57.6,12.2,58.7,11,58.2,11.6z M56.2,11.7
		c2.6,0.1,2.7-4.3,0.1-4.3C53.8,7.4,53.7,11.6,56.2,11.7C56.8,11.7,55.7,11.7,56.2,11.7z"/>
	<path fill="#FFFFDE" d="M44.7,12.3c0.1,0,0.3,0,0.4,0c0,0.2-0.1,0.4-0.1,0.6c0.5-0.1,0.9,0.2,0.7,0.7c-0.2,0.7-1.1,0.7-1.6,0.5
		c-0.3-0.1-0.3-0.1-0.2-0.3c0-0.1,0.7,0,0.9,0c0.7-0.1,0.2-0.6-0.3-0.5C44.7,13,44.7,12.7,44.7,12.3z"/>
	<path fill="#FFFFDE" d="M51.6,5.3c0.1,0.1,0.2,0.3,0.3,0.4c0.1,0.2-0.7,0.5-0.8,0.5c-1,0.2-1.5-0.8-2.4,0c-0.1-0.2-0.2-0.3-0.3-0.5
		c-0.1-0.2,0.7-0.5,0.8-0.5C50.2,5,50.7,5.8,51.6,5.3z"/>
	<path fill="#FFFFDE" d="M17,10.8c0-2-3.4-1.1-3.4-2.6c0-0.9,1.4-1,2-0.7c0.2,0.1,0.6,0.8,0.6,0.8c0.2,0,0.4-0.1,0.6-0.1
		c-0.3-1.4-2.3-1.8-3.4-0.9c-0.4,0.4-0.6,1-0.4,1.6c0.3,0.7,1.1,0.9,1.7,1.1c0.4,0.1,1.1,0.2,1.4,0.5c0.6,0.6-0.2,1.4-0.9,1.5
		c-0.6,0.1-1.3-0.1-1.6-0.6c-0.3-0.6-0.2-0.5-0.8-0.4C13.2,12.9,17,13.1,17,10.8z"/>
	<path fill="#FFFFDE" d="M21.8,10.7c0-2-3.4-1.1-3.4-2.6c0-0.9,1.4-1,2-0.7c0.2,0.1,0.6,0.8,0.6,0.8c0.2,0,0.4-0.1,0.6-0.1
		c-0.3-1.4-2.3-1.8-3.4-0.9c-0.4,0.4-0.6,1-0.4,1.6c0.3,0.7,1.1,0.9,1.7,1.1c0.4,0.1,1.1,0.2,1.4,0.5c0.6,0.6-0.2,1.4-0.9,1.5
		c-0.6,0.1-1.3-0.1-1.6-0.6c-0.3-0.6-0.2-0.5-0.8-0.4C17.9,12.9,21.8,13,21.8,10.7z"/>
</g>
</svg>
