<?xml version="1.0" encoding="utf-8"?>
<!-- Generator: Adobe Illustrator 18.0.0, SVG Export Plug-In . SVG Version: 6.00 Build 0)  -->
<!DOCTYPE svg PUBLIC "-//W3C//DTD SVG 1.1//EN" "http://www.w3.org/Graphics/SVG/1.1/DTD/svg11.dtd">
<svg version="1.1" id="Layer_1" xmlns="http://www.w3.org/2000/svg" xmlns:xlink="http://www.w3.org/1999/xlink" x="0px" y="0px"
	 width="594.9px" height="161.9px" viewBox="0 0 594.9 161.9" enable-background="new 0 0 594.9 161.9" xml:space="preserve">
<g>
	<g>
		<g>
			<path fill="#FFFFDE" d="M358.5,123c0.7-2,0.3-2.7-2-2.7h-1.7c-0.3,0-0.3,0-0.3-0.3l0.3-1c0-0.3,0.3-0.3,0.7-0.3
				c0.3,0,2.4,0,6.1,0s5.8,0,6.4,0c0.3,0,0.3,0,0.3,0.3l-0.3,1c0,0.3-0.3,0.3-0.7,0.3h-2c-1.7,0-2.4,0.3-3,3l-6.8,22.4
				c-0.3,1,0,1.4,1,1.4h1.7c2.7,0,8.5,0,9.1-0.3c0.7,0,1.4-0.3,1.7-0.7c1-0.7,3.4-4.7,3.4-5.1c0,0,0.3-0.3,0.3,0l0.3,0.3
				c0.3,0,0.3,0.3,0.3,0.3c-0.3,0.3-1.7,5.8-1.7,7.1c0,0.3-0.3,0.7-0.7,0.7s-0.7,0-1-0.3c-0.3,0-1-0.3-1.7-0.3c-1,0-6.4,0-10.5,0
				c-5.1,0-10.5,0-10.8,0s-0.3,0-0.3-0.3l0.3-0.7c0-0.3,0-0.3,0.3-0.3h1c2,0,2.7-0.3,3.7-3.4L358.5,123z"/>
		</g>
		<g>
			<path fill="#FFFFDE" d="M377.8,147.8c0-1,0.7-3,2.7-8.1l1.4-3.4c0.3-1.4,0.7-2,0.7-2.7c0-0.3-0.3-0.7-0.7-0.7
				c-0.7,0-2.7,2.4-3.4,3c-0.3,0.3-0.3,0.3-0.3,0l-0.3-0.3c-0.3,0-0.3-0.3,0-0.3c0.3-0.3,4.7-5.4,7.5-5.4c0.7,0,1,0.3,1,1
				s-0.7,2.7-1.4,4.7l-2.7,6.8c-0.7,1.7-0.7,2.7-0.7,3s0,0.7,0.3,0.7c1-0.3,3.4-2.7,3.4-3h0.3l0.3,0.3c0.3,0.3,0.3,0.3,0,0.7
				c-0.3,0.3-3.7,4.7-7.5,4.7C378.1,148.8,377.8,148.4,377.8,147.8z M383.2,121.6c0-1.4,1-2.4,2.4-2.4c1.7,0,2.4,1,2.4,2
				c0,0.7-0.7,2.4-2.4,2.4C383.9,124,383.2,122.3,383.2,121.6z"/>
		</g>
		<g>
			<path fill="#FFFFDE" d="M390.3,132.9c-0.3,0-0.3,0-0.3-0.3l0.3-0.7c0-0.3,0.3-0.3,0.7-0.3h3.7c1.4-3.7,2.7-7.5,5.1-10.2
				c1.4-1.4,3.7-3,6.4-3s4.1,1.7,4.1,2.7c0,1.4-1,2-1.7,2c-1.4,0-1.7-0.7-2-1.7c0-0.3-0.3-1.4-1.7-1.4c-4.1,0-5.8,6.4-7.1,11.5h4.4
				c0.3,0,0.3,0,0.3,0.7l-0.3,0.7c0,0.3,0,0.3-0.3,0.3h-4.1c-1,3.7-3,11.2-5.4,16.9c-2.7,6.8-5.8,11.9-10.5,11.9c-1.7,0-3-1.4-3-2.7
				c0-1,0.7-2,2-2s2,1.4,2,2c0,0.3,0.3,0.7,0.7,0.7c2,0,4.4-3.7,6.8-11.9l4.4-14.9h-4.4v-0.3H390.3z"/>
		</g>
		<g>
			<path fill="#FFFFDE" d="M401.8,144.4c0-3.7,2.4-8.5,5.8-11.5c1.4-1.4,3.7-3,6.1-3c1.7,0,2.4,1.4,2.4,2.4c0,2-1.7,4.4-4.1,5.8
				s-4.7,1.7-6.4,1.7c-0.3,0.7-0.7,2-0.7,4.1s1.4,2.7,2.4,2.7c2,0,4.1-1.7,5.1-3c0,0,0.3-0.3,0.3,0l0.3,0.3c0.3,0,0.3,0.3,0,0.3
				c-1,1.7-3.7,4.4-7.1,4.4C403.2,148.8,401.8,147.4,401.8,144.4z M405.9,138.5c1.7,0,7.5-1.7,7.5-5.1c0-1-0.3-1.7-1.4-1.7
				C408.9,131.8,406.2,136.9,405.9,138.5z"/>
		</g>
		<g>
			<path fill="#FFFFDE" d="M452.6,118.5c2,0,3.4-0.3,4.4-0.3c0.7-0.3,1-0.3,1-0.3c0.3,0,0.3,0,0.3,0.3c0,0.7-0.7,7.1-0.3,8.8
				c0,0.3,0,0.3-0.3,0.3H457c-0.3,0-0.3,0-0.7-0.7c-0.3-1.4-1-4.4-1.7-5.8c-1.4-0.3-5.4-1-6.8-1h-1l-7.5,23c-1,2.7-0.7,3.7,2,3.7
				h1.7c0.3,0,0.3,0.3,0.3,0.3l-0.3,0.7c0,0.3,0,0.3-0.7,0.3s-2.4,0-6.8,0c-3,0-5.4,0-6.1,0c-0.3,0-0.3,0-0.3-0.3v-0.7
				c0-0.3,0-0.3,0.3-0.3h1.4c2.7,0,3.4-1.4,4.4-4.4l7.1-22h-1c-4.4,0-6.8,0.3-8.1,1c-1.7,1.4-3.7,4.1-4.4,5.1c0,0.3-0.3,0.3-0.7,0
				l-0.7-0.3c-0.3,0-0.3-0.3,0-0.3c0.7-1,3.4-7.1,3.4-7.5s0-0.3,0.3-0.3s1.4,0.7,7.1,0.7L452.6,118.5L452.6,118.5z"/>
		</g>
		<g>
			<path fill="#FFFFDE" d="M455,148.4c-0.3,0-0.3-0.3-0.3-0.3l2.4-7.1c0.7-2.4,2-7.1,2-7.8c0-0.3-0.3-0.7-0.7-0.7c-1,0-3,2-3.4,2.7
				h-0.3l-0.3-0.3v-0.3c1-1.4,3.7-4.4,6.4-4.4c1,0,1.4,0.7,1.4,1.7c0,0.7-0.7,3.4-1.7,6.4h0.3c1.4-2.4,4.7-7.8,7.1-7.8
				c1.4,0,2,0.7,2,2c0,1-1,2-1.7,2c-0.3,0-0.7,0-1-0.3s-0.7-0.7-1-0.7c-1.4,0-3.7,3.7-5.4,6.8c-0.7,0.7-1,1.7-1.7,3.7l-1.4,4.4
				c0,0.3-0.3,0.3-0.7,0.3h-2L455,148.4L455,148.4z"/>
		</g>
		<g>
			<path fill="#FFFFDE" d="M487.2,129.8c0.3,0,0.3,0.3,0,0.3c-0.7,1.7-3,7.8-3.4,8.5c-0.3,0.7-2,6.1-2,6.8c0,0.3,0.3,0.7,0.3,0.7
				c0.7,0,2.7-2.4,3-2.7c0,0,0.3-0.3,0.3,0l0.3,0.3c0,0,0.3,0.3,0,0.3c-0.3,1-4.4,4.7-6.8,4.7c-0.7,0-1-0.3-1-0.7c0-0.7,0.3-2,2-6.8
				h-0.3c-1.7,2.7-6.4,7.5-9.5,7.5c-1,0-2.4-0.7-2.4-2.7c0-6.4,7.1-15.9,12.5-15.9c2,0,2.7,0.7,3,1.4l0.7-1.4c0-0.3,0.3-0.3,0.3-0.3
				L487.2,129.8L487.2,129.8z M481.8,137.5c0.7-1.4,1-2.4,1-3.7c0-1.4-0.3-2.7-2-2.7c-4.1,0-8.8,9.5-8.8,13.6c0,1,0.3,1.7,1.4,1.7
				C475.3,146.4,480.8,139.3,481.8,137.5z"/>
		</g>
		<g>
			<path fill="#FFFFDE" d="M490.6,148.4c-0.3,0-0.7,0-0.3-0.3l3-8.1c1-2.7,2.4-6.1,2.4-6.8c0-0.3-0.3-0.7-0.7-0.7c-0.7,0-3,2-3.7,3
				H491l-0.3-0.3c-0.3-0.3-0.3-0.3,0-0.3c0.7-0.7,4.1-4.4,7.1-4.4c1,0,1.4,0.7,1.4,1.4c0,1.4-2,5.4-2.4,6.4h0.3
				c1.4-2,6.1-8.1,10.2-8.1c1.4,0,2.4,0.7,2.4,1.7c0,2-1,4.4-2.4,7.8c-1.4,3-2.4,5.4-2.4,6.1c0,0.3,0.3,0.7,0.7,0.7
				c0.7,0,2.7-1.7,3-2.4c0.3,0,0.3,0,0.3,0l0.3,0.3c0.3,0.3,0.3,0.3,0,0.3c-0.7,0.7-4.1,3.7-7.1,3.7c-0.7,0-1-0.3-1-1s1.7-4.4,3-8.1
				c0.7-1.7,2.4-5.4,2.4-6.4c0-0.7-0.3-1-1-1c-1.7,0-6.1,4.1-8.1,7.1c-0.7,1.4-1.4,2.4-2.7,5.4l-1,3c0,0.3-0.3,0.3-0.7,0.3h-2.4
				L490.6,148.4L490.6,148.4z"/>
		</g>
		<g>
			<path fill="#FFFFDE" d="M510.9,146.4c0-0.7,0.7-1.4,1.4-1.4c1,0,1.7,0.7,1.7,1.4c0.3,0.7,0.3,1.4,1.7,1.4s2.4-1,2.4-2.7
				c0-2-1.4-3.7-2-5.1c-0.3-0.7-1.4-2.4-1.4-4.4c0-2.7,2.4-5.4,5.4-5.4c1.4,0,3,0.7,3,2.4c0,0.7-0.7,1.4-1.4,1.4s-1.4-0.3-1.4-1
				c-0.3-0.7-0.3-1.4-1-1.4c-1,0-2,1.4-2,2.7c0,1.7,1.4,3.4,1.7,4.1s1.7,2.7,1.7,5.1c0,3.4-2.7,5.4-5.8,5.4
				C512.3,148.8,510.9,147.8,510.9,146.4z"/>
		</g>
		<g>
			<path fill="#FFFFDE" d="M534,126.4c0-0.3,0.3-0.3,0.7-0.7l2.7-1h0.3c0,0,0,0,0,0.3v0.3l-2,4.7c0.3,0,0.7,0,1,0s0.7,0,1,0
				c4.1,0,6.1,3,6.1,5.8c0,3-1.4,6.4-5.4,9.1c-2,1.4-5.4,3-9.1,3.4l-3,8.8c-0.7,2.4-0.3,3,1.4,3h1.4c0.3,0,0.3,0.3,0.3,0.3l-0.3,1
				c0,0-0.3,0.3-0.7,0.3c-0.3,0-1.7,0-4.7,0s-4.4,0-4.7,0s-0.3,0-0.3-0.3l0.3-1c0-0.3,0-0.3,0.3-0.3h1c1.7,0,2.4-1,3.4-3.7l8.8-23.7
				c-2,0.7-4.4,2.7-5.4,4.1c0,0.3-0.3,0-0.3,0l-0.3-0.3c0,0-0.3-0.3,0-0.3c1.7-1.7,3.7-3.7,7.1-5.1L534,126.4z M529.6,147
				c5.4-0.7,10.8-4.7,10.8-10.2c0-3.4-2-5.1-4.1-5.1c-0.7,0-1,0-1.4,0L529.6,147z"/>
		</g>
		<g>
			<path fill="#FFFFDE" d="M545.5,143c0-5.4,4.1-13.2,10.2-13.2c3,0,4.7,2,4.7,5.1c0,4.7-3.7,13.6-10.2,13.6
				C547.8,148.8,545.5,146.4,545.5,143z M558.7,134.5c0-1.4-0.7-2.4-2.4-2.4s-4.1,1.7-6.4,5.4c-1.4,2.4-2.7,5.1-2.7,7.1
				c0,1.4,1,2.4,2,2.4C553.9,146.6,558.7,137.3,558.7,134.5z"/>
		</g>
		<g>
			<path fill="#FFFFDE" d="M563.8,148.4c-0.3,0-0.3-0.3-0.3-0.3l2.4-7.1c0.7-2.4,2-7.1,2-7.8c0-0.3-0.3-0.7-0.7-0.7
				c-1,0-2.7,2-3.4,2.7h-0.3l-0.3-0.3v-0.3c1-1.4,3.7-4.4,6.4-4.4c1,0,1.4,0.7,1.4,1.7c0,0.7-0.7,3.4-1.7,6.4h0.3
				c1.4-2.4,4.7-7.8,7.1-7.8c1.4,0,2,0.7,2,2c0,1-1,2-1.7,2c-0.3,0-0.7,0-1-0.3s-0.7-0.7-1-0.7c-1.4,0-3.7,3.7-5.4,6.8
				c-0.7,0.7-1,1.7-1.7,3.7l-1.4,4.4c0,0.3-0.3,0.3-0.7,0.3h-2L563.8,148.4L563.8,148.4z"/>
		</g>
		<g>
			<path fill="#FFFFDE" d="M584.8,132.9h-3c-0.3,0-0.3,0-0.3-0.3l0.3-1c0-0.3,0.3-0.3,0.3-0.3h3l2.4-5.1c0.3-0.3,0.3-0.7,0.7-0.7
				s1.7-0.7,2-0.7s0.3-0.3,0.7-0.3s0.3,0.3,0,1l-3,6.1h4.4c0.3,0,0.3,0,0.3,0.3l-0.3,1l-0.3,0.3h-4.4l-4.4,9.8c-0.7,1.4-1,2.4-1,2.7
				c0,0.3,0.3,0.7,0.7,0.7c1.4,0,4.1-2.4,4.4-2.7c0-0.3,0.3,0,0.3,0l0.3,0.7v0.3c-0.7,0.7-4.7,4.4-8.1,4.4c-1,0-1.4-0.3-1.4-1
				s0.3-1.4,0.3-2L584.8,132.9z"/>
		</g>
	</g>
	<g>
		<g>
			<path fill="#FFFFDE" d="M197.2,55.3c-0.3-2.7-1.7-4.1-3.4-5.1s-4.1-1.4-6.4-1.4c-5.4,0-7.8,1.7-7.8,4.4
				c0,11.2,43.4,4.4,43.4,31.5c0,17.6-14.6,25.7-35.2,25.7c-20,0-32.9-11.5-33.2-25.1h23.7c0.7,2.7,2,4.7,4.1,6.1c2,1.4,4.7,2,7.1,2
				c6.1,0,10.2-2,10.2-5.4c0-11.5-43.4-3.4-43.4-32.2c0-15.9,13.9-24.1,32.5-24.1c21,0,30.5,10.5,32.2,23.7h-23.7v-0.1H197.2z"/>
		</g>
		<g>
			<path fill="#FFFFDE" d="M233.8,108.5V33.3h24.7v75.2H233.8z"/>
		</g>
		<g>
			<path fill="#FFFFDE" d="M270,33.1h68.8v19.7h-22v55.6H292V53.3h-22V33.1z"/>
		</g>
		<g>
			<path fill="#FFFFDE" d="M348.3,108.5V33.3h29.8L391.3,80l13.2-46.8h29.8v75.2h-22v-23l0.3-11.9L414,60h-0.3l-13.6,48.1h-17.3
				L369.2,60H369l1,11.2l0.7,11.9v25.4H348.3L348.3,108.5z"/>
		</g>
		<g>
			<path fill="#FFFFDE" d="M448.6,108.5V33.3h61.3v17.6h-36.6v10.8h31.2v17.6h-31.2v11.9h38.3v17.6h-63L448.6,108.5L448.6,108.5z"/>
		</g>
		<g>
			<path fill="#FFFFDE" d="M522.8,108.5V33.3h32.9c24.4,0,39.3,11.2,39.3,35.9c0,28.5-15.9,39.3-40,39.3L522.8,108.5L522.8,108.5z
				 M547.5,91.1h5.1c11.5,0,17.6-6.1,17.6-20.3c0-15.6-5.1-20-18.3-20h-4.7v40.3H547.5z"/>
		</g>
	</g>
	<g>
		<g>
			<polygon fill="#FFFFDE" points="58.3,51.5 58.3,51.5 57.3,50.5 56.6,52.9 57.9,52.9 			"/>
		</g>
		<g>
			<polygon fill="#FFFFDE" points="58.6,33.9 47.4,35.5 48.4,36.5 59,34.3 59,34.3 			"/>
		</g>
		<g>
			<polygon fill="#FFFFDE" points="91.5,31.1 91.5,31.1 92.2,32.5 92.2,32.5 103,32.5 103,32.5 104.7,30.1 			"/>
		</g>
		<g>
			<polygon fill="#FFFFDE" points="59,38.6 59,38 49.5,45 49.5,45 50.8,45.8 			"/>
		</g>
		<g>
			<path fill="#FFFFDE" d="M76.9,52.9c3.4-0.7,5.4-2.7,5.8-5.8c0-0.3,0.3-1.4,0-2.7s-0.7-2.4-1.4-3c-1.4-1.4-2-2.7-2.4-4.1
				c0-1,0-1.7,0-2.4c0.7-3,2.7-5.1,6.4-6.1l29.1-6.8l0,0l-13.9,2.4l-15.2,3.7c-4.1,1-6.4,3-7.1,6.8c0,1,0,2,0,2.7
				c0.3,1.4,1.4,2.7,2.7,4.4c0.7,1,1,1.7,1,2.4c0,1,0,1.7,0,2.4c-0.7,3-2.4,4.7-5.1,5.1h-2v1H76.9z"/>
		</g>
		<g>
			<polygon fill="#FFFFDE" points="63,55.3 63,55.5 64.7,54.9 64.7,53.9 64.7,53.5 63,53.5 			"/>
		</g>
		<g>
			<polygon fill="#FFFFDE" points="61.3,54.1 60.6,57 62.3,55.3 			"/>
		</g>
		<g>
			<polygon fill="#FFFFDE" points="61.3,53.5 60,52.9 60,52.9 59.3,54.5 61.3,53.9 			"/>
		</g>
		<g>
			<polygon fill="#FFFFDE" points="56.6,57 56.6,57 59,54.5 57.9,53.1 			"/>
		</g>
		<g>
			<polygon fill="#FFFFDE" points="51.5,57 54.5,55.5 54.5,55.5 55.9,52.5 55.9,52.5 55.2,51.1 			"/>
		</g>
		<g>
			<polygon fill="#FFFFDE" points="53.5,50.5 55.2,50.5 56.2,49.1 55.9,47 			"/>
		</g>
		<g>
			<polygon fill="#FFFFDE" points="53.2,50.9 52.5,48.8 52.5,48.8 46.8,55.5 46.8,55.9 50.1,54.5 50.1,54.5 			"/>
		</g>
		<g>
			<polygon fill="#FFFFDE" points="50.8,48.1 50.8,46 50.8,46 42.4,53.1 42.4,53.1 46.1,52.9 46.1,52.9 			"/>
		</g>
		<g>
			<path fill="#FFFFDE" d="M56.6,42.4l-5.4,5.4l0,0l1.7,0.3l0,0l3-3.4l0,0l0,0C55.9,44,55.9,43.4,56.6,42.4L56.6,42.4z"/>
		</g>
		<g>
			<polygon fill="#FFFFDE" points="49.1,45 49.1,43 37.9,50.1 41.3,50.5 			"/>
		</g>
		<g>
			<polygon fill="#FFFFDE" points="59.3,36.5 59.3,36.5 59.3,36.3 48.4,41.6 48.4,41.6 49.8,42.6 			"/>
		</g>
		<g>
			<polygon fill="#FFFFDE" points="47.4,38.6 48.8,39.6 59.3,35.3 59.6,35.3 59.3,34.9 			"/>
		</g>
		<g>
			<polygon fill="#FFFFDE" points="47.4,32.9 48.1,33.9 48.1,33.9 58.6,33.1 58.6,33.1 58.3,32.5 			"/>
		</g>
		<g>
			<polygon fill="#FFFFDE" points="56.6,31.1 47.4,29.9 47.4,29.9 48.1,31.1 48.1,31.1 57.3,31.9 57.3,31.9 			"/>
		</g>
		<g>
			<polygon fill="#FFFFDE" points="34.9,25.8 36.6,28.1 36.6,28.1 47.1,29.5 47.1,29.5 47.8,28.8 			"/>
		</g>
		<g>
			<polygon fill="#FFFFDE" points="34.6,30.1 36.3,32.5 36.3,32.5 46.8,32.5 46.8,32.5 47.8,31.1 			"/>
		</g>
		<g>
			<polygon fill="#FFFFDE" points="34.2,35.3 36.6,37 36.6,37 46.8,35.3 46.8,35.3 47.8,34.3 			"/>
		</g>
		<g>
			<polygon fill="#FFFFDE" points="34.6,40.4 36.9,42 36.9,42 47.1,38.6 47.1,38.6 47.8,37.3 			"/>
		</g>
		<g>
			<polygon fill="#FFFFDE" points="35.9,45.4 39,46.8 39,46.8 47.8,42 47.8,42 48.4,40.4 			"/>
		</g>
		<g>
			<polygon fill="#FFFFDE" points="30.8,50.9 37.6,50.1 37.6,50.1 38.3,47 			"/>
		</g>
		<g>
			<polygon fill="#FFFFDE" points="35.2,45.4 36.6,42.4 24.1,46.5 24.1,46.5 28.5,47.8 28.5,47.8 			"/>
		</g>
		<g>
			<polygon fill="#FFFFDE" points="33.9,40.4 36.3,37.5 20,40 19.7,40 23.4,42.6 23.4,42.6 			"/>
		</g>
		<g>
			<polygon fill="#FFFFDE" points="20.7,36 33.9,34.9 33.9,34.9 35.9,32.9 18.3,32.9 18.3,32.9 			"/>
		</g>
		<g>
			<polygon fill="#FFFFDE" points="20.3,29.1 33.9,30.1 33.9,30.1 36.3,28.1 18.3,25.5 18.3,25.5 			"/>
		</g>
		<g>
			<path fill="#FFFFDE" d="M60,35.5c0,0.7,0,1.7,0,2.4c-0.3,1-1,2.4-2.4,4.1c-0.7,0.7-1,1.7-1.4,3c0,1.4,0,2,0,2.7
				c0.3,3,2.4,4.7,5.8,5.8h2l0,0v-1h-2c-2.7-0.7-4.4-2.4-5.1-5.1c0-0.7,0-1.4,0-2.4c0-0.7,0.3-1.4,1-2.4c1.4-1.7,2.4-3,2.7-4.4
				c0-0.7,0.3-1.7,0-2.7c-0.7-3.4-3-5.8-7.1-6.8L38.3,25l-13.6-2.7l0,0l29.1,6.8C57.6,30.5,59.6,32.5,60,35.5z"/>
		</g>
		<g>
			<polygon fill="#FFFFDE" points="74.5,54.9 76.2,55.5 75.9,53.5 74.5,53.5 			"/>
		</g>
		<g>
			<polygon fill="#FFFFDE" points="76.9,55.3 76.9,55.3 78.6,57 77.9,54.1 			"/>
		</g>
		<g>
			<polygon fill="#FFFFDE" points="79.3,52.9 77.9,53.5 77.9,53.5 77.9,53.9 79.6,54.5 			"/>
		</g>
		<g>
			<polygon fill="#FFFFDE" points="80.3,54.5 82.7,57 81,53.1 			"/>
		</g>
		<g>
			<polygon fill="#FFFFDE" points="81,51.5 81,51.5 81.3,52.9 81.3,52.9 82.7,52.9 82.7,52.9 82,50.5 			"/>
		</g>
		<g>
			<polygon fill="#FFFFDE" points="83.3,52.5 83.3,52.5 84.7,55.5 84.7,55.5 87.8,57 84,51.1 			"/>
		</g>
		<g>
			<polygon fill="#FFFFDE" points="85.7,50.5 83.3,47 83,49.1 83,49.1 84,50.5 			"/>
		</g>
		<g>
			<polygon fill="#FFFFDE" points="86.1,50.9 86.1,50.9 89.1,54.5 89.1,54.5 92.5,55.9 86.7,48.8 			"/>
		</g>
		<g>
			<polygon fill="#FFFFDE" points="88.4,48.1 88.4,48.1 93.2,52.9 93.2,52.9 96.9,53.1 88.4,46 			"/>
		</g>
		<g>
			<path fill="#FFFFDE" d="M83.3,45l3,3.4l0,0l1.7-0.3l-5.4-5.4V43C83.3,43.4,83.3,44,83.3,45L83.3,45z"/>
		</g>
		<g>
			<polygon fill="#FFFFDE" points="90.1,43 90.1,45 90.1,45 97.6,50.5 97.6,50.5 101.3,50.1 			"/>
		</g>
		<g>
			<polygon fill="#FFFFDE" points="89.8,45 80.3,38 80.3,38 80.3,38.6 88.4,45.8 			"/>
		</g>
		<g>
			<polygon fill="#FFFFDE" points="80,36.3 80,36.3 80,36.5 80,36.5 89.4,42.6 89.4,42.6 90.8,41.6 			"/>
		</g>
		<g>
			<polygon fill="#FFFFDE" points="79.6,35.3 90.5,39.6 90.5,39.6 91.8,38.6 80,34.9 			"/>
		</g>
		<g>
			<polygon fill="#FFFFDE" points="80.3,34.3 90.8,36.5 90.8,36.5 91.8,35.5 80.6,33.9 80.6,33.9 			"/>
		</g>
		<g>
			<polygon fill="#FFFFDE" points="81,32.5 80.6,33.1 90.8,33.9 91.1,33.9 91.5,32.9 91.8,32.9 			"/>
		</g>
		<g>
			<polygon fill="#FFFFDE" points="82.7,31.1 82,31.9 91.1,31.1 91.1,31.1 91.8,29.9 			"/>
		</g>
		<g>
			<polygon fill="#FFFFDE" points="92.2,29.5 102.7,28.1 102.7,28.1 104.4,25.8 91.8,28.8 91.5,28.8 			"/>
		</g>
		<g>
			<polygon fill="#FFFFDE" points="91.5,34.3 92.5,35.3 92.5,35.3 102.7,37 102.7,37 105,35.3 			"/>
		</g>
		<g>
			<polygon fill="#FFFFDE" points="104.7,40.4 91.5,37.3 91.5,37.3 92.2,38.6 92.2,38.6 102.3,42 102.3,42 			"/>
		</g>
		<g>
			<polygon fill="#FFFFDE" points="100.3,46.8 100.3,46.8 103.3,45.4 90.8,40.4 90.8,40.4 91.5,42 			"/>
		</g>
		<g>
			<polygon fill="#FFFFDE" points="101,47 101.6,50.1 101.6,50.1 108.4,50.9 			"/>
		</g>
		<g>
			<polygon fill="#FFFFDE" points="102.7,42.4 104,45.4 104,45.4 110.5,47.8 110.8,47.8 115.2,46.5 			"/>
		</g>
		<g>
			<polygon fill="#FFFFDE" points="103,37.5 105,40.4 105,40.4 115.9,42.6 115.9,42.6 119.6,40 			"/>
		</g>
		<g>
			<polygon fill="#FFFFDE" points="103.3,32.9 105.4,34.9 105.4,34.9 118.6,36 118.6,36 121,32.9 121,32.9 			"/>
		</g>
		<g>
			<polygon fill="#FFFFDE" points="105.4,30.1 118.9,29.1 118.9,29.1 121,25.5 103,28.1 103,28.1 105.4,29.9 			"/>
		</g>
		<g>
			<ellipse fill="#FFFFDE" cx="70.5" cy="59" rx="1" ry="0.7"/>
		</g>
		<g>
			<ellipse fill="#FFFFDE" cx="70.5" cy="56.3" rx="1" ry="0.7"/>
		</g>
		<g>
			<ellipse fill="#FFFFDE" cx="70.5" cy="53.5" rx="1" ry="0.7"/>
		</g>
		<g>
			<ellipse fill="#FFFFDE" cx="70.5" cy="51.1" rx="1" ry="0.7"/>
		</g>
		<g>
			<ellipse fill="#FFFFDE" cx="70.5" cy="48.5" rx="1" ry="0.7"/>
		</g>
		<g>
			<ellipse fill="#FFFFDE" cx="70.5" cy="45.8" rx="1" ry="0.7"/>
		</g>
		<g>
			<ellipse fill="#FFFFDE" cx="70.5" cy="43.4" rx="1" ry="0.7"/>
		</g>
		<g>
			<ellipse fill="#FFFFDE" cx="69.8" cy="40.4" rx="0.7" ry="0.7"/>
		</g>
		<g>
			<path fill="#FFFFDE" d="M68.8,38.6L68.8,38.6L68.8,38.6c0.7,0,0.7,0,1.4,0.3c1,0.7,1.4,1,1.4,2.4l0,0l0,0c0.7-0.3,1-1.4,1-2
				c0-0.3,0-0.3,0-0.3l0,0c0-0.3,0-0.3,0-0.3l0,0c-0.3-0.7-0.3-1-0.7-1.4s-0.7-0.3-1.4-0.7c-0.3,0-0.3,0-0.7,0h-0.3l0,0
				c-0.7,0-1,0.7-1,1C68.1,37.5,68.4,38.3,68.8,38.6z"/>
		</g>
		<g>
			<polygon fill="#FFFFDE" points="69.1,33.9 69.8,31.5 69.8,31.5 69.1,30.5 69.1,31.5 68.8,31.5 68.4,32.1 68.4,32.5 			"/>
		</g>
		<g>
			<polygon fill="#FFFFDE" points="69.5,34.3 70.8,34.3 71.8,31.5 71.8,31.5 70.8,30.5 70.8,31.5 70.5,31.5 			"/>
		</g>
		<g>
			<polygon fill="#FFFFDE" points="67.4,69.8 69.5,68.5 71.8,70.1 70.8,67.5 73.2,65.4 70.5,65.4 69.5,62.6 68.8,65.4 66.1,65.8 
				68.1,67 			"/>
		</g>
		<g>
			<path fill="#FFFFDE" d="M62,76.9c-0.3,0-0.7,0-0.7,0c-0.3,0-0.3,0-0.3,0s0,0.3,0.3,0.3s0.3,0.3,0.7,0.3s0.7,0,0.7,0
				c0.3,0,0.3,0,0.3-0.3C63,77.5,62.7,77.3,62,76.9z"/>
		</g>
		<g>
			<path fill="#FFFFDE" d="M77.9,76.9c-0.3,0-0.7,0-1,0.3c-0.7,0.3-1,0.7-1,0.7h0.3c0.3,0,0.7,0,1-0.3c0.7-0.3,1-0.7,1-0.7
				S78.3,76.9,77.9,76.9z"/>
		</g>
		<g>
			<rect x="69.5" y="93.5" fill="#FFFFDE" width="0.7" height="13.2"/>
		</g>
		<g>
			<rect x="69.5" y="110.5" fill="#FFFFDE" width="0.3" height="11.2"/>
		</g>
		<g>
			<rect x="69.5" y="125.6" fill="#FFFFDE" width="0.3" height="14.9"/>
		</g>
		<g>
			<path fill="#FFFFDE" d="M66.7,127.4L66.7,127.4c-1.4,1-2.4,2.7-3,4.7c-0.3,1-0.3,1.7,0,2.4c0.7,3,2.4,5.1,5.4,5.4l0,0l-2.4-7.8
				V127.4z"/>
		</g>
		<g>
			<path fill="#FFFFDE" d="M72.5,127.4L72.5,127.4v5.1l-2.4,7.8l0,0l0,0c3-0.7,5.1-2.7,5.4-5.4c0-0.3,0.3-1.4,0-2.4
				C75.2,130.5,74.2,128.8,72.5,127.4z"/>
		</g>
		<g>
			<path fill="#FFFFDE" d="M66.7,119.3L66.7,119.3v-6.1l0,0C65.4,115.1,65.4,117.3,66.7,119.3z"/>
		</g>
		<g>
			<path fill="#FFFFDE" d="M72.5,113.1L72.5,113.1v6.1l0,0C73.9,117.3,73.9,115.1,72.5,113.1z"/>
		</g>
		<g>
			<path fill="#FFFFDE" d="M66.7,105L66.7,105V94.8l0,0c-2.4,1.4-3.4,3-3.4,4.7S64.4,103.4,66.7,105z"/>
		</g>
		<g>
			<path fill="#FFFFDE" d="M72.5,94.9L72.5,94.9v10.5l0,0l0,0c2.4-1.7,3.4-3.7,3.4-5.4S74.5,96.3,72.5,94.9z"/>
		</g>
	</g>
	<g>
		<path fill="#FFFFDE" d="M60,50.5L60,50.5L60,50.5z"/>
		<path fill="#FFFFDE" d="M78.3,51.1C77.9,51.1,77.9,51.1,78.3,51.1C77.9,51.1,77.9,51.1,78.3,51.1z"/>
		<path fill="#FFFFDE" d="M79.3,50.5L79.3,50.5L79.3,50.5z"/>
		<path fill="#FFFFDE" d="M76.6,51.9C76.6,51.9,76.2,51.9,76.6,51.9C76.2,51.9,76.6,51.9,76.6,51.9z"/>
		<path fill="#FFFFDE" d="M61.3,51.1L61.3,51.1L61.3,51.1z"/>
		<path fill="#FFFFDE" d="M139.2,48.8L139.2,48.8l-15.9-27.4l0,0l-2.7,1.4l1.4,2.4l0,0l-2.4,3.7l2.7,4.1l-2.4,3l1.4,4.1l0,0
			l-3.7,2.7v3.7l0,0l-5.8,1.7l-1,3l0,0l-10.5-0.7l-2,1L98,53.9l-4.1-0.7l-0.3,3l-3.7-1l-0.7,2.7l-3.4-1.7l-1.7,2l0,0l-3-2.4l-2,2.4
			l0,0l-2-2.4l-1.7,2.4L72,54.1l0.3-0.3c-0.3,0.3-1,0.3-2,0.3c1.4,0,2.7,0.7,2.7,1.4s-1,1.4-2.7,1.4c1.4,0,2.7,0.7,2.7,1.4
			s-0.7,1-1.7,1l0,0l0,0l3.4,5.8c1-1,1.7-2.7,1.4-5.1l0,0l0,0l13.2-2l0,0V64l0,0l-12.2-1.7c0.3,1.7,0.3,3.7-0.7,5.4l2,3.7H75l0,0
			L74.3,70c-1.4,0.7-2.7,1-4.1,1s-2.7-0.3-4.1-1.4l-1,1.7h-3.4l2.3-3.6c-1-1.4-1.4-3-1-5.4l-12.2,1.7l0,0V58L64,60.4l0,0
			c-0.3,2,0.3,3.7,1,4.7l3-5.4h0.3c-1-0.3-1.7-0.7-1.7-1c0-0.7,1-1.4,2.7-1.4c-1.4,0-2.7-0.7-2.7-1.4c0-0.7,1-1.4,2.7-1.4
			c-0.7,0-1,0-1.4-0.3l0,0l0,0l-3.4,4.1l0,0l-1.7-2.4l-2,2.4l0,0l-2-2.4l-3,2.4l-1.7-2L50.7,58l0,0L50,55.3l-3.7,1l0,0l-0.3-3
			L41.3,54L41,51.6l-2-0.7l-10.5,0.7l0,0l-1-3l-5.8-1.7l0,0v-3.7l-3.4-2.7l0,0l1.4-4.1l-2.7-3l0,0l2.7-4.1l-2.4-4.1l0,0l1.4-2
			L16,21.8l0,0l-16,27l37.9,22.4L0,93.5l0,0l15.9,27.4l0,0l37.9-22v48.8h31.8V99.4l37.9,22.4l0,0l15.9-27.4l0,0L101.1,72L139.2,48.8
			z M85,83.4c-0.3,1.4-1,3-2.4,4.1c-1.7,1.7-4.4,3-8.1,4.1c2.7,1.4,4.1,3.7,4.7,6.4c0.3,1.4,0.3,2.4,0,2.7c-0.7,3.7-3,6.4-6.4,7.8
			c2.4,1.7,3.4,3.7,3.7,6.1c0,1.4,0,2.4,0,3c-0.3,2.4-1.7,4.4-4.1,5.8c2.4,1.4,4.1,3.4,4.7,5.8c0.3,1.4,0.3,2.7,0,3.7
			c-0.7,2-1.4,3.7-2.4,4.7c-1,1.4-2.4,2-4.1,2.4l0,0c-0.3,0-0.3,0-0.7,0s-0.7,0-1,0l0,0c-0.7,0-0.7,0-1,0s-0.7,0-1-0.3l0,0
			c-3.4-1-5.4-3.4-6.1-6.8c0-0.3-0.3-1.7,0-3c0.7-2.7,2.4-5.1,4.7-6.8c-2-1-3.4-3-3.7-5.1c-0.3-0.7-0.3-2,0-3.4
			c0.3-2.4,1.7-4.4,3.7-6.1c-3.4-1.7-5.8-4.4-6.4-7.8c0-0.3,0-1.4,0-2.7c0.7-2.7,2-4.7,4.7-6.4c-3-0.7-5.8-2-7.8-4.1
			c-1.4-1.4-2-2.7-2.4-4.4c0-0.3,0-1,0-2.4c0.3-1.4,1-2.7,1.7-3.7c1-1,2-1.7,3.4-2c0,0,0,0,0.3,0s1,0,1.4,0c0,0,0,0,0.3,0
			c1.7,0.3,3,1.4,4.1,3.4c0.3,0.7,0.3,1.4,0,1.7l0.3,0.3h0.7v0.3h-0.3v0.7h-0.3v-1l-0.3-0.3c-0.3,0-0.7,0.3-1,0.3
			c-0.3,0-1,0-1.7-0.3c-1-0.3-1.7-0.3-2,0c-1,0-1.7,0.7-2,1.7c0,0.7-0.3,1.4,0,1.7c0.3,1.4,1.7,2.4,4.4,3.4l3.7,1.4V71l0,0l2.7,2
			v15.8h0.3V72.9l2.7-2.4v17.3l4.1-1.7c2-0.7,3.4-1.7,4.1-3c0-0.7,0.3-1.4,0-2s-0.7-1.4-1.7-1.7c-0.3,0-0.7,0-1,0s-0.7,0-1,0
			c-1,0-1,0.3-2.4,0.3l0,0c-0.3,0-0.7,0-1-0.3L72.8,80v1h-0.3v-0.7h-0.3V80h0.3l0.3-0.3c0-0.3,0-0.7,0-1c0.7-2,2.4-3.4,4.4-4.1
			c0.3,0,1-0.3,1.7,0c1,0.3,1.4,0.3,2.7,1l0,0c1.4,1,2.4,2,3,4.1C85.4,81.6,85.4,82.6,85,83.4z"/>
		<path fill="#FFFFDE" d="M53.9,27c3,0.7,5.1,1.7,6.8,3c1.4,1.4,2,3,2,5.4c0,2-1,4.1-3,6.4c-1,1.4-1.7,2.7-1.7,3.4
			c-0.3,1.7,0,3,1,3.7c0.3,0.3,0.7,0.7,0.7,1c0,0,0,0,0,0.3c0.3,0.3,0.7,0.3,0.7,0.7l0.3,0.3c0.3,0,0.7,0.3,1,0.3s0.3,0,0.7,0
			s0.7,0,1,0s0.3,0,0.7,0c0.4,0,0.3,0,0.7,0l0,0v1l2,1.4v-0.3c0-0.7,1-1.4,2.7-1.4c-1.4,0-2.7-0.7-2.7-1.4c0-0.7,1-1.4,2.7-1.4
			c-1.4,0-2.7-0.7-2.7-1.4s1-1.4,2.7-1.4c-1.4,0-2.7-0.7-2.7-1.4c0-0.7,1-1.4,2.7-1.4c-1.4,0-2.7-0.7-2.7-1.4s1.4-1.4,2.7-1.4
			c-1.7,0-3-1.4-3-3.4c0-1.7,1.4-3.4,3.4-3.4c1.7,0,3.4,1.4,3.4,3.4c0,1.7-1.4,3-3,3.4c1.4,0,2.7,0.7,2.7,1.4s-1,1.4-2.7,1.4
			c1.4,0,2.7,0.7,2.7,1.4c0,0.7-1,1.4-2.7,1.4c1.4,0,2.7,0.7,2.7,1.4s-1,1.4-2.7,1.4c1.4,0,2.7,0.7,2.7,1.4c0,0.7-1,1.4-2.7,1.4
			c1.4,0,2.7,0.7,2.7,1.4c0,0.3,0,0.3-0.3,0.3l2.4-1.7v-1l0,0c0.3,0,0.3,0,0.7,0s0.3,0,0.7,0s0.7,0,1,0s0.3,0,0.7,0s0.7-0.3,1-0.3
			l0.3-0.3c0.3-0.3,0.7-0.3,0.7-0.7c0,0,0,0,0.3-0.3s0.7-0.7,0.7-1c0.7-1,1-2.4,1-3.7c0-0.7-0.7-2-1.7-3.4c-2-2.4-3-4.4-3-6.4
			s0.7-3.7,2-5.4c1.4-1.4,3.7-2.4,6.8-3l0,0V-0.1H54.2L53.9,27L53.9,27z M68.1,28.8l1,1l0.7-1l1,1l0.7-1l1,1.4l0,0v1.4l0,0l-1.4,4.1
			l0,0c-0.7-0.3-1.4-0.3-2.4,0l0,0v-1.4c-0.3-0.3-0.7-1-0.7-1.4c0,0,0,0,0-0.3s0-1,0.3-1.4c0,0,0,0,0-0.3l-1-1L68.1,28.8z"/>
		<path fill="#FFFFDE" d="M63,51.9C62.7,51.9,62.7,51.9,63,51.9C62.7,51.9,62.7,51.9,63,51.9z"/>
	</g>
</g>
</svg>
