<?xml version="1.0" encoding="utf-8"?>
<!-- Generator: Adobe Illustrator 18.0.0, SVG Export Plug-In . SVG Version: 6.00 Build 0)  -->
<!DOCTYPE svg PUBLIC "-//W3C//DTD SVG 1.1//EN" "http://www.w3.org/Graphics/SVG/1.1/DTD/svg11.dtd">
<svg version="1.1" id="Layer_1" xmlns="http://www.w3.org/2000/svg" xmlns:xlink="http://www.w3.org/1999/xlink" x="0px" y="0px"
	 width="142px" height="16.1px" viewBox="0 0 142 16.1" enable-background="new 0 0 142 16.1" xml:space="preserve">
<g>
	<path fill="#FDFBDF" d="M76.5,9.5l1.4-4.1c0.3-0.9,0.7-2.4,0.7-2.4l0,0c0,0,0.3,1.5,0.6,2.4l1.4,4.1L76.5,9.5z M77.1,0.2l-5.5,15.5
		l2.9,0l1.3-4l5.4,0l1.3,4l2.9,0L80,0.2L77.1,0.2z"/>
	<path fill="#FDFBDF" d="M95,7.6l-2.5,0l0-4.8l2.1,0c2.2,0,2.8,0.9,2.8,2.4C97.4,6.7,96.5,7.6,95,7.6 M97.7,9.2L97.7,9.2
		c1.6-0.7,2.6-2.4,2.6-4.3c0-2-1-3.5-2.5-4.2c-0.7-0.3-1.4-0.4-3.1-0.4l-5,0l0,15.5l2.8,0l0-5.8l2.7,0l3.1,5.8l3.1,0L98.2,10
		C97.9,9.5,97.7,9.2,97.7,9.2"/>
	<path fill="#FDFBDF" d="M111.3,13.4l-2.3,0l0-10.6l2.3,0c3.1,0,5.1,1.9,5.1,5.3C116.4,11.6,114.4,13.4,111.3,13.4 M111.5,0.4
		l-5.3,0l-0.1,15.5l5.3,0c4.8,0,7.9-2.8,7.9-7.7C119.3,3.2,116.2,0.4,111.5,0.4"/>
	<path fill="#FDFBDF" d="M126,4.6c0-1.1,1-1.8,2.3-1.8c1.9,0,3.4,1.4,3.4,1.4l1.2-2.3c0,0-1.6-1.7-4.6-1.7c-3,0-5.2,1.9-5.2,4.5
		c0,4.7,7.3,4.3,7.3,7.1c0,1.3-1.1,1.9-2.3,1.9c-2.2,0-3.8-1.6-3.8-1.6l-1.5,2.1c0,0,1.9,2.1,5.3,2.1c3.2,0,5.1-2.1,5.1-4.5
		C133.3,6.7,126,7.3,126,4.6"/>
	<path fill="#D94362" d="M49.8,0.1l-2.6,10.7c-0.2,0.9-0.3,1.6-0.3,1.6h0c0,0,0-0.7-0.3-1.6L44,0.1l-2.4,0l-2.8,10.7
		c-0.2,0.9-0.3,1.6-0.3,1.6h0c0,0-0.1-0.8-0.2-1.6l-1.8-8l-1.4,5.8l1.7,6.9l3.2,0l2.4-9.1c0.3-1,0.4-2,0.4-2h0c0,0,0.1,1,0.4,2
		l2.4,9.2l3.2,0l4-15.5L49.8,0.1z"/>
	<path fill="#D94362" d="M64.7,10.9c-0.2,0.9-0.3,1.6-0.3,1.6l-0.1,0c0,0,0-0.7-0.3-1.6L61.4,0.2l-2.4,0l-2.8,10.7
		c-0.2,0.9-0.3,1.6-0.3,1.6l0,0c0,0-0.1-0.8-0.3-1.6l-1.8-8.1l-1.4,5.8l1.7,7l3.2,0l2.4-9.1c0.3-1,0.4-2,0.4-2l0,0c0,0,0.1,1,0.4,2
		l2.3,9.2l3.2,0l4-15.5l-2.9,0L64.7,10.9z"/>
	<path fill="#FDFBDF" d="M4.9,9.2l1.4-4.1C6.6,4.2,7,2.7,7,2.7h0c0,0,0.3,1.5,0.6,2.4L9,9.2L4.9,9.2z M5.5,0L0,15.5l2.9,0l1.3-4
		l5.4,0l1.3,4l2.9,0L8.5,0L5.5,0z"/>
	<path fill="#FDFBDF" d="M32.4,0.1l-2.6,10.7c-0.2,0.9-0.3,1.6-0.3,1.6l0,0c0,0,0-0.7-0.3-1.6L26.5,0.1l-2.4,0l-2.8,10.7
		c-0.2,0.9-0.3,1.6-0.3,1.6h0c0,0-0.1-0.8-0.3-1.6L18.2,0l-2.9,0l3.8,15.5l3.2,0l2.4-9.1c0.3-1,0.4-2,0.4-2l0,0c0,0,0.1,1,0.4,2
		l2.3,9.2l3.2,0l4-15.5L32.4,0.1z"/>
	<path fill="#FEFBDF" d="M139.5,3.1l-0.6,0l0-1.2l0.6,0c0.3,0,0.6,0.2,0.6,0.6C140,2.9,139.8,3.1,139.5,3.1 M139.8,3.3L139.8,3.3
		c0.3-0.1,0.6-0.4,0.6-0.8c0-0.5-0.4-0.9-0.9-0.9l-1,0l0,3h0.3l0-1.2h0.6l0.6,1.3h0.4l-0.6-1.1C139.8,3.3,139.8,3.3,139.8,3.3"/>
	<path fill="#FEFBDF" d="M139.4,5.5c-1.3,0-2.3-1-2.3-2.4c0-1.3,1-2.4,2.3-2.4c1.3,0,2.3,1,2.3,2.4C141.7,4.5,140.7,5.5,139.4,5.5
		 M139.4,0.4c-1.5,0-2.6,1.2-2.6,2.7c0,1.5,1.2,2.7,2.6,2.7c1.5,0,2.7-1.2,2.7-2.7C142,1.6,140.9,0.4,139.4,0.4"/>
</g>
</svg>
