<?xml version="1.0" encoding="utf-8"?>
<!-- Generator: Adobe Illustrator 18.0.0, SVG Export Plug-In . SVG Version: 6.00 Build 0)  -->
<!DOCTYPE svg PUBLIC "-//W3C//DTD SVG 1.1//EN" "http://www.w3.org/Graphics/SVG/1.1/DTD/svg11.dtd">
<svg version="1.1" id="Layer_1" xmlns="http://www.w3.org/2000/svg" xmlns:xlink="http://www.w3.org/1999/xlink" x="0px" y="0px"
	 width="105.7px" height="37.9px" viewBox="0 0 105.7 37.9" enable-background="new 0 0 105.7 37.9" xml:space="preserve">
<g>
	<circle fill="#D94362" cx="18.9" cy="18.9" r="18.9"/>
	<g>
		<g>
			<path fill="#FDFBDF" d="M103.6,14.5c-0.6-0.5-0.8-0.9-0.5-1.7l0.6-1.4l-2.7,0l-0.3,1c-0.4,1.5-1.3,2.7-2.6,3.6
				c-0.3,0.2-0.5,0.3-0.7-0.1c-0.8-1.5-2.1-2.2-3.7-2.5C92,13.1,88,13.2,88,13.2l-0.1,0.7c-0.2,1-0.7,2-1.6,2.5
				c-0.3,0.2-0.5,0.3-0.7,0.1c-0.1-0.1-0.2-0.2-0.2-0.4c-1.4-4-6.6-4.1-8.7-2.1c-1.9,1.8-2.2,4-1.8,6.4c0.3,1.5,1,2.8,2.4,3.7
				c3.7,2.2,8.1-0.1,8.5-4.4c0-0.3-0.1-0.7,0.4-0.9c0.6-0.1,1.1-0.5,1.7-0.8c0.2,0.4,0.1,0.7,0.1,1c0,3.5,0,8.6,0,12.1l2.7,0l0-6.7
				c0,0,0.4,0.1,0.6,0.1c1.2,0.3,2.4,0.2,3.6-0.2c2.2-0.9,2.9-2.7,3.1-4.9c0-0.5,0.1-0.8,0.6-1c0.9-0.4,1.7-1,2.3-1.8
				c0.4-0.5,0.7-0.4,1.1,0c1,1,1.1,2.2,0.9,3.5c-0.3,1.7-1.7,2.6-3.4,2.4l-1-0.2l0,2.2l0.6,0.1c2.1,0.6,4.7-0.4,5.8-2.3
				C106.4,19.8,105.9,16.5,103.6,14.5z M82.7,20.3c-0.3,0.8-0.6,1.6-1.4,2c-1.3,0.7-2.8,0.1-3.4-1.3c-0.3-0.7-0.5-1.4-0.4-2.1
				c0-1.1,0.2-2,0.7-2.8c0.6-0.8,1.4-1,2.3-0.9c0.9,0.1,1.4,0.6,1.8,1.4l0.2,0.6l-0.6,0h-0.7v2.2l0.7,0c0.2,0,0.9,0,0.9,0
				C83,19.6,82.7,20.3,82.7,20.3z M95.1,19.9c-0.2,1.6-2,3.2-3.8,2.1c-0.3-0.2-0.5-0.2-0.5-0.6v-5.9l0.7,0c1.3,0,2.5,0.1,3.3,1.4
				c-0.4,0.3-1.1,0.3-1.1,0.3l0,2.1l0.8,0c0.2,0,0.6,0,0.6,0L95.1,19.9z"/>
			<path fill="#FDFBDF" d="M68.5,15.1l0-1.9l-2.6,0l0,6.8c0,1.1-0.9,2-1.9,2c-0.9,0-1.3-0.5-1.3-1.9c0-0.2,0-0.4,0-0.6V6.1l-4,0
				l0,2.2l1,0c0.4,0,0.3,0.5,0.3,0.7c0,1,0,2,0,2.9c0,0.6-0.2,0.8-0.8,0.7c-0.9,0-1.8,0.1-2.7,0.4c-3.1,1.1-4.8,4.4-4.1,7.9
				c0.4,1.7,1.1,3.1,2.8,3.6c2,0.6,3.8,0.2,5.1-1.6c1.1,1.6,2.2,2,3.9,1.6c0.6-0.1,1.6-0.6,1.6-0.6l0,0.7l2.8,0l0-5.3
				c0-1.3,0.6-2.5,1.7-3.3c0.3-0.2,0.5-0.3,0.8-0.2c0.4,0.1,0.3,0.8,0.3,0.8l0,0.9l2.3,0v-3.9l0-0.8l-0.8,0
				C71.2,12.9,68.5,15.1,68.5,15.1z M59.8,20.3c-0.4,1.2-1.5,2-2.7,1.9c-1.1-0.1-1.7-0.8-1.9-2.2c-0.3-2.1,0.6-3.8,2.2-4.5
				c0.7-0.3,1.4-0.3,2.1-0.2c0.4,0,0.5,0.3,0.5,0.6c0,0.6,0,1.2,0,2C59.9,18.5,60.1,19.4,59.8,20.3z"/>
			<path fill="#FDFBDF" d="M48.2,13.4c-2-0.9-4-0.9-5.8,0.3c-2,1.3-2.6,3.4-2.4,5.6c0,0.4,0.2,1.1,0.2,1.1s-0.7,0.7-1,1
				c-0.7,0.7-1.6,1-2.5,1.2c-1.8,0.2-3.2-0.7-3.7-2.2c-0.5-1.9,0.3-4.1,1.8-4.8c0.3-0.2,0.6-0.2,1-0.3c0,0,0,0,0,0c0,0,0,0,0,0
				c0,0,0,0,0,0c0.2,0,1,0,1,0.9l0,1.1l2.4,0V13c0,0-0.9-0.1-1.8-0.2c-3.6-0.3-6.5,1.2-7.2,5c-0.5,2.6,0.4,5,2.2,6.2
				c2.3,1.5,6.2,1,8.2-0.9c0.2-0.2,0.5-0.4,0.5-0.4s0.2,0.2,0.4,0.4c1.7,1.9,4.7,2.3,6.9,1.1c2.1-1.1,3.2-3.8,2.7-6.6
				C50.7,15.8,49.9,14.2,48.2,13.4z M47.7,21.1c-0.4,0.9-1.1,1.4-2.1,1.4c-1,0-1.8-0.4-2.2-1.3c-0.8-1.6-0.8-3.3,0.1-4.9
				c0.4-0.8,1.1-1.2,2-1.2c1-0.1,1.8,0.4,2.2,1.3C48.4,18,48.4,19.6,47.7,21.1z"/>
		</g>
		<g>
			<path fill="#372D3B" d="M15.6,14.2c1-1.8,2-3.6,3.1-5.6c2.3,4,4.6,7.8,5.8,12.1c0.6,2.4-0.8,5.1-3.2,6.2
				c-2.5,1.2-5.6,0.5-7.2-1.6c-0.3-0.4-0.7-0.9-0.8-1.5c1.5,0.5,2.8,0.1,3.9-1c1-1.1,1.2-2.5,0.6-3.9C17.1,17.3,16.3,15.7,15.6,14.2
				z"/>
			<path fill="#FDFBDF" d="M15.6,14.2c0.7,1.6,1.5,3.1,2.1,4.7c0.6,1.4,0.4,2.7-0.6,3.9c-1.1,1.1-2.4,1.5-3.9,1
				c-2.1-0.8-3-2.6-2.2-4.7c0.8-2.4,2-4.7,3.4-6.9C14.9,12.8,15.2,13.6,15.6,14.2z"/>
		</g>
	</g>
</g>
</svg>
