<?xml version="1.0" encoding="utf-8"?>
<!-- Generator: Adobe Illustrator 18.0.0, SVG Export Plug-In . SVG Version: 6.00 Build 0)  -->
<!DOCTYPE svg PUBLIC "-//W3C//DTD SVG 1.1//EN" "http://www.w3.org/Graphics/SVG/1.1/DTD/svg11.dtd">
<svg version="1.1" id="Layer_1" xmlns="http://www.w3.org/2000/svg" xmlns:xlink="http://www.w3.org/1999/xlink" x="0px" y="0px"
	 width="134.2px" height="24.7px" viewBox="0 0 134.2 24.7" enable-background="new 0 0 134.2 24.7" xml:space="preserve">
<g>
	<g>
		<g>
			<polygon fill="#D94362" points="62.4,16.3 58.4,12.3 54.3,8.2 46.3,8.2 46.3,8.2 46.3,8.2 54.4,0.1 46.3,0.1 42.3,4.1 38.2,8.2 
				42.3,12.2 46.3,16.3 54.3,16.3 54.3,16.3 46.2,24.4 54.3,24.4 58.4,20.4 54.3,16.3 58.4,20.4 			"/>
			<polygon fill="#D94362" points="35.3,8.2 27.3,8.2 27.3,8.2 27.3,8.2 35.4,0.1 27.3,0.1 23.2,4.1 19.2,8.2 23.2,12.2 27.3,16.3 
				35.3,16.3 35.3,16.3 27.2,24.4 35.3,24.4 39.3,20.4 35.3,16.3 39.3,20.4 43.4,16.3 39.3,12.3 			"/>
			
				<rect x="17.6" y="8.2" transform="matrix(-0.7388 -0.6739 0.6739 -0.7388 25.0422 26.1951)" fill="#D94362" width="0" height="0"/>
			<polygon fill="#D94362" points="24.3,0.1 16.2,0.1 12.2,4.2 12.2,4.2 8.1,8.3 4.1,12.3 0,16.3 4.1,20.4 8.1,16.3 4.1,20.4 
				8.1,24.4 16.2,24.4 8.1,16.3 16.2,8.3 16.2,8.3 16.2,8.2 			"/>
		</g>
		<g>
			<path fill="#FDFBDF" d="M66,9.9V0.1h3.3c1.3,0,2.4,0.2,3.2,0.6c0.8,0.4,1.4,1,1.8,1.8C74.8,3.3,75,4.1,75,5
				c0,0.7-0.1,1.3-0.4,1.9C74.4,7.5,74,8,73.5,8.5c-0.5,0.5-1,0.8-1.7,1.1c-0.4,0.1-0.7,0.2-1,0.3c-0.3,0-0.9,0.1-1.8,0.1H66z
				 M69.2,1.4h-1.8v7.3h1.8c0.7,0,1.2,0,1.6-0.1c0.4-0.1,0.7-0.2,1-0.4c0.3-0.1,0.5-0.3,0.7-0.5c0.7-0.7,1-1.6,1-2.7
				c0-1.1-0.4-1.9-1.1-2.6c-0.3-0.2-0.6-0.5-0.9-0.6c-0.3-0.2-0.7-0.3-1-0.3C70.3,1.4,69.8,1.4,69.2,1.4z"/>
		</g>
		<g>
			<path fill="#FDFBDF" d="M76.8,0.1h5.8v1.2h-4.4v3h4.3v1.3h-4.3v3h4.6v1.2h-6V0.1z"/>
		</g>
		<g>
			<path fill="#FDFBDF" d="M87.2,5.8l-1.1-0.6C85.5,4.8,85,4.4,84.8,4c-0.3-0.4-0.4-0.8-0.4-1.4c0-0.8,0.3-1.4,0.8-1.9
				C85.7,0.2,86.4,0,87.2,0c0.8,0,1.6,0.2,2.2,0.7v1.6c-0.7-0.7-1.5-1-2.3-1c-0.5,0-0.8,0.1-1.1,0.3c-0.3,0.2-0.4,0.5-0.4,0.8
				c0,0.3,0.1,0.6,0.3,0.8c0.2,0.3,0.6,0.5,1,0.8l1.1,0.6c1.2,0.7,1.8,1.6,1.8,2.7c0,0.8-0.3,1.4-0.8,1.9c-0.5,0.5-1.2,0.7-2,0.7
				c-1,0-1.8-0.3-2.6-0.9V7.4c0.8,1,1.6,1.4,2.6,1.4c0.4,0,0.8-0.1,1.1-0.4c0.3-0.2,0.4-0.6,0.4-0.9C88.5,6.9,88.1,6.3,87.2,5.8z"/>
		</g>
		<g>
			<path fill="#FDFBDF" d="M92,0.1h1.4v9.8H92V0.1z"/>
		</g>
		<g>
			<path fill="#FDFBDF" d="M101.5,5.1h3.3v4.1c-1.2,0.5-2.4,0.8-3.6,0.8c-1.6,0-2.9-0.5-3.9-1.4c-1-0.9-1.5-2.1-1.5-3.5
				c0-1.5,0.5-2.7,1.5-3.6c1-1,2.3-1.5,3.8-1.5c0.5,0,1.1,0.1,1.6,0.2c0.5,0.1,1.1,0.3,1.9,0.7v1.4c-1.2-0.7-2.3-1-3.5-1
				c-1.1,0-2,0.4-2.7,1.1C97.6,3.1,97.3,4,97.3,5c0,1.1,0.4,2,1.1,2.7c0.7,0.7,1.7,1.1,2.8,1.1c0.6,0,1.2-0.1,2-0.4l0.1,0v-2h-1.9
				V5.1z"/>
		</g>
		<g>
			<path fill="#FDFBDF" d="M115.2,0.1h1.3v9.8h-1.2l-6.5-7.5v7.5h-1.3V0.1h1.1l6.6,7.6V0.1z"/>
		</g>
		<g>
			<path fill="#FDFBDF" d="M70,12.7h1.2l5.3,11.9h-1.7l-1.6-3.5h-5l-1.5,3.5h-1.7L70,12.7z M72.5,19.5l-1.9-4.3l-1.8,4.3H72.5z"/>
		</g>
		<g>
			<path fill="#FDFBDF" d="M91.5,12.7h1.7l-4.8,11.9H88L84.1,15l-3.9,9.6h-0.4l-4.8-11.9h1.7l3.3,8.1l3.3-8.1h1.6l3.3,8.1L91.5,12.7
				z"/>
		</g>
		<g>
			<path fill="#FDFBDF" d="M96.8,12.7H98l5.3,11.9h-1.7l-1.6-3.5h-5l-1.5,3.5h-1.7L96.8,12.7z M99.3,19.5l-1.9-4.3l-1.8,4.3H99.3z"
				/>
		</g>
		<g>
			<path fill="#FDFBDF" d="M104.7,24.6V12.7h3c1.2,0,2.1,0.3,2.8,0.9c0.7,0.6,1.1,1.4,1.1,2.4c0,0.7-0.2,1.3-0.5,1.8
				s-0.8,0.9-1.5,1.1c0.4,0.2,0.7,0.6,1.1,1c0.4,0.4,0.9,1.2,1.5,2.2c0.4,0.7,0.7,1.2,1,1.5l0.6,0.8h-2l-0.5-0.8c0,0,0-0.1-0.1-0.1
				l-0.3-0.5l-0.5-0.9l-0.6-0.9c-0.3-0.5-0.7-0.9-1-1.2c-0.3-0.3-0.6-0.5-0.8-0.6c-0.2-0.1-0.6-0.2-1.2-0.2h-0.4v5.1H104.7z
				 M106.9,14.2h-0.5v3.7h0.6c0.9,0,1.4-0.1,1.8-0.2c0.3-0.1,0.6-0.4,0.7-0.7c0.2-0.3,0.3-0.6,0.3-1c0-0.4-0.1-0.7-0.3-1
				c-0.2-0.3-0.5-0.5-0.8-0.6C108.3,14.2,107.7,14.2,106.9,14.2z"/>
		</g>
		<g>
			<path fill="#FDFBDF" d="M115.1,24.5V12.7h4c1.6,0,2.9,0.2,3.8,0.7c0.9,0.5,1.7,1.2,2.2,2.1c0.6,0.9,0.8,2,0.8,3.1
				c0,0.8-0.2,1.5-0.5,2.3c-0.3,0.7-0.7,1.4-1.3,1.9c-0.6,0.6-1.2,1-2,1.3c-0.4,0.2-0.9,0.3-1.2,0.4c-0.4,0.1-1.1,0.1-2.1,0.1H115.1
				z M118.9,14.2h-2.1V23h2.2c0.8,0,1.5-0.1,2-0.2c0.5-0.1,0.9-0.3,1.2-0.4c0.3-0.2,0.6-0.4,0.9-0.7c0.8-0.8,1.3-1.9,1.3-3.2
				c0-1.3-0.4-2.3-1.3-3.1c-0.3-0.3-0.7-0.5-1.1-0.7c-0.4-0.2-0.8-0.3-1.2-0.4C120.3,14.3,119.7,14.2,118.9,14.2z"/>
		</g>
		<g>
			<path fill="#FDFBDF" d="M131,19.6l-1.3-0.8c-0.8-0.5-1.4-1-1.7-1.5c-0.3-0.5-0.5-1-0.5-1.6c0-0.9,0.3-1.7,1-2.3
				c0.6-0.6,1.5-0.9,2.5-0.9c1,0,1.9,0.3,2.7,0.8v1.9c-0.8-0.8-1.8-1.2-2.7-1.2c-0.6,0-1,0.1-1.4,0.4c-0.4,0.3-0.5,0.6-0.5,1
				c0,0.4,0.1,0.7,0.4,1c0.3,0.3,0.7,0.6,1.3,1l1.3,0.8c1.4,0.9,2.2,2,2.2,3.3c0,0.9-0.3,1.7-1,2.3c-0.6,0.6-1.5,0.9-2.5,0.9
				c-1.2,0-2.2-0.4-3.2-1.1v-2.1c0.9,1.2,2,1.7,3.2,1.7c0.5,0,1-0.1,1.3-0.4c0.4-0.3,0.5-0.7,0.5-1.1
				C132.6,20.9,132.1,20.2,131,19.6z"/>
		</g>
	</g>
</g>
</svg>
