<?xml version="1.0" encoding="utf-8"?>
<!-- Generator: Adobe Illustrator 18.0.0, SVG Export Plug-In . SVG Version: 6.00 Build 0)  -->
<!DOCTYPE svg PUBLIC "-//W3C//DTD SVG 1.1//EN" "http://www.w3.org/Graphics/SVG/1.1/DTD/svg11.dtd">
<svg version="1.1" id="Layer_1" xmlns="http://www.w3.org/2000/svg" xmlns:xlink="http://www.w3.org/1999/xlink" x="0px" y="0px"
	 width="150px" height="24.1px" viewBox="0 0 150 24.1" enable-background="new 0 0 150 24.1" xml:space="preserve">
<g>
	<g>
		<g>
			<path fill="#FDFBDF" d="M36.7,6.8c1.1,0,2,0.2,2.8,0.7c0.8,0.4,1.4,1.1,1.8,1.9c0.4,0.8,0.6,1.8,0.6,2.9c0,0.8-0.1,1.6-0.3,2.2
				c-0.2,0.7-0.6,1.2-1,1.7c-0.4,0.5-1,0.9-1.6,1.1c-0.6,0.3-1.4,0.4-2.2,0.4c-0.8,0-1.6-0.1-2.2-0.4c-0.7-0.3-1.2-0.6-1.6-1.1
				c-0.4-0.5-0.8-1.1-1-1.7c-0.2-0.7-0.3-1.4-0.3-2.2c0-0.8,0.1-1.6,0.3-2.2c0.2-0.7,0.6-1.3,1-1.7c0.4-0.5,1-0.8,1.6-1.1
				C35.2,6.9,35.9,6.8,36.7,6.8z M39.8,12.2c0-0.8-0.1-1.4-0.4-2c-0.2-0.6-0.6-1-1.1-1.3c-0.5-0.3-1-0.4-1.6-0.4
				c-0.4,0-0.8,0.1-1.2,0.2c-0.4,0.2-0.7,0.4-0.9,0.7c-0.3,0.3-0.5,0.7-0.6,1.2c-0.2,0.5-0.2,1-0.2,1.6c0,0.6,0.1,1.1,0.2,1.6
				c0.2,0.5,0.4,0.9,0.6,1.2c0.3,0.3,0.6,0.6,0.9,0.7c0.4,0.2,0.7,0.2,1.2,0.2c0.5,0,1-0.1,1.5-0.4c0.5-0.3,0.8-0.7,1.1-1.3
				C39.6,13.7,39.8,13,39.8,12.2z"/>
			<path fill="#FDFBDF" d="M46.5,8.1l4.1,6.2V8c0-0.4,0.1-0.7,0.3-0.9c0.2-0.2,0.4-0.3,0.7-0.3c0.3,0,0.5,0.1,0.7,0.3
				c0.2,0.2,0.3,0.5,0.3,0.9v8.3c0,0.9-0.4,1.4-1.1,1.4c-0.2,0-0.4,0-0.5-0.1c-0.2-0.1-0.3-0.1-0.4-0.3c-0.1-0.1-0.3-0.3-0.4-0.4
				c-0.1-0.2-0.2-0.3-0.3-0.5l-4-6.1v6.2c0,0.4-0.1,0.7-0.3,0.9c-0.2,0.2-0.4,0.3-0.7,0.3c-0.3,0-0.5-0.1-0.7-0.3
				c-0.2-0.2-0.3-0.5-0.3-0.9V8.3c0-0.3,0-0.6,0.1-0.8C44,7.3,44.1,7.1,44.3,7c0.2-0.1,0.4-0.2,0.7-0.2c0.2,0,0.4,0,0.5,0.1
				c0.1,0.1,0.3,0.1,0.4,0.3c0.1,0.1,0.2,0.2,0.3,0.4C46.3,7.7,46.4,7.9,46.5,8.1z"/>
			<path fill="#FDFBDF" d="M61.9,8.6h-4.8v2.6h4.4c0.3,0,0.6,0.1,0.7,0.2c0.2,0.1,0.2,0.3,0.2,0.6c0,0.2-0.1,0.4-0.2,0.6
				c-0.2,0.2-0.4,0.2-0.7,0.2h-4.4v3h5c0.3,0,0.6,0.1,0.8,0.2c0.2,0.2,0.3,0.4,0.3,0.6c0,0.2-0.1,0.5-0.3,0.6
				c-0.2,0.2-0.4,0.2-0.8,0.2h-5.8c-0.5,0-0.8-0.1-1-0.3c-0.2-0.2-0.3-0.5-0.3-1V8.3c0-0.3,0-0.6,0.1-0.8c0.1-0.2,0.2-0.3,0.4-0.4
				C55.7,7,55.9,7,56.2,7h5.6c0.3,0,0.6,0.1,0.8,0.2c0.2,0.2,0.2,0.3,0.2,0.6c0,0.2-0.1,0.4-0.2,0.6C62.5,8.5,62.2,8.6,61.9,8.6z"/>
			<path fill="#FDFBDF" d="M72.5,13.4h-2v3c0,0.4-0.1,0.7-0.3,1s-0.5,0.3-0.8,0.3c-0.3,0-0.6-0.1-0.8-0.3c-0.2-0.2-0.3-0.5-0.3-1
				V8.3c0-0.5,0.1-0.8,0.3-1c0.2-0.2,0.6-0.3,1-0.3h2.7c0.8,0,1.4,0.1,1.9,0.2c0.4,0.1,0.8,0.3,1.1,0.6c0.3,0.3,0.6,0.6,0.7,1
				c0.2,0.4,0.2,0.9,0.2,1.4c0,1.1-0.3,1.9-1,2.4C74.8,13.1,73.8,13.4,72.5,13.4z M72,8.6h-1.4v3.2H72c0.5,0,0.9-0.1,1.3-0.2
				c0.3-0.1,0.6-0.3,0.8-0.5c0.2-0.2,0.3-0.6,0.3-0.9c0-0.5-0.1-0.8-0.4-1.1C73.6,8.7,72.9,8.6,72,8.6z"/>
			<path fill="#FDFBDF" d="M83.7,16.3L83.2,15h-4.3l-0.5,1.4c-0.2,0.5-0.4,0.9-0.5,1.1c-0.1,0.2-0.4,0.3-0.7,0.3
				c-0.3,0-0.5-0.1-0.7-0.3c-0.2-0.2-0.3-0.4-0.3-0.7c0-0.1,0-0.3,0.1-0.4c0-0.2,0.1-0.4,0.2-0.6l2.7-6.8c0.1-0.2,0.2-0.4,0.3-0.7
				c0.1-0.3,0.2-0.5,0.3-0.7c0.1-0.2,0.3-0.3,0.5-0.4c0.2-0.1,0.4-0.2,0.7-0.2c0.3,0,0.5,0.1,0.7,0.2c0.2,0.1,0.4,0.3,0.5,0.4
				c0.1,0.2,0.2,0.4,0.3,0.6c0.1,0.2,0.2,0.5,0.3,0.8l2.8,6.8c0.2,0.5,0.3,0.9,0.3,1.1c0,0.2-0.1,0.5-0.3,0.7
				c-0.2,0.2-0.4,0.3-0.7,0.3c-0.2,0-0.3,0-0.4-0.1c-0.1-0.1-0.2-0.1-0.3-0.2c-0.1-0.1-0.2-0.3-0.3-0.5
				C83.8,16.6,83.7,16.5,83.7,16.3z M79.4,13.4h3.1L81,9L79.4,13.4z"/>
			<path fill="#FDFBDF" d="M96.8,13.2v2c0,0.3,0,0.5-0.1,0.6c-0.1,0.2-0.1,0.3-0.3,0.4c-0.1,0.1-0.3,0.3-0.5,0.4
				c-0.6,0.3-1.3,0.6-1.8,0.8s-1.2,0.2-1.9,0.2c-0.8,0-1.5-0.1-2.2-0.4c-0.7-0.2-1.2-0.6-1.7-1.1c-0.5-0.5-0.8-1-1.1-1.7
				c-0.3-0.7-0.4-1.4-0.4-2.3c0-0.8,0.1-1.6,0.4-2.2c0.2-0.7,0.6-1.3,1.1-1.7c0.5-0.5,1.1-0.8,1.7-1.1c0.7-0.3,1.5-0.4,2.3-0.4
				c0.7,0,1.3,0.1,1.9,0.3c0.5,0.2,1,0.4,1.3,0.7c0.3,0.3,0.6,0.6,0.8,0.9c0.2,0.3,0.3,0.6,0.3,0.9c0,0.3-0.1,0.5-0.3,0.7
				c-0.2,0.2-0.4,0.3-0.7,0.3c-0.2,0-0.3,0-0.4-0.1c-0.1-0.1-0.3-0.2-0.4-0.3c-0.3-0.4-0.5-0.7-0.7-0.9c-0.2-0.2-0.4-0.4-0.7-0.5
				c-0.3-0.1-0.7-0.2-1.2-0.2c-0.5,0-0.9,0.1-1.3,0.3c-0.4,0.2-0.7,0.4-1,0.7c-0.3,0.3-0.5,0.7-0.6,1.2c-0.1,0.5-0.2,1-0.2,1.6
				c0,1.2,0.3,2.2,0.9,2.9c0.6,0.7,1.4,1,2.4,1c0.5,0,1-0.1,1.4-0.2c0.4-0.1,0.9-0.3,1.3-0.6v-1.7h-1.7c-0.4,0-0.7-0.1-0.9-0.2
				c-0.2-0.1-0.3-0.3-0.3-0.6c0-0.2,0.1-0.4,0.3-0.6c0.2-0.2,0.4-0.2,0.7-0.2h2.4c0.3,0,0.5,0,0.8,0.1c0.2,0.1,0.4,0.2,0.5,0.4
				C96.7,12.6,96.8,12.8,96.8,13.2z"/>
			<path fill="#FDFBDF" d="M105.7,8.6h-4.8v2.6h4.4c0.3,0,0.6,0.1,0.7,0.2c0.2,0.1,0.2,0.3,0.2,0.6c0,0.2-0.1,0.4-0.2,0.6
				c-0.2,0.2-0.4,0.2-0.7,0.2h-4.4v3h5c0.3,0,0.6,0.1,0.8,0.2c0.2,0.2,0.3,0.4,0.3,0.6c0,0.2-0.1,0.5-0.3,0.6
				c-0.2,0.2-0.4,0.2-0.8,0.2h-5.8c-0.5,0-0.8-0.1-1-0.3c-0.2-0.2-0.3-0.5-0.3-1V8.3c0-0.3,0-0.6,0.1-0.8c0.1-0.2,0.2-0.3,0.4-0.4
				C99.6,7,99.8,7,100.1,7h5.6c0.3,0,0.6,0.1,0.8,0.2s0.2,0.3,0.2,0.6c0,0.2-0.1,0.4-0.2,0.6S106.1,8.6,105.7,8.6z"/>
			<path fill="#FDFBDF" d="M114.4,8.1v7.7h4.3c0.3,0,0.6,0.1,0.8,0.3c0.2,0.2,0.3,0.4,0.3,0.6c0,0.3-0.1,0.5-0.3,0.6
				c-0.2,0.2-0.4,0.2-0.8,0.2h-5.2c-0.5,0-0.8-0.1-1-0.3c-0.2-0.2-0.3-0.5-0.3-1V8.1c0-0.4,0.1-0.8,0.3-1c0.2-0.2,0.4-0.3,0.8-0.3
				c0.3,0,0.6,0.1,0.8,0.3C114.3,7.3,114.4,7.6,114.4,8.1z"/>
			<path fill="#FDFBDF" d="M125.1,6.8c1.1,0,2,0.2,2.8,0.7c0.8,0.4,1.4,1.1,1.8,1.9c0.4,0.8,0.6,1.8,0.6,2.9c0,0.8-0.1,1.6-0.3,2.2
				c-0.2,0.7-0.6,1.2-1,1.7c-0.4,0.5-1,0.9-1.6,1.1c-0.6,0.3-1.4,0.4-2.2,0.4c-0.8,0-1.6-0.1-2.2-0.4c-0.7-0.3-1.2-0.6-1.6-1.1
				c-0.4-0.5-0.8-1.1-1-1.7c-0.2-0.7-0.3-1.4-0.3-2.2c0-0.8,0.1-1.6,0.3-2.2c0.2-0.7,0.6-1.3,1-1.7c0.4-0.5,1-0.8,1.6-1.1
				C123.6,6.9,124.3,6.8,125.1,6.8z M128.1,12.2c0-0.8-0.1-1.4-0.4-2c-0.2-0.6-0.6-1-1.1-1.3c-0.5-0.3-1-0.4-1.6-0.4
				c-0.4,0-0.8,0.1-1.2,0.2c-0.4,0.2-0.7,0.4-0.9,0.7c-0.3,0.3-0.5,0.7-0.6,1.2c-0.2,0.5-0.2,1-0.2,1.6c0,0.6,0.1,1.1,0.2,1.6
				c0.2,0.5,0.4,0.9,0.6,1.2s0.6,0.6,0.9,0.7c0.4,0.2,0.7,0.2,1.2,0.2c0.5,0,1-0.1,1.5-0.4c0.5-0.3,0.8-0.7,1.1-1.3
				C128,13.7,128.1,13,128.1,12.2z"/>
			<path fill="#FDFBDF" d="M133.3,8.2l2.4,7.1l2.4-7.1c0.1-0.4,0.2-0.6,0.3-0.8c0.1-0.1,0.2-0.3,0.3-0.4c0.1-0.1,0.3-0.2,0.6-0.2
				c0.2,0,0.4,0,0.5,0.1c0.2,0.1,0.3,0.2,0.4,0.4c0.1,0.2,0.1,0.3,0.1,0.5c0,0.1,0,0.2,0,0.3c0,0.1-0.1,0.2-0.1,0.4
				c0,0.1-0.1,0.2-0.1,0.4l-2.6,6.9c-0.1,0.3-0.2,0.5-0.3,0.8c-0.1,0.2-0.2,0.4-0.3,0.6c-0.1,0.2-0.3,0.3-0.5,0.4
				c-0.2,0.1-0.4,0.2-0.7,0.2c-0.3,0-0.5-0.1-0.7-0.2c-0.2-0.1-0.4-0.3-0.5-0.4c-0.1-0.2-0.2-0.4-0.3-0.6c-0.1-0.2-0.2-0.5-0.3-0.7
				l-2.5-6.8c0-0.1-0.1-0.2-0.1-0.4c0-0.1-0.1-0.2-0.1-0.4c0-0.1,0-0.3,0-0.4c0-0.2,0.1-0.5,0.3-0.7c0.2-0.2,0.4-0.3,0.7-0.3
				c0.4,0,0.6,0.1,0.8,0.3C133,7.3,133.1,7.7,133.3,8.2z"/>
			<path fill="#FDFBDF" d="M148.8,8.6H144v2.6h4.4c0.3,0,0.6,0.1,0.7,0.2c0.2,0.1,0.2,0.3,0.2,0.6c0,0.2-0.1,0.4-0.2,0.6
				c-0.2,0.2-0.4,0.2-0.7,0.2H144v3h5c0.3,0,0.6,0.1,0.8,0.2c0.2,0.2,0.3,0.4,0.3,0.6c0,0.2-0.1,0.5-0.3,0.6
				c-0.2,0.2-0.4,0.2-0.8,0.2h-5.8c-0.5,0-0.8-0.1-1-0.3c-0.2-0.2-0.3-0.5-0.3-1V8.3c0-0.3,0-0.6,0.1-0.8c0.1-0.2,0.2-0.3,0.4-0.4
				c0.2-0.1,0.4-0.1,0.7-0.1h5.6c0.3,0,0.6,0.1,0.8,0.2c0.2,0.2,0.2,0.3,0.2,0.6c0,0.2-0.1,0.4-0.2,0.6
				C149.4,8.5,149.1,8.6,148.8,8.6z"/>
		</g>
	</g>
	<g>
		<path fill="#D94362" d="M27.4,9c-0.3,1.5-0.9,2.8-1.7,4c-1.2,1.9-2.7,3.4-4.3,4.9c-2.3,2.2-4.8,4.2-7.3,6.1
			c-0.2,0.2-0.4,0.2-0.6,0c-2.8-2.2-5.6-4.5-8.2-7c-1.6-1.6-3.1-3.3-4.1-5.3C0.5,10.4,0,9,0,7.5c0-1.8,0.6-3.4,1.8-4.8
			c0.8-0.9,1.7-1.8,2.9-2.2c1.9-0.7,3.8-0.7,5.6,0.2c1.2,0.6,2.1,1.6,2.9,2.7c0.2,0.2,0.3,0.5,0.5,0.8c0.3-0.4,0.5-0.7,0.7-1.1
			c0.8-1,1.7-1.9,2.8-2.5c0.2-0.1,0.4-0.3,0.6-0.2c0,0,0,0,0,0.1c-0.2,1.3-0.1,2.6,0.3,3.8c0.5,1.3,1.3,2.3,2.3,3.3
			C22.1,9,24,9.4,26,9.2C26.5,9.2,26.9,9,27.4,9z"/>
		<path fill="#FDFBDF" d="M27.4,9c-0.5,0-0.9,0.2-1.4,0.2c-2,0.2-3.8-0.2-5.4-1.6c-1-0.9-1.8-2-2.3-3.3c-0.5-1.2-0.6-2.5-0.3-3.8
			c0,0,0,0,0-0.1c0.1,0,0.2,0,0.2,0.1c0.7,0.7,1.4,1.3,2.2,2c0.9,0.8,1.8,1.6,2.7,2.4c0.4,0.4,0.8,0.8,1.3,1.2c1,0.9,2,1.8,3,2.7
			C27.3,8.8,27.4,8.8,27.4,9z"/>
	</g>
</g>
</svg>
