<?xml version="1.0" encoding="utf-8"?>
<!-- Generator: Adobe Illustrator 17.0.0, SVG Export Plug-In . SVG Version: 6.00 Build 0)  -->
<!DOCTYPE svg PUBLIC "-//W3C//DTD SVG 1.1//EN" "http://www.w3.org/Graphics/SVG/1.1/DTD/svg11.dtd">
<svg version="1.1" id="Camada_1" xmlns="http://www.w3.org/2000/svg" xmlns:xlink="http://www.w3.org/1999/xlink" x="0px" y="0px"
	 width="21px" height="17.066px" viewBox="245.5 247.468 21 17.066" enable-background="new 245.5 247.468 21 17.066"
	 xml:space="preserve">
<path id="twitter-icon" fill="#ffffde" d="M266.5,249.488c-0.773,0.343-1.603,0.574-2.474,0.678
	c0.889-0.533,1.573-1.377,1.894-2.384c-0.833,0.494-1.755,0.852-2.736,1.045c-0.786-0.837-1.906-1.36-3.145-1.36
	c-2.781,0-4.825,2.595-4.197,5.29c-3.581-0.18-6.755-1.895-8.88-4.501c-1.129,1.936-0.585,4.47,1.333,5.752
	c-0.706-0.022-1.371-0.216-1.951-0.539c-0.047,1.996,1.384,3.863,3.456,4.279c-0.606,0.165-1.27,0.203-1.946,0.074
	c0.548,1.712,2.139,2.957,4.025,2.992c-1.811,1.419-4.093,2.054-6.379,1.784c1.907,1.222,4.171,1.936,6.604,1.936
	c7.999,0,12.518-6.756,12.246-12.816C265.192,251.111,265.922,250.352,266.5,249.488z"/>
</svg>
