<?xml version="1.0" encoding="utf-8"?>
<!-- Generator: Adobe Illustrator 18.0.0, SVG Export Plug-In . SVG Version: 6.00 Build 0)  -->
<!DOCTYPE svg PUBLIC "-//W3C//DTD SVG 1.1//EN" "http://www.w3.org/Graphics/SVG/1.1/DTD/svg11.dtd">
<svg version="1.1" id="Layer_1" xmlns="http://www.w3.org/2000/svg" xmlns:xlink="http://www.w3.org/1999/xlink" x="0px" y="0px"
	 width="25.2px" height="15.9px" viewBox="0 0 25.2 15.9" enable-background="new 0 0 25.2 15.9" xml:space="preserve">
<g>
	<path fill="#FEFBDF" d="M10.2,7.1c0,0,2.4-0.2,2.4-3c0-2.8-1.9-4.2-4.4-4.2L3.6,0L3.4,0L0,0l0,15.6l3.4,0h0.1l4.5,0
		c0,0,5,0.2,5-4.6C13.1,11,13.3,7.1,10.2,7.1z M3.6,2.8l4,0l0.6,0c0,0,1.1,0,1.1,1.6c0,1.6-0.7,1.9-1.4,1.9l-4.3,0L3.6,2.8L3.6,2.8z
		 M7.9,12.8c-0.1,0-0.2,0-0.3,0l-4,0l0-4.2l4.5,0c0,0,1.6,0,1.6,2.1C9.8,12.6,8.5,12.8,7.9,12.8z"/>
	<path fill="#FEFBDF" d="M19.7,4c-6,0-6,6-6,6s-0.4,6,6,6c0,0,5.3,0.3,5.3-4.2l-2.7,0c0,0,0.1,1.7-2.5,1.7c0,0-2.7,0.2-2.7-2.7
		l8.1,0C25.1,10.7,26,4,19.7,4z M17,8.7c0,0,0.3-2.4,2.7-2.4c2.4,0,2.4,2.4,2.4,2.4L17,8.7z"/>
	<rect x="16.3" y="0.9" fill="#FEFBDF" width="6.4" height="1.9"/>
</g>
</svg>
