<?xml version="1.0" encoding="utf-8"?>
<!-- Generator: Adobe Illustrator 16.0.3, SVG Export Plug-In . SVG Version: 6.00 Build 0)  -->
<svg version="1.2" baseProfile="tiny" id="Layer_1" xmlns="http://www.w3.org/2000/svg" xmlns:xlink="http://www.w3.org/1999/xlink"
	 x="0px" y="0px" width="500px" height="384px" viewBox="0 0 500 384" xml:space="preserve">
<polygon fill="#00AC9F" points="253.323,49.682 334.497,37 334.497,3.176 165.382,3.176 165.382,37 246.556,49.682 "/>
<polygon points="257.128,342.248 281.646,326.182 281.646,117.327 254.589,3.176 245.287,3.176 218.231,117.327 218.231,326.182 
	242.751,342.248 "/>
<rect x="247.401" y="3.176" fill="#00AC9F" width="5.074" height="79.484"/>
<polygon fill="#00AC9F" points="56.728,178.209 8.531,178.209 8.531,236.55 56.728,240.357 "/>
<polygon fill="#00AC9F" points="443.148,178.209 491.345,178.209 491.345,236.55 443.148,240.357 "/>
<rect x="246.795" y="350.617" fill="#00AC9F" width="6.286" height="29.582"/>
<rect x="217.59" y="339.156" fill="#00AC9F" width="64.696" height="21.074"/>
<polygon points="443.148,178.209 273.188,178.209 266.427,254.307 443.148,240.354 "/>
<polygon points="56.728,240.354 233.449,254.307 226.688,178.209 56.728,178.209 "/>
</svg>
