<?xml version="1.0" encoding="utf-8"?>
<!-- Generator: Adobe Illustrator 16.0.3, SVG Export Plug-In . SVG Version: 6.00 Build 0)  -->
<svg version="1.2" baseProfile="tiny" id="Layer_1" xmlns="http://www.w3.org/2000/svg" xmlns:xlink="http://www.w3.org/1999/xlink"
	 x="0px" y="0px" width="600px" height="425px" viewBox="0 0 600 425" xml:space="preserve">
<path fill="#EFEFEF" d="M483.832,169.507c-18.705,0-36.293,4.773-51.636,13.139c2.932-9.891,4.526-20.36,4.526-31.207
	c0-60.586-49.115-109.702-109.701-109.702c-56.235,0-102.56,42.322-108.928,96.851c-21.445-14.373-47.23-22.768-74.985-22.768
	c-74.492,0-134.874,60.385-134.874,134.87c0,74.483,60.381,134.865,134.874,134.865h340.723
	c59.659,0,108.023-48.361,108.023-108.024C591.855,217.871,543.491,169.507,483.832,169.507z"/>
</svg>
