<?xml version="1.0" encoding="utf-8"?>
<!-- Generator: Adobe Illustrator 16.0.3, SVG Export Plug-In . SVG Version: 6.00 Build 0)  -->
<svg version="1.2" baseProfile="tiny" id="Layer_1" xmlns="http://www.w3.org/2000/svg" xmlns:xlink="http://www.w3.org/1999/xlink"
	 x="0px" y="0px" width="600px" height="425px" viewBox="0 0 600 425" xml:space="preserve">
<path fill="#FEFEFE" d="M489.99,191.917c-8.086,0-15.939,0.975-23.479,2.753c0.093-2.152,0.166-4.305,0.166-6.486
	c0-87.559-70.981-158.541-158.541-158.541c-82.602,0-150.419,63.178-157.839,143.844c-9.439-2.563-19.362-3.955-29.614-3.955
	c-62.324,0-112.845,50.525-112.845,112.844c0,62.324,50.521,112.845,112.845,112.845H489.99
	c56.142,0,101.658-45.508,101.658-101.654C591.648,237.429,546.132,191.917,489.99,191.917z"/>
</svg>
