<?xml version="1.0" encoding="utf-8"?>
<!-- Generator: Adobe Illustrator 16.0.3, SVG Export Plug-In . SVG Version: 6.00 Build 0)  -->
<svg version="1.2" baseProfile="tiny" id="Layer_1" xmlns="http://www.w3.org/2000/svg" xmlns:xlink="http://www.w3.org/1999/xlink"
	 x="0px" y="0px" width="600px" height="425px" viewBox="0 0 600 425" xml:space="preserve">
<path fill="#D4D4D4" d="M451.087,85.615c-21.241,0-41.368,4.714-59.441,13.11c-15.041-54.038-64.571-93.704-123.4-93.704
	c-70.752,0-128.109,57.354-128.109,128.109c0,3.525,0.182,7.002,0.46,10.456c-7.704-1.71-15.698-2.637-23.917-2.637
	c-60.786,0-110.065,49.276-110.065,110.063c0,60.789,49.279,110.067,110.065,110.067c14.499,0,28.33-2.83,41.006-7.926
	c26.706,40.29,72.438,66.868,124.394,66.868c49.164,0,92.762-23.795,119.935-60.487c15.289,5.66,31.816,8.762,49.073,8.762
	c78.06,0,141.339-63.28,141.339-141.342C592.426,148.895,529.146,85.615,451.087,85.615z"/>
</svg>
