<?xml version="1.0" encoding="utf-8"?>
<!-- Generator: Adobe Illustrator 16.0.3, SVG Export Plug-In . SVG Version: 6.00 Build 0)  -->
<svg version="1.2" baseProfile="tiny" id="Layer_1" xmlns="http://www.w3.org/2000/svg" xmlns:xlink="http://www.w3.org/1999/xlink"
	 x="0px" y="0px" width="490px" height="250px" viewBox="0 0 490 250" xml:space="preserve">
<polygon fill="#00AC9F" points="103.952,79.495 30.937,2.52 2.436,2.52 2.436,79.495 "/>
<path d="M419.955,79.172h-56.689c-6.344,14.506-20.805,24.657-37.652,24.657c-16.847,0-31.307-10.151-37.654-24.657H2.436v16.717
	l150.379,65.382h267.14l19.614-29.422v-23.256L419.955,79.172z"/>
<rect x="227.072" y="115.178" fill="#00AC9F" width="96.208" height="7.354"/>
<g>
	<rect x="355.711" y="156.17" width="6.441" height="56.044"/>
</g>
<g>
	<rect x="355.711" y="156.17" width="6.441" height="56.044"/>
</g>
<g>
	<rect x="356.481" y="156.17" width="6.447" height="56.044"/>
</g>
<g>
	
		<rect x="313.458" y="181.382" transform="matrix(-0.3862 -0.9224 0.9224 -0.3862 306.9727 573.4763)" width="61.663" height="6.446"/>
</g>
<path d="M381.492,225.195c0,12.033-9.752,21.787-21.783,21.787c-12.035,0-21.791-9.754-21.791-21.787
	c0-12.034,9.756-21.786,21.791-21.786C371.74,203.409,381.492,213.161,381.492,225.195z"/>
<rect x="449.377" y="116.25" fill="#00AC9F" width="37.362" height="7.94"/>
<rect x="434.898" y="79.36" fill="#00AC9F" width="26.62" height="81.728"/>
</svg>
