<?xml version="1.0" encoding="utf-8"?>
<!-- Generator: Adobe Illustrator 16.0.3, SVG Export Plug-In . SVG Version: 6.00 Build 0)  -->
<svg version="1.2" baseProfile="tiny" id="Layer_1" xmlns="http://www.w3.org/2000/svg" xmlns:xlink="http://www.w3.org/1999/xlink"
	 x="0px" y="0px" width="418px" height="418px" viewBox="0 0 418 418" xml:space="preserve">
<g>
	<rect x="-4.551" y="-4.901" fill="#D71922" width="427.551" height="427.548"/>
	<path fill="#FFFFFF" d="M373.772,114.902c-12.016-10.403-33.314-6.434-57.04,9.119c-23.702,15.558-37.085,31.321-50.457,40.385
		c-10.867,9.458-23.616,8.854-23.616,8.854l-0.176,0.096c-14.858-13.861-37.441-17.474-56.345-7.329
		c-19.139,10.283-28.618,31.522-24.879,51.805h-0.011c0,0-0.458,6.659-11.207,13.361c-0.765,0.471-97.739,53.869-97.739,53.869
		s-3.103,1.729-6.8,5.232c-5.557,6.056-4.477,9.407-0.823,12.556c12.019,10.397,33.319,6.434,57.04-9.123
		c23.7-15.553,37.077-31.309,50.455-40.377c10.878-9.452,23.622-8.852,23.622-8.852h0.015c14.859,13.983,37.546,17.658,56.493,7.468
		c19.222-10.315,28.701-31.675,24.853-52.021l0.032-0.021c0,0,0.475-6.667,11.224-13.361c0.76-0.473,97.745-53.877,97.745-53.877
		s3.087-1.725,6.783-5.229C378.49,121.394,377.413,118.043,373.772,114.902z M214.28,218.4c-5.187,2.783-11.659,0.837-14.453-4.357
		c-2.783-5.182-0.837-11.66,4.357-14.437c5.181-2.789,11.644-0.842,14.431,4.341C221.405,209.137,219.464,215.611,214.28,218.4z"/>
</g>
</svg>
