<?xml version="1.0" encoding="utf-8"?>
<!-- Generator: Adobe Illustrator 16.0.3, SVG Export Plug-In . SVG Version: 6.00 Build 0)  -->
<svg version="1.2" baseProfile="tiny" id="Layer_1" xmlns="http://www.w3.org/2000/svg" xmlns:xlink="http://www.w3.org/1999/xlink"
	 x="0px" y="0px" width="1000px" height="72px" viewBox="0 0 1000 72" xml:space="preserve">
<path fill="#D71922" d="M60.826,21.808c1.207-3.925,1.811-7.338,1.811-10.232C62.637,3.856,58.044,0,48.88,0H12.985L8.816,7.006
	h38.229c5.352,0,8.026,2.083,8.026,6.251c0,2.368-0.616,5.494-1.834,9.382l-3.002,9.009H25.323l-4.236,7.134h26.97l-4.444,15.1
	h7.382l4.432-15.1h13.197l4.177-7.134h-15.14C59.615,25.567,60.662,22.293,60.826,21.808z"/>
<path fill="#D71922" d="M360.877,43.223c0-1.312,0.28-2.874,0.871-4.696c0.631-1.996,1.111-3.497,1.439-4.51
	c0.636-2.15,2.63-3.226,5.979-3.226l2.23-7.008h-21.379l1.627-5.456L343.835,20l-8.01,26.876h-52.481
	c-3.293,0-4.94-1.323-4.94-3.973c0-1.6,0.439-3.642,1.299-6.119l2.114-5.994h12.706l-12.198,9.019l4.245,5.075l10.739-7.887
	c2.862-2.111,4.285-4.453,4.285-7.019c0-2.068-0.775-3.645-2.33-4.744c-1.359-0.967-3.109-1.453-5.228-1.453h-17.438
	c-1.982,5.897-3.093,9.243-3.357,10.036c-1.535,4.712-2.298,8.213-2.298,10.491c0,0.924,0.127,1.767,0.343,2.566h-32.541
	c-4.604,0-8.841,0.543-12.726,1.618l7.418-24.712h-19.329c-6.458,0-10.527,2.748-12.222,8.262c-1.175,3.593-2.09,6.297-2.729,8.085
	c-0.859,2.622-1.291,4.8-1.467,6.747c-25.155-0.017-37.969-0.08-38.345-0.2l-0.364-0.688c0.372-2.565,1.355-6.255,2.93-11.051
	l3.657-11.155h-6.846c-1.946,3.27-5.224,7.648-9.808,13.125c-5.563,6.647-9.304,9.969-11.211,9.969l-0.56-0.4
	c0.176-1.975,1.147-5.699,2.926-11.177l3.753-11.517h-7.338l-6.087,20.527c-0.26,0.899-0.42,1.742-0.524,2.566H92.916
	c-0.983,0-1.475-0.32-1.475-0.951l12.466-41.619h-7.322L84.311,44.941c-0.343,1.159-0.523,2.25-0.523,3.285
	c0,3.772,2.311,5.655,6.938,5.655h43.72l0.064-0.107c0.264,0.023,0.472,0.107,0.76,0.107c4.632,0,10.523-3.969,17.701-11.906
	c-0.835,2.894-1.255,4.7-1.255,5.424c0,4.324,3.098,6.482,9.28,6.482h41.091l0.064-0.107c0.264,0.023,0.463,0.107,0.755,0.107
	c5.063,0,10.995-3.921,17.766-11.778l-2.762,8.885c-10.356,4.213-16.687,11.219-18.985,21.019h14.752
	c2.039,0,3.589-0.384,4.652-1.135c1.071-0.752,1.867-2.086,2.414-3.988l3.149-10.983c4.516-1.347,9.696-2.019,15.551-2.019h31.754
	l2.079-3.425c0.384,0.403,0.799,0.803,1.283,1.154c2.123,1.515,4.816,2.271,8.094,2.271h55.586l0.152-0.252
	c0.42-0.063,0.783-0.144,1.015-0.239c1.423-0.592,2.482-2.079,3.182-4.448l5.379-18.152h8.821l-2.102,6.583
	c-0.808,2.652-1.219,4.942-1.219,6.868c0,3.338,1.311,5.836,3.921,7.502c2.186,1.432,5.04,2.139,8.549,2.139h40.826l4.241-7.006
	h-45.331C362.476,46.876,360.877,45.66,360.877,43.223z M214.908,62.927c-0.651,1.866-1.694,2.789-3.121,2.789h-3.153
	c1.291-2.773,3.761-5.195,7.397-7.262L214.908,62.927z M214.657,39.901c-4.876,4.648-7.99,6.975-9.356,6.975l0,0l-0.324-0.456
	c1.367-4.916,2.666-9.261,3.921-13.035c0.567-1.731,1.71-2.594,3.413-2.594h10.927C221.767,32.787,218.901,35.818,214.657,39.901z"
	/>
<path fill="#D71922" d="M651.517,3.385C648.151,1.129,643.619,0,637.896,0h-45.067l-3.413,7.006H637.2
	c8.497,0,12.733,3.026,12.733,9.081c0,5.262-2.158,10.383-6.482,15.365c-3.701,4.254-8.449,7.84-14.221,10.755
	c-6.011,3.026-11.734,4.581-17.186,4.677l10.631-35.439h-7.41l-12.598,42.438c7.722,0,13.677-0.512,17.866-1.547
	c9.36-2.302,17.585-6.566,24.667-12.797c8.202-7.213,12.311-15.204,12.311-23.979C657.512,10.1,655.505,6.041,651.517,3.385z"/>
<polygon fill="#D71922" points="823.12,4.308 815.767,4.308 812.449,15.195 819.795,15.195 "/>
<path fill="#D71922" d="M949.961,46.876c-3.421,0-5.14-0.939-5.14-2.83c0-1.887,0.712-4.612,2.126-8.189
	c1.407-3.575,2.118-6.311,2.118-8.193c0-2.586-1.822-3.881-5.459-3.881h-22.766l-2.174,7.008h5.595l-4.756,16.085H890.13
	c-4.604,0-8.841,0.543-12.726,1.618l0.352-1.163l7.066-23.549h-19.328c-6.451,0-10.535,2.754-12.214,8.255
	c-1.184,3.599-2.095,6.295-2.734,8.091c-0.871,2.654-1.303,4.856-1.479,6.811l-5.531,0.04c-9.257,0.06-16.227,0.072-20.911,0.023
	c-7.234-0.06-11.063-0.224-11.479-0.487c-0.288-0.64-0.384-1.095-0.304-1.379l6.419-21.354h-7.378l-6.26,21.15
	c-0.199,0.68-0.319,1.319-0.407,1.943h-36.299c1.159-1.535,1.743-3.422,1.743-5.66c0-1.706-0.871-4.309-2.63-7.791
	c-1.759-3.495-2.63-5.74-2.63-6.747c0-1.824,1.063-4.022,3.197-6.61h-8.657l-19.192,26.809h-53.972c-3.293,0-4.94-1.323-4.94-3.973
	c0-1.6,0.44-3.642,1.295-6.123l2.119-5.99h12.701l-12.198,9.019l4.253,5.075l10.735-7.887c2.861-2.111,4.292-4.453,4.292-7.019
	c0-2.068-0.783-3.649-2.334-4.744c-1.358-0.969-3.109-1.453-5.235-1.453h-17.434c-1.975,5.905-3.094,9.243-3.357,10.03
	c-1.535,4.718-2.303,8.219-2.303,10.497c0,3.134,1.207,5.567,3.621,7.307c2.135,1.51,4.82,2.266,8.098,2.266h51.638h1.711h2.238
	l0.104-0.164c0.728-0.115,1.352-0.283,1.862-0.52c1.199-0.567,2.438-1.734,3.678-3.505l12.613-17.855
	c0.176,1.005,0.848,2.718,2.038,5.132c1.079,2.196,1.615,3.902,1.615,5.13c0,2.242-0.976,3.677-2.95,4.313
	c-0.975,0.312-2.901,0.464-5.795,0.464l-2.966,7.006h58.265l0.12-0.195c0.552,0.071,1.047,0.195,1.679,0.195h43.765l0.039-0.076
	c0.2,0.017,0.336,0.076,0.552,0.076c5.061,0,10.983-3.925,17.762-11.778l-2.766,8.885c-10.352,4.213-16.675,11.219-18.977,21.019
	h14.748c2.038,0,3.581-0.384,4.66-1.127c1.055-0.76,1.862-2.094,2.414-3.996l3.142-10.983c4.516-1.347,9.704-2.019,15.547-2.019
	h26.587h5.18h2.15l6.946-23.091h9.488c-1.207,3.467-2.015,5.812-2.406,7.037c-0.943,2.877-1.415,5.327-1.415,7.37
	c0,3.181,1.431,5.507,4.309,6.978c2.222,1.144,5.067,1.707,8.553,1.707h36.778l4.188-7.006H949.961z M866.293,62.927
	c-0.655,1.866-1.702,2.806-3.117,2.806h-3.165c1.295-2.79,3.765-5.212,7.41-7.278L866.293,62.927z M866.029,39.901
	c-4.859,4.648-7.978,6.975-9.336,6.975l-0.328-0.456c1.367-4.916,2.662-9.261,3.917-13.027c0.567-1.739,1.703-2.602,3.413-2.602
	h10.928C873.151,32.787,870.29,35.818,866.029,39.901z"/>
</svg>
