<?xml version="1.0" encoding="utf-8"?>
<!-- Generator: Adobe Illustrator 16.0.3, SVG Export Plug-In . SVG Version: 6.00 Build 0)  -->
<svg version="1.2" baseProfile="tiny" id="Layer_1" xmlns="http://www.w3.org/2000/svg" xmlns:xlink="http://www.w3.org/1999/xlink"
	 x="0px" y="0px" width="1000px" height="1000px" viewBox="0 0 1000 1000" xml:space="preserve">
<path d="M695.049,204.51c-2.272-18.942-18.729-31.843-31.443-37.884c-15.154-7.198-23.109-17.048-89.027-17.427
	c-70.101-0.402-82.967,0.379-118.199,6.819c-35.232,6.44-84.986,17.048-111.126,37.505c-26.14,20.458-40.536,41.672-42.43,52.28
	c-1.894,10.607,11.491,132.973,20.962,146.99c9.471,14.017,35.232,40.536,65.918,46.219s83.345,1.894,93.573,0.378
	c10.229-1.515,60.994-2.273,72.359-18.563s27.276-21.594,28.792-46.218c1.516-24.625,5.729-54.316,22.352-53.038
	c14.774,1.137,18.185,18.942,19.699,28.792c6.819,6.819,9.851,20.458,6.44,26.898c-3.409,6.44-2.651,13.638-2.272,17.805
	c0.379,4.167,4.173,21.632,9.471,28.034c9.092,10.986,31.064,21.215,40.536,22.352c9.471,1.137,40.536-5.304,40.536-26.897
	s-4.926-27.276-4.168-30.686s-1.515-7.956,2.652-9.092s19.856-4.451,21.372-10.892c0.343-1.456-21.751-30.402-21.751-30.402
	L695.049,204.51z"/>
<path fill="#FFFFFF" d="M737.73,372.146c1.447-0.884,3.273-2.449,3.789-4.641c1.515-6.44,3.03-17.9-0.379-18.279
	c-3.41-0.379-3.41-0.379-3.41-0.379l-12.123-107.591c4.547-11.744,6.062-14.396,4.926-18.563
	c-1.137-4.167,1.515-9.092-12.881-13.259c-14.396-4.167-22.73-5.683-22.73-5.683c-20.457-4.925-42.693-7.79-57.963,5.683
	c-12.881,11.365-2.64,33.592,4.546,56.826c9.22,29.803,21.713,70.256,44.703,80.82c18.69,8.586,31.462,12.307,41.294,14.648
	C735.458,363.623,743.932,367.213,737.73,372.146z"/>
<path d="M479.741,27.97c-23.109-11.365-17.427-7.198-28.413-11.744c-10.986-4.546-13.259-10.986-41.672-9.85
	c-28.413,1.137-72.358,17.806-84.86,25.761c-12.502,7.956-16.291,18.563-32.202,11.365c-15.911-7.198-40.915,9.85-44.703,20.836
	s-4.925,9.85-14.017,14.775s-30.686,21.973-35.99,31.444s-5.304,7.956-9.85,11.744c-4.546,3.788-32.58,36.369-54.932,94.71
	s-14.775,54.932-13.638,71.601c1.275,18.701,6.819,32.959,8.334,38.263c1.515,5.304-3.031,6.819,1.136,20.457
	c4.167,13.638,0,16.669,7.198,26.14c-11.744,13.638-15.784,21.215-16.92,32.201c-1.137,10.987,2.02,23.362,6.566,43.441
	c4.546,20.079,12.249,34.601,19.447,39.525c7.198,4.925,9.471,7.577,9.471,12.501s-5.683,52.28,10.986,84.86
	c8.656,16.918,20.458,34.096,26.14,40.536s46.597,57.205,53.417,76.146c3.741,10.392,17.427,47.355,24.625,57.584
	s18.563,32.201,31.823,32.58c13.259,0.379,29.17-10.986,38.263-23.867c9.092-12.88,24.625-23.108,22.73-40.156
	s-16.29-56.826-25.761-79.936s-7.956-52.28-7.956-73.874s1.894-98.12,0-111c-1.894-12.881-4.167-75.011-6.062-90.922
	c-1.894-15.911-8.334-82.966-12.123-101.908c-3.788-18.942,4.546-46.976,8.335-57.583c3.788-10.607,8.334-17.805,10.986-22.73
	C332.751,185.947,479.741,27.97,479.741,27.97z"/>
<path d="M494.895,192.766c-20.832,0.548-51.901-2.652-76.905,6.061c-25.003,8.713-56.826,21.973-70.085,53.795
	c-13.259,31.823-3.41,74.253,10.986,93.953s44.325,26.519,84.103,22.352c39.778-4.167,90.921-10.986,104.559-22.73
	c13.639-11.744,34.572-51.415,39.778-96.983c3.031-26.519-9.471-51.522-40.536-54.553
	C515.73,191.629,509.29,192.387,494.895,192.766z"/>
<path d="M720.053,240.753c0,0,11.237-13.954,11.237-15.975c0-2.021-15.532-6.756-35.231-11.555
	c-19.7-4.798-40.604-7.337-48.743-1.768c-4.798,3.284-12.008,10.425-3.534,38.389c10.102,33.338,21.719,63.645,35.611,78.293
	c8.861,9.345,35.483,20.205,62.884,21.973c-0.174-0.798-5.872-5.241-5.872-5.241L720.053,240.753z"/>
<path fill="#FFFFFF" d="M424.81,359.834c23.475-3.13,20.058-5.78,32.327-5.683c15.911,0.126,62.131-1.01,81.324-9.471
	c25.115-11.07,32.959-34.853,39.021-51.901s15.535-54.301-0.124-78.041c-15.66-23.741-65.667-19.194-88.903-18.185
	c-15.214,0.662-41.925,1.011-50.007,2.526c-8.082,1.515-50.771,10.458-73.242,35.358c-18.69,20.71-22.226,50.007-12.629,80.314
	C365.409,355.278,396.396,363.623,424.81,359.834z"/>
<path d="M596.551,322.834c8.586,7.577,31.316,28.666,34.347,31.696C628.373,341.398,621.048,308.187,596.551,322.834z"/>
<path d="M600.591,390.521c-1.516-1.894-22.672-0.679-24.246,4.042c-2.019,6.062,4.043,6.061,6.062,2.02
	C584.428,392.541,602.105,392.415,600.591,390.521z"/>
<path d="M622.185,392.036c-2.146-0.505-5.935,3.536-3.913,6.062c2.019,2.526,5.053,0.505,4.04-1.01
	C621.303,395.572,624.333,392.541,622.185,392.036z"/>
<path d="M616.25,453.156c-6.062,2.02-6.564-3.032-13.638-2.021c-7.071,1.011-14.647,1.517-26.771,9.599
	c-12.123,8.081-53.417,18.814-53.544,20.709c-0.127,1.894,31.822-6.063,38.391-9.092c6.564-3.029,25.239-6.566,35.356-6.566
	c6.567,0,13.132-1.011,18.184-1.515c5.053-0.505,13.337-3.108,18.185,3.535c10.229,14.017,16.924,14.145,17.175,13.134
	c0.252-1.011-2.643-0.896-3.436-1.848c-2.584-3.093-1.972-9.293-3.132-14.316c-0.816-3.548-7.577-16.164-13.638-15.153
	C623.321,450.63,620.796,451.641,616.25,453.156z"/>
<path d="M616.25,487.503c-15.165-0.96-19.448,2.273-26.267,5.683c-9.148,4.574-16.29,15.912-11.744,13.638
	c8.471-4.235,17.048-5.304,35.61-5.683c27.662-0.563,32.202,10.986,35.232,22.352c1.714,6.42,2.273,7.198,2.273,2.652
	C651.355,515.525,646.179,489.398,616.25,487.503z"/>
<path d="M886.49,965.853c-1.515-6.062-7.073-19.701-11.619-30.309s-11.617-44.45-14.647-57.583
	c-3.031-13.134-13.133-59.1-15.66-73.242c-2.524-14.143-12.626-38.894-12.626-38.894s7.577-4.546,20.709-19.699
	c13.135-15.154,10.607-45.968,5.052-65.667c-5.558-19.699-27.782-84.354-51.019-138.402
	c-23.233-54.048-68.694-114.157-87.385-138.908c10.102,34.854-24.752,40.409-38.77,41.546c0,0,10.483,26.646-0.63,57.962
	c-6.064,17.089-11.617,39.399-32.329,58.09c0,0-3.533,11.112-19.193,23.739c-14.142,11.404-24.577,10.039-41.35,9.667
	c-12.229-2.448-50.708-8.168-81.395-14.213c-33.339-6.567-88.901-16.669-114.664-39.397c-25.763-22.729-35.862-103.046-33.336-118.2
	c0,0-30.309-39.399-32.327-34.853c-2.021,4.546-4.043,151.536-2.021,163.659s1.009,24.246,13.638,42.431
	c12.629,18.184,26.266,100.52,34.349,117.693s16.669,40.41,20.709,35.357c4.04-5.052,4.042-65.665,6.568-97.992
	c2.526-32.327,46.976-59.604,93.447-50.007c46.473,9.599,37.632,49.753,42.681,50.259c5.053,0.506,8.9-26.799,25.004-28.539
	c37.378-4.041,87.891,61.119,97.995,74.251c10.102,13.133,26.265,30.308,40.409,60.615c14.145,30.307,31.822,45.967,42.43,48.491
	s26.268,0.505,45.461-12.123c8.083,7.072,16.163,35.864,20.709,52.028s14.145,55.058,17.175,73.748
	c3.031,18.69,13.136,48.996,19.703,60.108s21.718,19.195,31.316,13.639C884.469,985.551,888.006,971.914,886.49,965.853z"/>
<path fill="#FFFFFF" d="M822.277,820.292c-5.398-1.962-5.686,22.738,4.058,21.925C836.078,841.402,831.21,823.541,822.277,820.292z"
	/>
<path fill="#FFFFFF" d="M845.155,903.725c-10.702,1.527-6.84,23.075,3.419,22.222C858.829,925.092,851.137,902.871,845.155,903.725z
	"/>
<path d="M571.799,70.021c-11.89-15.547-39.778-48.112-97.74-43.566c-57.962,4.546-101.908,17.427-128.048,65.161
	c-26.14,47.734-73.116,101.529-65.918,135.246c21.594-8.713,54.932-33.717,67.055-45.46c12.123-11.744,71.646-42.7,93.573-54.553
	c28.034-15.153,96.604-23.109,121.986-13.638c25.382,9.471,46.218,31.065,49.249,34.853c12.122,2.652,16.417,2.525,23.109,4.546
	c-9.851-18.563-29.47-36.209-32.202-41.672C595.287,95.783,576.724,76.462,571.799,70.021z"/>
<path fill="#FFFFFF" d="M276.81,358.193c-20.206,8.587-34.853,12.123-50.007,27.276c-15.153,15.154-15.66,24.75-21.215,6.566
	c-5.557-18.184-10.559-58.063-9.092-61.119c8.396-17.49,56.573-54.049,70.211-52.533c-8.319,7.746-6.693,12.123-16.354,15.911
	c-6.486,2.543-17.616,10.04-25.003,15.533c-14.014,10.42-17.995,18.311-18.752,23.867c-0.758,5.556,1.136,20.458,4.546,34.096
	s5.683,12.881,10.607,7.577c4.925-5.304,27.277-21.215,42.43-25.761C279.335,345.06,276.81,358.193,276.81,358.193z"/>
<path d="M436.175,208.172c-10.769,2.393-36.012,9.782-56.068,27.024c-21.594,18.563-26.14,56.068-13.26,82.587
	c13.078,26.925,32.678,34.616,57.205,30.307c18.689-3.283,21.72-5.304,27.276-6.567c3.768-0.856,11.247-0.119,27.53-0.758
	c19.321-0.757,41.924-1.515,57.584-6.819c16.187-5.483,34.895-27.333,39.523-79.43c4.546-51.143-37.251-48.997-68.315-47.86
	c-16.014,0.586-33.592,1.011-46.977,1.011C447.015,207.667,439.584,207.414,436.175,208.172z"/>
<path fill="#FFFFFF" d="M374.045,251.865c4.764-12.021,30.307-30.686,62.887-37.884c22.73,1.894,96.731-7.45,116.682,3.536
	c13.739,7.565,17.64,17.997,17.048,33.969c-0.758,20.457-9.85,63.266-32.201,75.768c-9.622,5.382-28.641,7.385-45.46,7.956
	c-22.352,0.757-42.43-0.758-42.43-0.758c-20.078,6.819-43.615,11.962-59.478,2.652C373.666,326.875,358.134,292.022,374.045,251.865
	z"/>
<path d="M436.175,210.95c0.416,10.861,14.356,122.394,14.774,126.154c-7.938,5.012-50.863,15.829-67.457,1.078
	c-22.56-20.052-23.05-71.286-11.72-89.348C385.142,227.53,419.882,214.71,436.175,210.95z"/>
<path fill="#FFFFFF" d="M724.472,227.619c0,0-54.554-18.563-70.086-12.88s-6.062,29.802-2.272,41.925
	c3.788,12.123,18.184,57.331,37.632,71.474c17.166,12.486,42.555,16.417,47.479,17.174L724.472,227.619z"/>
<path fill="#FFFFFF" d="M718.916,379.155c-2.273-5.809-20.318-12.983-34.223-18.689c-16.921-6.945-24.385-11.292-32.832-28.792
	c-7.07-14.649-25.255-69.203-31.065-92.438c-2.583-10.325-6.798-20.311-0.757-28.287c6.313-8.334,13.034-12.123,11.871-12.123
	c-0.379,0-9.978,3.662-16.545,11.871c-4.969,6.213-4.04,15.28-2.651,21.846c3.895,18.401,10.479,41.118,14.901,55.438
	c5.304,17.173,16.137,53.453,27.025,67.18c9.66,12.181,15.656,12.629,28.537,17.68c8.204,3.217,33.717,12.755,34.602,18.185
	C718.916,389.132,718.916,379.155,718.916,379.155z"/>
<path fill="#FFFFFF" d="M347.147,181.401c-9.906,9.597-33.978,28.046-54.232,39.227c-4.533,2.501-9.792,5.729-12.57,4.213
	c-2.778-1.515-1.191-8.624-0.064-14.543c6.331-33.268,43.537-78.16,65.729-118.683c26.14-47.734,70.047-61.145,128.048-65.161
	c16.417-1.137,12.881-7.45-0.758-6.44c-13.638,1.01-68.444,2.526-97.741,22.73c-29.296,20.205-34.852,40.41-53.038,68.191
	c-18.186,27.781-64.571,92.425-65.16,121.229c-0.506,24.751,9.921,15.61,17.426,12.881c16.669-6.062,30.559-16.164,38.642-21.215
	C321.513,218.779,347.147,181.401,347.147,181.401z"/>
<path fill="#FFFFFF" d="M520.279,361.678c-23.237,6.567-99.005,18.614-126.282,15.204s-41.293-19.7-50.007-40.915
	c-8.713-21.215-9.989-51.111-5.557-66.676c4.926-17.3,14.339-29.615,17.931-33.59c1.769-1.957,1.872-4.682,0.253-3.347
	c-11.934,9.85-21.199,22.671-27.276,35.611c-5.872,12.501-16.946,20.17-25.572,14.774s-17.024-1.401-22.541,0.568
	c-3.535,1.262-0.377-15.027-5.934-16.038c-2.495-0.454-22.314,4.48-26.772,10.607c-4.042,5.556-4.848,26.685-2.527,39.652
	c5.558,31.065,10.104,42.936,11.113,44.956s4.043,6.313,9.598,5.809c5.556-0.506,23.786-8.547,25.255-10.354
	c3.284-4.041-3.536-17.931-1.009-19.952c4.462-3.57,13.347-5.55,17.817-12.025s8.259-6.665,12.805-4.959
	c4.356,17.995,7.698,26.454,12.88,36.937c16.479,33.338,44.135,33.717,79.746,29.549c39.957-4.675,87.893-17.174,106.58-24.246
	C530.44,359.591,527.714,359.577,520.279,361.678z M302.065,317.215c-1.363,1.317-12.502,7.766-13.639,6.251
	c0,0-7.427-27.584-5.304-28.981c14.396-9.471,17.427-3.347,19.321,0.568C304.458,299.216,305.854,313.553,302.065,317.215z"/>
<path d="M493.736,123.282c17.519-4.172,61.465-7.231,85.867,9.943c24.405,17.173,9.042,11.75-3.614,11.75
	c-23.955,0.001-37.514-0.452-49.714,0c-9.21,0.341-32.801-17.988-75.925-3.616c-8.136,2.712-5.424-2.711,4.518-6.327
	C464.811,131.418,474.753,127.801,493.736,123.282z"/>
<g>
	<path fill="#FFFFFF" d="M116.813,427.268l-0.587-12.603C115.47,418.499,115.435,422.583,116.813,427.268z"/>
	<path fill="#FFFFFF" d="M208.113,396.835c-0.253,3.031-10.878,1.492-14.396-1.769s-9.372-39.867-6.44-44.893
		c2.652-4.546,9.377-4.056,10.607-3.031c3.031,2.526,1.437-4.151,1.136-8.65c-16.018,3.618-13.947,8.148-23.739,10.103
		c-10.104,2.02-21.975,5.809-32.329,14.144c-7.005,5.639-19.698,12.123-27.781,29.296l2.588,22.73
		c1.322-6.705,1.662-13.553,4.925-20.079c7.956-15.911,30.98-29.585,37.694-33.717c7.373-4.536,12.313-4.239,13.449-0.378
		c1.137,3.861,1.524,8.739,1.705,16.29c0.167,7.025-0.432,16.761-2.273,25.572c-1.841,8.811-21.026,23.488-26.33,31.822
		c-7.535,11.84-11.729,17.786-9.533,31.507c1.516,9.471,12.753,24.372,13.89,30.433c0.659,3.513,3.41,4.925,3.41,4.925
		c0.379-20.078-16.669-29.928-5.176-50.007c7.68-13.417,32.326-46.471,43.439-46.976c12.063-0.548,15.153,5.304,23.488-7.324
		C215.267,398.123,208.209,395.69,208.113,396.835z"/>
</g>
<path fill="#FFFFFF" d="M326.313,450.63c2.387,30.792,2.218,38.132,4.546,76.779c1.792,29.763,7.576,57.077,11.364,71.474
	c6.22,23.635,2.275,30.56,2.779,33.085c0,0-14.014-12.138-15.658-25.762c-3.537-29.296-8.083-52.025-9.094-80.818
	c-1.011-28.793,3.537-64.15,3.032-70.717C322.777,448.103,326.058,447.347,326.313,450.63z"/>
<path d="M346.024,746.752c29.79,53.421,39.386,140.049,25.748,187.025c-8.235,28.367-15.912,50.765-40.157,44.703
	c-6.28-1.57-15.911-6.062-5.304-40.157c18.677-60.036-0.518-136.249-23.233-166.437"/>
<path fill="#FFFFFF" d="M343.738,802.698c-6.819,3.789-0.758,20.458,6.061,18.185C356.618,818.61,358.005,794.772,343.738,802.698z"
	/>
<path fill="#FFFFFF" d="M355.523,898.15c7.663,1.533,3.427,21.246-5.483,19.19C341.13,915.283,345.243,896.095,355.523,898.15z"/>
</svg>
