<?xml version="1.0" encoding="utf-8"?>
<!-- Generator: Adobe Illustrator 16.0.3, SVG Export Plug-In . SVG Version: 6.00 Build 0)  -->
<svg version="1.2" baseProfile="tiny" id="Layer_1" xmlns="http://www.w3.org/2000/svg" xmlns:xlink="http://www.w3.org/1999/xlink"
	 x="0px" y="0px" width="40px" height="40px" viewBox="0 0 40 40" xml:space="preserve">
<path fill-rule="evenodd" fill="#D71922" d="M19.284,16.049c1.264-3.95,2.811-6.51,4.591-8.365c1.327-1.384,2.012-1.824,1.232-0.299
	c0.345-0.276,0.84-0.643,1.225-0.839c2.151-1.016,1.999-0.164,0.517,0.748c4.049-1.448,3.907,0.397-0.374,1.315
	c3.501,0.067,7.223,2.294,8.295,7.033c0.146,0.656-0.029,0.594,0.642,0.712c1.45,0.256,2.814,0.241,4.144-0.181
	c-0.144,0.98-1.44,1.617-3.459,2.038c-0.747,0.156-0.902,0.115-0.005,0.317c1.105,0.249,2.343,0.313,3.647,0.252
	c-1.018,1.171-2.641,1.77-4.646,1.794c-1.256,4.584-4.123,7.865-7.753,9.926c-8.522,4.838-20.928,4.136-27.15-4.655
	c4.081,3.203,10.129,3.91,14.622-0.558c-2.942,0-3.705-2.202-1.373-3.392c-2.208-0.023-3.614-0.723-4.437-1.987
	c-0.313-0.48-0.315-0.517,0.193-0.886c0.563-0.406,1.326-0.586,2.116-0.646c-2.286-0.655-3.685-1.849-4.168-3.451
	c-0.161-0.531-0.186-0.504,0.354-0.64c0.527-0.134,1.206-0.206,1.813-0.236c-1.795-1.089-2.868-2.424-3.142-3.9
	C5.911,8.756,6.176,9.114,7.221,9.513C11.882,11.296,16.532,13.212,19.284,16.049L19.284,16.049z"/>
</svg>
