<?xml version="1.0" encoding="utf-8"?>
<!-- Generator: Adobe Illustrator 16.0.3, SVG Export Plug-In . SVG Version: 6.00 Build 0)  -->
<svg version="1.2" baseProfile="tiny" id="Layer_1" xmlns="http://www.w3.org/2000/svg" xmlns:xlink="http://www.w3.org/1999/xlink"
	 x="0px" y="0px" width="413.18px" height="66px" viewBox="0 0 413.18 66" xml:space="preserve">
<g>
	<polygon fill="#D71922" points="0.595,66 0.595,-0.31 378.049,-0.31 410.723,32.848 378.049,66 	"/>
	<g>
		<path fill="#FFFFFF" d="M67.5,18.272c-1.84-1.615-5.091-0.999-8.715,1.414c-3.624,2.413-5.668,4.857-7.716,6.262
			c-1.663,1.47-3.609,1.374-3.609,1.374l-0.026,0.016c-2.271-2.151-5.721-2.712-8.614-1.137c-2.922,1.594-4.367,4.887-3.797,8.033
			l-0.004,0.002c0,0-0.072,1.033-1.716,2.072c-0.113,0.07-14.934,8.355-14.934,8.355s-0.471,0.269-1.041,0.812
			c-0.845,0.938-0.683,1.458-0.125,1.948c1.836,1.61,5.091,0.999,8.719-1.416c3.621-2.412,5.668-4.853,7.708-6.262
			c1.663-1.468,3.613-1.375,3.613-1.375h0.003c2.271,2.171,5.732,2.737,8.633,1.16c2.938-1.602,4.386-4.913,3.797-8.07l0.004-0.003
			c0,0,0.072-1.034,1.716-2.071c0.113-0.075,14.938-8.358,14.938-8.358s0.476-0.268,1.037-0.81
			C68.22,19.276,68.054,18.758,67.5,18.272z M43.123,34.323c-0.792,0.434-1.78,0.129-2.207-0.675
			c-0.426-0.804-0.128-1.808,0.664-2.241c0.788-0.431,1.776-0.13,2.206,0.675C44.212,32.886,43.915,33.889,43.123,34.323z"/>
	</g>
	<g>
		<path fill="#FFFFFF" d="M87.408,22.788h2.497l7.048,17.331l7.083-17.331h2.406l-8.526,20.263h-1.98L87.408,22.788z"/>
		<path fill="#FFFFFF" d="M110.521,22.788h2.24v20.118h-2.24V22.788z"/>
		<path fill="#FFFFFF" d="M118.562,22.788h14.326v2.068h-12.09v6.87h10.815v2.069h-10.815v7.044h12.229v2.066h-14.466V22.788z"/>
		<path fill="#FFFFFF" d="M135.984,22.788h2.433l5.665,16.759l5.438-16.814h1.84l5.438,16.814l5.665-16.759h2.349l-7.078,20.263
			h-1.901l-5.438-16.325l-5.464,16.325h-1.867L135.984,22.788z"/>
		<path fill="#FFFFFF" d="M177.32,22.788h7.418c4.476,0,7.418,2.415,7.418,6.382v0.055c0,4.341-3.568,6.584-7.788,6.584h-4.812
			v7.097h-2.236V22.788z M184.455,33.74c3.281,0,5.434-1.784,5.434-4.429v-0.055c0-2.875-2.123-4.369-5.321-4.369h-5.012v8.853
			H184.455z"/>
		<path fill="#FFFFFF" d="M195.342,32.906v-0.058c0-5.546,4.104-10.403,10.134-10.403c6.034,0,10.081,4.798,10.081,10.345v0.058
			c0,5.545-4.104,10.403-10.133,10.403C199.386,43.251,195.342,38.451,195.342,32.906z M213.233,32.906v-0.058
			c0-4.57-3.281-8.305-7.81-8.305c-4.533,0-7.761,3.678-7.761,8.248v0.058c0,4.571,3.285,8.306,7.814,8.306
			C210.009,41.154,213.233,37.474,213.233,32.906z"/>
		<path fill="#FFFFFF" d="M220.263,22.788h8.523c2.436,0,4.389,0.746,5.634,2.013c0.961,0.976,1.531,2.386,1.531,3.967v0.055
			c0,3.335-2.268,5.29-5.382,5.866l6.091,8.217h-2.749l-5.748-7.817h-5.664v7.817h-2.236V22.788z M228.589,33.049
			c2.973,0,5.095-1.552,5.095-4.137v-0.059c0-2.471-1.869-3.965-5.067-3.965h-6.117v8.161H228.589z"/>
		<path fill="#FFFFFF" d="M245.756,24.888H239.1v-2.1h15.575v2.1h-6.656v18.019h-2.263V24.888z"/>
		<path fill="#FFFFFF" d="M258.85,22.788h14.243v2.1H261.09v7.184h10.729v2.07H261.09v8.765h-2.24V22.788z"/>
		<path fill="#FFFFFF" d="M276.106,32.906v-0.058c0-5.546,4.104-10.403,10.133-10.403c6.034,0,10.081,4.798,10.081,10.345v0.058
			c0,5.545-4.104,10.403-10.134,10.403C280.152,43.251,276.106,38.451,276.106,32.906z M293.997,32.906v-0.058
			c0-4.57-3.281-8.305-7.811-8.305c-4.532,0-7.761,3.678-7.761,8.248v0.058c0,4.571,3.284,8.306,7.813,8.306
			C290.772,41.154,293.997,37.474,293.997,32.906z"/>
		<path fill="#FFFFFF" d="M301.03,22.788h2.24V40.81h11.151v2.097H301.03V22.788z"/>
		<path fill="#FFFFFF" d="M318.739,22.788h2.236v20.118h-2.236V22.788z"/>
		<path fill="#FFFFFF" d="M325.894,32.906v-0.058c0-5.546,4.103-10.403,10.137-10.403s10.08,4.798,10.08,10.345v0.058
			c0,5.545-4.103,10.403-10.132,10.403C329.94,43.251,325.894,38.451,325.894,32.906z M343.788,32.906v-0.058
			c0-4.57-3.285-8.305-7.81-8.305c-4.534,0-7.762,3.678-7.762,8.248v0.058c0,4.571,3.285,8.306,7.813,8.306
			C340.563,41.154,343.788,37.474,343.788,32.906z"/>
	</g>
</g>
</svg>
